<?xml version="1.0" encoding="utf-8"?>
<!-- Generator: Adobe Illustrator 27.1.1, SVG Export Plug-In . SVG Version: 6.00 Build 0)  -->
<svg version="1.1" xmlns="http://www.w3.org/2000/svg" xmlns:xlink="http://www.w3.org/1999/xlink" x="0px" y="0px"
	 viewBox="0 0 1000 1000" style="enable-background:new 0 0 1000 1000;" xml:space="preserve">
<style type="text/css">
	.st0{display:none;}
	.st1{fill:#030405;}
	.st2{fill:none;stroke:#000000;stroke-miterlimit:10;}
	.st3{fill:#E7E0C1;}
	.st4{fill:#FFFFFE;}
	.st5{fill:#D5AE75;}
	.st6{fill:#C8AC7C;}
	.st7{fill:#522A19;}
	.st8{fill:#F0F3F7;}
	.st9{fill:#F8FCFC;}
	.st10{fill:#E3851F;}
	.st11{fill:#E58622;}
	.st12{fill:#F9B650;}
	.st13{fill:#DA2F89;}
	.st14{fill:#EDE8BF;}
	.st15{fill:#2B2E69;}
	.st16{fill:#A1B0D9;}
	.st17{fill:#99AACD;}
</style>
<g id="Calque_1" class="st0">
	
		<image style="display:inline;overflow:visible;" width="1024" height="576" xlink:href="../duck_hunt_tru_minimalist_by_turpinator77_d9d9956-fullview.jpg"  transform="matrix(1.4803 0 0 1.4803 -569.8022 37.378)">
	</image>
</g>
<g id="Calque_2">
	<path class="st1" d="M267,493.3l-2.4,3.3c-0.1,0.1-0.2,0.2-0.3,0.4c-40.8,45.5-28.8,78.6-28.8,78.6c27.2,46.5,23.4,56.7,23.4,56.7
		c-3.8,40.8-51.8,23-51.8,23s-30.2-5.3-35.2-48.4c-4.9-43.1,25.7-83.2,25.7-83.2c14.8-27.8,59.3-51.3,67.2-55.3
		c0.8-0.4,1.2-0.6,1.2-0.6L267,493.3z"/>
	<path class="st1" d="M456.2,446.5c-1,5.1-3.3,8.3-3.3,8.3s-13,7.3-27.7,4.4c-0.1-0.2-0.2-0.5-0.4-0.7c-0.2,0.2-0.4,0.3-0.6,0.5
		c-1.2-0.2-2.4-0.6-3.6-1c-9.1-3.1-12-12.8-12.7-20.7c-0.6-6.3,0.2-11.6,0.2-11.6c1.3-5.7,25.1-20.4,40.4-3.6
		C457,431.4,457.5,440.3,456.2,446.5z"/>
	<path class="st2" d="M425.2,459.3c-0.3-0.1-0.7-0.1-1-0.2c0.2-0.1,0.4-0.3,0.6-0.5C425,458.8,425.1,459,425.2,459.3z"/>
	<path class="st1" d="M569.7,520.4c0,0-22.7-0.8-32.6-4.8c0,0-7.1-1-13.7-1.2c-3.4-15.3-9.6-31.2-20-43.9c8.5-0.1,19.9-0.5,22.4-1.6
		c4-1.7,32.9-6,44.2,4.8C581.3,484.4,594.7,504,569.7,520.4z"/>
	<path class="st2" d="M433.7,508.6c0,2.3-1.9,4.1-4.2,4.1c-2.3,0-4.2-1.8-4.2-4.1c0-2.3,1.9-4.1,4.2-4.1
		C431.8,504.5,433.7,506.4,433.7,508.6z"/>
	<path class="st2" d="M446.4,534.9c0,2.3-1.9,4.2-4.2,4.2c-2.3,0-4.3-1.9-4.3-4.2s1.9-4.2,4.3-4.2
		C444.5,530.6,446.4,532.5,446.4,534.9z"/>
	<path class="st2" d="M418.1,535.1c0,2.3-1.8,4.2-4,4.2s-4-1.9-4-4.2c0-2.4,1.8-4.2,4-4.2S418.1,532.8,418.1,535.1z"/>
	<path class="st2" d="M403,556.5c0,2.3-1.8,4.1-4,4.1s-4-1.8-4-4.1s1.8-4.1,4-4.1S403,554.3,403,556.5z"/>
	<ellipse class="st2" cx="429.5" cy="568.3" rx="3.8" ry="4.2"/>
	<circle class="st2" cx="407.3" cy="592.4" r="4.2"/>
	<path class="st3" d="M527,542.9c-0.3-8.6-1.3-18.4-3.6-28.6c-3.4-15.3-9.6-31.2-20-43.9c-7.9-9.6-18.2-17.4-31.6-21.8
		c-5.3-1.8-10.5-2.4-15.6-2.1c-1,5.1-3.3,8.3-3.3,8.3s-13,7.3-27.7,4.4c-0.3-0.1-0.7-0.1-1-0.2c-20,14.2-33.4,35.5-33.4,35.5
		s-41,63.9-46.1,100.3c0,0-3.4,41.2,25.7,52.2c0,0,12.4,4.9,36.7-0.3c0,0,0,0,0,0c0.1,0,0.2,0,0.4-0.1c0,0,12.4-1.2,14.1,0.6
		c0,0,1.1,10.1,10.5,3.4c0,0,2.5,1.4,6.2,3.5c10.2,5.5,30,15.7,35.7,14.5c7.8-1.6,27.2-2.5,33.2-61.8c0,0,0-8.3-0.7-17.2
		c-0.4-6.3-1.1-13-2.3-17.2C504.1,572.4,528,574.1,527,542.9z M399.1,560.6c-2.2,0-4-1.8-4-4.1s1.8-4.1,4-4.1s4,1.8,4,4.1
		S401.3,560.6,399.1,560.6z M407.3,596.6c-2.3,0-4.2-1.9-4.2-4.2c0-2.3,1.9-4.2,4.2-4.2c2.4,0,4.2,1.9,4.2,4.2
		C411.5,594.8,409.7,596.6,407.3,596.6z M414.1,539.4c-2.2,0-4-1.9-4-4.2c0-2.4,1.8-4.2,4-4.2s4,1.9,4,4.2
		C418.1,537.5,416.3,539.4,414.1,539.4z M429.5,572.6c-2.1,0-3.8-1.9-3.8-4.2c0-2.4,1.7-4.2,3.8-4.2s3.8,1.9,3.8,4.2
		C433.4,570.7,431.7,572.6,429.5,572.6z M429.4,512.8c-2.3,0-4.2-1.8-4.2-4.1c0-2.3,1.9-4.1,4.2-4.1c2.4,0,4.2,1.8,4.2,4.1
		C433.7,510.9,431.8,512.8,429.4,512.8z M442.2,539.1c-2.3,0-4.3-1.9-4.3-4.2s1.9-4.2,4.3-4.2c2.3,0,4.2,1.9,4.2,4.2
		S444.5,539.1,442.2,539.1z"/>
	<path class="st2" d="M403,556.5c0,2.3-1.8,4.1-4,4.1s-4-1.8-4-4.1s1.8-4.1,4-4.1S403,554.3,403,556.5z"/>
	<circle class="st2" cx="407.3" cy="592.4" r="4.2"/>
	<path class="st2" d="M418.1,535.1c0,2.3-1.8,4.2-4,4.2s-4-1.9-4-4.2c0-2.4,1.8-4.2,4-4.2S418.1,532.8,418.1,535.1z"/>
	<path class="st2" d="M425.2,459.3c-0.3-0.1-0.7-0.1-1-0.2c0.2-0.1,0.4-0.3,0.6-0.5C425,458.8,425.1,459,425.2,459.3z"/>
	<ellipse class="st2" cx="429.5" cy="568.3" rx="3.8" ry="4.2"/>
	<path class="st2" d="M433.7,508.6c0,2.3-1.9,4.1-4.2,4.1c-2.3,0-4.2-1.8-4.2-4.1c0-2.3,1.9-4.1,4.2-4.1
		C431.8,504.5,433.7,506.4,433.7,508.6z"/>
	<path class="st2" d="M446.4,534.9c0,2.3-1.9,4.2-4.2,4.2c-2.3,0-4.3-1.9-4.3-4.2s1.9-4.2,4.3-4.2
		C444.5,530.6,446.4,532.5,446.4,534.9z"/>
	<path class="st2" d="M383.8,667.1c-0.1,0-0.1,0-0.2,0c0,0,0,0,0-0.1C383.7,667,383.7,667,383.8,667.1z"/>
	<path class="st4" d="M379.5,655C379.5,655,379.6,655.1,379.5,655c0.9,0.3,2,0.9,2.8,1.5l0,0c0.8,0.6,1.3,1.4,1.1,2.3l-4.8,2.2
		l-1.1,0.5c0,0-0.1-1.4,0-3v0c-0.4-1.4-0.3-2.4-0.1-3c0.3-0.7,0.7-1,0.7-1"/>
	<path class="st2" d="M379.5,655c-0.5-0.1-0.8-0.2-1-0.3c0,0,0,0,0,0S379,654.8,379.5,655z"/>
	<path class="st5" d="M403,556.5c0,2.3-1.8,4.1-4,4.1s-4-1.8-4-4.1s1.8-4.1,4-4.1S403,554.3,403,556.5z"/>
	<circle class="st5" cx="407.3" cy="592.4" r="4.2"/>
	<path class="st5" d="M418.1,535.1c0,2.3-1.8,4.2-4,4.2s-4-1.9-4-4.2c0-2.4,1.8-4.2,4-4.2S418.1,532.8,418.1,535.1z"/>
	<path class="st2" d="M425.2,459.3c-0.3-0.1-0.7-0.1-1-0.2c0.2-0.1,0.4-0.3,0.6-0.5C425,458.8,425.1,459,425.2,459.3z"/>
	<ellipse class="st5" cx="429.5" cy="568.3" rx="3.8" ry="4.2"/>
	<path class="st6" d="M433.7,508.6c0,2.3-1.9,4.1-4.2,4.1c-2.3,0-4.2-1.8-4.2-4.1c0-2.3,1.9-4.1,4.2-4.1
		C431.8,504.5,433.7,506.4,433.7,508.6z"/>
	<path class="st5" d="M446.4,534.9c0,2.3-1.9,4.2-4.2,4.2c-2.3,0-4.3-1.9-4.3-4.2s1.9-4.2,4.3-4.2
		C444.5,530.6,446.4,532.5,446.4,534.9z"/>
	<path class="st7" d="M432,650.6c-9.4,6.7-10.5-3.4-10.5-3.4c-1.7-1.8-14.1-0.6-14.1-0.6c-0.1,0-0.2,0-0.4,0.1c0,0,0,0,0,0
		c-17.3,9-24.7,9-27.4,8.3c0.8,0.3,1.9,0.8,2.8,1.5l0,0c0.8,0.6,1.3,1.4,1.1,2.3l-4.8,2.2c0.6,1.1,1.5,2.4,2.8,3.9
		c0.6,0.8,1.3,1.4,2.1,2c0-0.6,0.3-3.8,1.1-6.8v0c0.3-1.2,0.7-2.4,1.2-3.3c0,0,6.1,3.1,7.2,7.6c0,0-3.3,1.5-7.8,2.3
		c-0.5,0.1-1,0.2-1.6,0.2c0.5,0.4,1.1,0.7,1.7,1.1v0c8,4.4,20.4,3.1,20.4,3.1c12.6-3.1,24.8-11.3,32.3-17.1
		C434.4,652.1,432,650.6,432,650.6z M398.5,658.6c0,0,10.9-11,10.9,4.8C409.4,663.4,402.1,668.9,398.5,658.6z"/>
	<path class="st8" d="M393.1,664.5c0,0-3.3,1.5-7.8,2.3c-0.5,0.1-1,0.2-1.6,0.2c-0.1,0-0.1-0.1-0.1-0.1c0-0.6,0.3-3.8,1.1-6.8v0
		c0.3-1.2,0.7-2.4,1.2-3.3C385.9,656.9,392,660,393.1,664.5z"/>
	<path class="st9" d="M409.4,663.4c0,0-7.4,5.5-10.9-4.8C398.5,658.6,409.4,647.5,409.4,663.4z"/>
	<path class="st10" d="M344.7,594.9c0,0-3.4,41.2,25.7,52.2c0,0,12.4,4.9,36.7-0.3c-17.3,9-24.7,9-27.4,8.3c0,0,0,0,0,0
		c-0.5-0.1-0.8-0.2-1-0.3c-0.2-0.1-0.2-0.1-0.2-0.1s-0.4,0.3-0.7,1l-18.9-4c0,0-36.7-16.2-40.8-28c-4.2-11.7-18.9-40.8-37.4-71.4
		c-10.7-17.7-14.7-39.8-16.2-55.2c0.1-0.1,0.2-0.2,0.3-0.4l2.4-3.3l-0.9-25.5c0,0-0.4,0.2-1.2,0.6c9-43.7,45.8-35.8,45.8-35.8
		c4.9-13.6,35.5-20,35.5-20c23.7,1.9,49.1,16.4,61.8,24.6c0.7,7.9,3.5,17.6,12.7,20.7c1.2,0.4,2.4,0.8,3.6,1
		c-20,14.2-33.4,35.5-33.4,35.5S349.8,558.4,344.7,594.9z"/>
	<path class="st11" d="M908.5,740.6c0,0-0.9,15.9-8.2,17.3c-7.4,1.4-13,4-13,4c-7.1,8.5-24.7,0.9-25.5,0.9s0-3.1-13.9-13
		c-13.9-9.9-17.9-31.2-17.9-31.2c0-28.3-35.7-27.2-35.7-27.2s-12.8,11.1-41.1,12.2c-28.3,1.1-55.8-19.5-55.8-19.5s-8.3,8.1-5.1,23.6
		c3.2,15.5,10,17,25.7,34c15.7,17,10,37.8,10,37.8s-21.7,19.1-23.8,46.7c-2.1,27.6-25.9,34.2-25.9,34.2l-65.2,0.6c0,0-2.7-3.8-4.9-4
		c-2.3-0.2-5.9-1.1-12.3-1.9c-6.4-0.8-7.7-20-7.7-20s6-14.2,14.2-14.2c8.1,0,34.4-4.9,34.4-4.9c16.1-4.2,28.5-20.6,28.5-20.6
		s8.1-28.2-1.7-31c-0.2-0.1-0.5-0.1-0.7-0.2c-9.5-3-16.9-10-16.9-10c-15.9,12.8-54.6,25.3-54.6,25.3s2.6,13.6-1.3,24.4
		c-4,10.8-7.4,42.5-7.4,42.5c-2.8,6.6-17.4,28-28.7,34.4c-11.3,6.4-47.2,5.3-50.1,4.5c-2.8-0.8-4.9-3.4-4.9-3.4
		c-30.8,4.9-25.7-22.1-25.7-22.1s-1.9-10,21.4-14.2c23.2-4.2,40.1-22.9,41.8-25.7c1.7-2.8,2-14.9,1.4-17.2c-0.6-2.3-18.1-15-18.1-15
		c-24.9,1.1-43.4-11.1-43.4-11.1C457.2,789.4,441,788,441,788c-13.9,5.1-75.7-61.2-75.7-61.2s-12.8,0.8-16.2,9.1
		c-3.4,8.2-14.2,24.4-14.2,24.4s-44.8,5.1-46.5-23.2c-1.7-28.3,22.7-50.5,22.7-50.5c17.6-17,42.9-21.5,42.9-21.5s16.6,4.5,23.6,9.6
		c7,5.1,8.7,3.8,8.7,3.8l-1-10.2c8,4.4,20.4,3.1,20.4,3.1c12.6-3.1,24.8-11.3,32.3-17.1c10.2,5.5,30,15.7,35.7,14.5
		c7.8-1.6,27.2-2.5,33.2-61.8c0,0,0-8.3-0.7-17.2c24.5,22.9,56.3-1.2,56.3-1.2c41.6-46.9,60.1-47.2,64.2-49.1
		c4.2-1.9,17.8-18.1,17.8-18.1c60.5-89.6,27.2-137.6,19.7-159.1s12.5-20.8,12.5-20.8s33.6,3,31.4,81.3c-2.3,78.2-37,112.6-37,112.6
		c55.6,5.3,68,21.2,68,21.2c26.8,37,48,51.8,49.5,54c1.5,2.3,26.8,4.2,26.8,4.2s31.4,31.8,35.5,40.4c4.2,8.7,45.3,31,45.3,31
		c0,9.5,2.7,29.2,2.4,32.6C898.5,721.9,908.5,740.6,908.5,740.6z"/>
	<path class="st12" d="M440.6,381.4c-4.3,2.4-9.2,4.9-13.5,6.6c-10.5,4.3-26.9-0.8-26.9-0.8c-12.2-2.5-26.6,3.7-26.6,3.7
		c-26.1,16.4-33.5,11.3-33.5,11.3s-3.1-3.4,4.8-6.8c7.9-3.4,5.7-8.2,5.7-8.2s-1.1-0.6-12.5-2.5c-11.3-2-4.5-9.6-4.5-9.6
		c10.2,0.3,17.6-1.7,17.6-1.7s8.5-4.5,5.4-10.5c-3.1-6-4.5-8.5-4.5-8.5c9.1-2.5,25.8,7.1,25.8,7.1s11-1.4,20.4,3.1
		c9.4,4.5,10.5,2.8,10.5,2.8s4.8-4.2,8.5-4c3.7,0.3,1.4,7.7,1.4,7.7s-5.1-1.1-6.8,4.5c-1.7,5.7,1.4,6.2,5.4,6.2
		c1.9,0,7.1-4.1,12-8.4C432.8,376.5,436.7,379.2,440.6,381.4z"/>
	<path class="st2" d="M540.6,350.8c-0.2-1-0.4-2.1-0.7-3.2c0.2,0,0.4,0,0.6,0C540.5,348.6,540.6,349.7,540.6,350.8z"/>
	<path class="st2" d="M609.4,378.7v0.7C609.3,379,609.4,378.7,609.4,378.7z"/>
	<path class="st12" d="M619,370.5c-5.7,1.1-9.6,8.1-9.6,8.1s-0.1,0.3,0,0.7c-0.1,27.8,2.1,46.6,2.1,46.6
		c-1.1,28.5-12.8,36.3-29.3,39.9c-16.4,3.6-14.4-41-14.4-41s-8.1,3-12.9,5.1c-4.7,2.1-36.1,2.3-36.1,2.3c-11.3,12.3-11-14.5-11-14.5
		c18.1-16.2,23.3-27.8,26.9-36.7c1.2-3,2.3-5.7,3.5-8.1c2.1-4,2.6-11.6,2.4-19.2l0.2-0.3c0.1,1.9,0,3,0,3c1.6-1.3,3.8-2.2,6.2-2.8
		c8.2-2.1,19.2-0.8,19.2-0.8s29.1,14,42.1,8.7c13-5.3,14.7,0.2,14.7,0.2S624.7,369.4,619,370.5z"/>
	<path class="st2" d="M609.4,378.7v0.7C609.3,379,609.4,378.7,609.4,378.7z"/>
	<path class="st2" d="M541,353.3l-0.2,0.3c0-0.9-0.1-1.9-0.1-2.8C540.8,351.7,540.9,352.6,541,353.3z"/>
	<path class="st3" d="M538.3,372.8c-1.3,2.4-2.3,5.1-3.5,8.1c-18.2,11.8-60.1,11.5-60.1,11.5s-17.3-1.7-34-11.1
		c-3.9-2.2-7.8-4.9-11.5-8c-4-3.5-7.6-7.5-10.6-12.3c-9.6-15.2-18.6-24.9-24.8-30.6c7.4-0.8,17.3-1.7,30.6-2.5l44.8-0.6
		c0.1,0.2,0.3,0.3,0.5,0.5c19.9,19.6,38.6,9.1,38.6,9.1c14.3,10.1,25.7,11.1,31.8,10.7c0.3,1.1,0.6,2.2,0.7,3.2
		c0,0.9,0.1,1.9,0.1,2.8C540.9,361.2,540.5,368.8,538.3,372.8z"/>
	<path class="st2" d="M540.6,350.8c-0.2-1-0.4-2.1-0.7-3.2c0.2,0,0.4,0,0.6,0C540.5,348.6,540.6,349.7,540.6,350.8z"/>
	<path class="st2" d="M541,353.3l-0.2,0.3c0-0.9-0.1-1.9-0.1-2.8C540.8,351.7,540.9,352.6,541,353.3z"/>
	<path class="st13" d="M634.7,364.9c-21.7,16.8-24.9,15.7-25.3,14.5v-0.7c0,0,4-7,9.6-8.1c5.7-1.1,4.2-8.9,4.2-8.9
		s-1.7-5.5-14.7-0.2c-13,5.3-42.1-8.7-42.1-8.7s-10.9-1.2-19.2,0.8c-2.4,0.6-4.6,1.5-6.2,2.8c0,0,0.1-1.2,0-3
		c-0.1-0.7-0.2-1.6-0.3-2.5c0-1.1-0.1-2.2-0.2-3.3c-0.2,0-0.4,0-0.6,0c-0.5-1.7-1.2-3.4-2.2-5.2c0.2,0,0.2,0,0.2,0
		s-7.7-22.4-13-36.6c-5.4-14.2-5.1-23-5.1-26.1c0-0.8,0.8-1.9,1.9-3.2l14.5-11.7c0,0,12.2-7.6,19.4-10.1c1.1-0.4,2-0.6,2.9-0.7
		c2.4-0.3,6.5-0.5,10.8-0.5c0,0,0,0,0,0c6.8-0.1,14.3,0.1,17.5,0.7c2.1,0.4,10.4,4.1,20,9.5c14.3,8,31.5,19.5,35.7,28.7
		C649.7,307.8,662.3,343.5,634.7,364.9z"/>
	<path class="st14" d="M538,342.4c0,0-0.1,0-0.2,0c-1.9,0.1-14.9-0.2-25.8-16.2c-11.9-17.3,0.3-47.3,0.3-47.3s5.4-15.3,19-9.9
		c0,0-6.2,4.2-9.4,7.6c-1.2,1.2-1.9,2.3-1.9,3.2c0,3.1-0.3,11.9,5.1,26.1C530.3,320,538,342.4,538,342.4z"/>
	<path class="st2" d="M540.6,350.8c-0.2-1-0.4-2.1-0.7-3.2c0.2,0,0.4,0,0.6,0C540.5,348.6,540.6,349.7,540.6,350.8z"/>
	<path class="st2" d="M541,353.3l-0.2,0.3c0-0.9-0.1-1.9-0.1-2.8C540.8,351.7,540.9,352.6,541,353.3z"/>
	<path class="st15" d="M537.7,342.4c1,1.8,1.7,3.5,2.2,5.2c-6.1,0.5-17.5-0.6-31.8-10.7c0,0-18.7,10.5-38.6-9.1l-0.3-0.5h-0.2
		l-44.8,0.6c-13.3,0.8-23.2,1.7-30.6,2.5c-17.5,1.9-20.7,3.4-20.7,3.4s-41.7,3.1-86.5,52.2c-42.2,46.2-93.4,52.6-99.2,53.2h0
		c-0.4,0-0.5,0-0.5,0c-1.6-20,13.7-27.6,13.7-27.6s24.4-4.7,24.6-7.9c0.2-3.2-17,3.8-17,3.8s-14.7,0.4-8.9-8.9
		c5.9-9.3,30.2-20,30.2-20c-6.6-0.8-17.4,6-17.4,6c-3.6-13.2,7.4-16.1,7.4-16.1c50.5-17,28-12.7,28-12.7c-17.4,7-14.5,2.1-14.5,2.1
		c2.5-15.1,22.7-20,26.8-20.4c4.2-0.4,1.3-2.6,1.3-2.6c3.8-11.1,22-8.5,22-8.5c-1.4-4.1,4.1-10.8,8.8-9.5c4.7,1.3,16.7-0.4,16.7-0.4
		c1-8.4,10.9-10.2,10.9-10.2s9.1,8.4,7.4,2.5c-1.7-5.8,1.1-5,7.7-7.4c6.5-2.4,12.8,3.7,12.8,3.7s10.1,5.8,3.5,0.7
		c-6.5-5.1,2.3-6.5,2.3-6.5s13.5-4,15.7,0.7c2.3,4.7,4.7,4.2,4.7,4.2s0.3,0.7,1.4-4.8c1.1-5.5,14.3-3.4,14.3-3.4s6.4,14.5,6.1,7.8
		c-0.3-6.7,3.5-6.4,3.5-6.4s11.9-0.8,13.5,3.1c1.6,4,3.5,2.7,3.5,2.7c7.2-8.2,11.5,1.1,11.5,1.1c5.2-3.5,13.8,3.1,13.8,3.1
		s0-5.4,10.2-0.4c10.2,5,2.3-7.4,2.3-7.4s-12-19.1-12.2-9.1c-0.1,10.1-7.5-6-7.5-6s-10.3-5.4-11.3,1.6c-1,7-1.8,4.8-1.8,4.8
		c-8.6-20.8-23.1-1.6-23.1-1.6c-4.2-19.1-17.6-2.6-17.6-2.6l-0.2-0.8v0l-6.6-26.6c0,0-5.5-22.3,15.9-19.3c21.4,3,41,8.9,41,8.9
		s0.8-1.5,26.3-7.4c25.5-5.9,51.2-9.3,68-4.5c13.7,3.8,26.2,13.9,31.5,17.5c-7.3,2.5-19.4,10.1-19.4,10.1l-14.5,11.7
		c3.2-3.4,9.4-7.6,9.4-7.6c-13.6-5.4-19,9.9-19,9.9s-12.2,30-0.3,47.3C522.9,342.2,535.8,342.5,537.7,342.4z"/>
	<path class="st15" d="M627.5,250.3L607,263.8c-9.6-5.4-17.9-9.1-20-9.5c-3.2-0.6-10.7-0.8-17.5-0.7c3.5-1,6.5-1.8,6.5-1.8
		c11.1-2.4,15.6-11.8,15.6-11.8c-0.3-2,0.8-3.6,2.2-4.8c2-1.7,4.6-2.5,4.6-2.5c13.9-2,5.2-3.5,5.2-3.5c-12.8-5.7,5.1-13.6,5.1-13.6
		c-5.4-3.3-1.3-9.8-1.3-9.8c10.6-1.6,8.5-4.4,8.5-4.4c-14.2,0.1-4.4-10.6-4.4-10.6c16.4-1.3,6.4-3.3,6.4-3.3
		c-27.1-4.8-4-14.7-4-14.7c-33.6-17.9-1.5-17.7-1.5-17.7c-24.2-9.4-21.7-24.7-21.7-24.7c40,14.9-4.4-6.4-4.4-6.4
		c-23.8-22.8,11.9-8.4,11.9-8.4c-47.8-30.3-17.9-25-17.9-25c28.8,12.8-9.8-8.9-9.8-8.9c-22.1-4.8-29.5-15.3-29.5-15.3
		c-13.3-16.2,6-6.2,6-6.2s14.1,4.2,33.2,12.2c0,0,0,0,0,0c34.6,14.5,85.7,41.5,99.2,78.2C700.4,207.7,627.5,250.3,627.5,250.3z"/>
	<path class="st16" d="M451.1,307.2c-10.2-5-10.2,0.4-10.2,0.4s-8.5-6.7-13.8-3.1c0,0-4.2-9.3-11.5-1.1c0,0-2,1.3-3.5-2.7
		c-1.6-4-13.5-3.1-13.5-3.1s-3.8-0.3-3.5,6.4c0.3,6.7-6.1-7.8-6.1-7.8s-13.2-2.1-14.3,3.4c-1.1,5.5-1.4,4.8-1.4,4.8
		s-2.4,0.4-4.7-4.2c-2.3-4.7-15.7-0.7-15.7-0.7s-8.8,1.4-2.3,6.5c6.5,5.1-3.5-0.7-3.5-0.7s-6.2-6.1-12.8-3.7
		c-6.5,2.4-9.4,1.6-7.7,7.4c1.7,5.8-7.4-2.5-7.4-2.5s-9.9,1.8-10.9,10.2c0,0-12,1.7-16.7,0.4c-4.7-1.3-10.2,5.4-8.8,9.5
		c0,0-18.1-2.6-22,8.5c0,0,2.9,2.3-1.3,2.6c-4.1,0.4-24.4,5.3-26.8,20.4c0,0-2.8,4.9,14.5-2.1c0,0,22.5-4.3-28,12.7
		c0,0-11,2.8-7.4,16.1c0,0,10.8-6.8,17.4-6c0,0-24.4,10.8-30.2,20c-5.9,9.3,8.9,8.9,8.9,8.9s17.2-7,17-3.8
		c-0.2,3.2-24.6,7.9-24.6,7.9s-15.3,7.6-13.7,27.6c0,0,0.2,0,0.5,0c-23.3,7.2-38.4,4.8-38.4,4.8s-6.2-5.7,0.2-15.5
		c6.4-9.8,27.4-13.4,27.4-13.4s2.6-1.9-14.6-1.1c-17.2,0.8-5.5-20.8-5.5-20.8c46.1-5.1,36.1-6.2,36.1-6.2s-21.6,1.3-23.9-0.7
		c-2.3-2,3.7-18.1,3.7-18.1s9.3-1.7,36.6-4.2c27.2-2.5-23-1.7-23-1.7c-0.3-4.2,12.2-19.8,12.2-19.8c26.4,2.3,38.6-2.3,38.6-2.3
		c-17.9-0.6-17.3-5.7-17.3-5.7L233,320c0,0,25.2,6.2,26.4,2c1.1-4.3,5.4-8.2,10.5-11.3c5.1-3.1,24.8,1.7,24.8,1.7
		c0.7-10.6,12.2-11.8,12.2-11.8c0.2,0,0.4,0.1,0.6,0.1c17.4,4,14-4,14-4s9.1-9.4,16.9-6.7c7.8,2.7,10.1,3.7,10.1,3.7
		c0.4-2.5,12.3-12.5,20-7c7.8,5.5,8.7,6,8.7,5.1c0-0.3,1.1-2.7,2.4-5.7l0.2,0.8c0,0,13.4-16.4,17.6,2.6c0,0,14.5-19.3,23.1,1.6
		c0,0,0.9,2.1,1.8-4.8c1-6.9,11.3-1.6,11.3-1.6s7.4,16,7.5,6c0.1-10.1,12.2,9.1,12.2,9.1S461.3,312.2,451.1,307.2z"/>
	<path class="st17" d="M611.5,190.9c0,0-9.8,10.8,4.4,10.6c0,0,2.1,2.8-8.5,4.4c0,0-4.1,6.5,1.3,9.8c0,0-17.9,7.9-5.1,13.6
		c0,0,8.6,1.6-5.2,3.5c0,0-2.6,0.8-4.6,2.5c-0.2-4.6-0.1-9.4,0.9-12.7c0,0,5.1-5.7,8.2-7.8c3.1-2.2-2.4,0.5-9.3,3.9
		c-6.9,3.4-2.5-14.8-2.5-14.8s23.3-12.9,3.7-5.9c-19.7,7.1-9.5-16.1-9.5-16.1s3.2-2.8,11.2-2.4c8,0.4-10.5-3.2-10.5-3.2
		s-18.6,4-17.4-8.9c1.3-12.9,6.2-12.6,6.2-12.6s9.5-0.4,15.5,1.8c6,2.3-1.6-2.3-11.9-5.1c-10.3-2.8-24.5-10.9-21-24.2
		c0,0,10.9-2.5,25.5,3.3c0,0,12.3,2.5-3-4.7c0,0-29-6.5-32.5-18.4c-3.4-11.9,13.6-3.4,13.6-3.4s19.4,4.2-1.4-3.1
		c-20.8-7.4-26.9-8.4-33.7-18.9c-6.8-10.5-0.4-9.2-0.4-9.2s50.6,17.6,15.9,3c-34.7-14.6-30.9-11.1-44.1-22.8
		c-13.2-11.8-3.5-11.8-3.5-11.8s60.2,15,78.5,26.2c2.5,1.5,5.1,3.3,7.8,5.1c-19.1-8-33.2-12.2-33.2-12.2s-19.3-9.9-6,6.2
		c0,0,7.4,10.5,29.5,15.3c0,0,38.6,21.7,9.8,8.9c0,0-29.9-5.4,17.9,25c0,0-35.7-14.5-11.9,8.4c0,0,44.4,21.3,4.4,6.4
		c0,0-2.5,15.3,21.7,24.7c0,0-32-0.1,1.5,17.7c0,0-23.1,9.9,4,14.7C617.9,187.6,628,189.6,611.5,190.9z"/>
</g>
</svg>
