<?xml version="1.0" encoding="utf-8"?>
<!-- Generator: Adobe Illustrator 27.1.1, SVG Export Plug-In . SVG Version: 6.00 Build 0)  -->
<svg version="1.1" id="Calque_2" xmlns="http://www.w3.org/2000/svg" xmlns:xlink="http://www.w3.org/1999/xlink" x="0px" y="0px"
	 viewBox="0 0 1000 1000" style="enable-background:new 0 0 1000 1000;" xml:space="preserve">
<style type="text/css">
	.st0{fill:#FBD0AA;}
	.st1{fill:#1D0C0A;}
	.st2{fill:#351A11;}
	.st3{fill:#E4161D;}
	.st4{fill:#E41D24;}
	.st5{fill:#FFFFFF;}
	.st6{fill:#1D0D0A;}
</style>
<g>
	<path class="st0" d="M795.1,622.7c-24.1,102-78.5,85.3-78.5,85.3s-28.1,77.4-74.8,89.8c0,0-58.1,28.1-64.9,33.5
		c-6.8,5.4-72.3,38.8-151.1,1.1c0,0-55.5-31.2-73.4-37.7c-17.9-6.5-58.6-55.5-65.9-87.7c0,0-75.2,12.8-84.7-131.2
		c0,0,3.9-49.4,45.3-42.9l15.9,8.5c-0.5-9.4-0.2-15.8,0.3-20v0c0.1-1.3,0.1-2.7,0.1-2.7l0,2.1c0.1-0.5,0.1-1,0.2-1.4
		c0-0.1,0-0.2,0-0.3c0-0.6,0.2-1.2,0.4-1.8c3.8-11.2,33.9-33.6,39-37.3c0.5-0.4,0.7-0.5,0.7-0.5c17.5-13.8,38.2-25,56.7-33.5
		c5.9-9.4,14.4-17.2,26.6-19.8c8.4-1.8,16-1.3,22.8,0.9c0.7-0.2,1-0.3,1-0.3c72.3-23.8,158.2-5.7,158.2-5.7
		c8.8,1.5,16.6,3.2,23.5,4.9c6.6-2,14-1.9,22.2,1c0,0,11.4,2.1,21.9,14.8c0,0,0,0,0,0c0.6,0.4,0.9,0.6,0.9,0.6
		c30,10.8,60.7,39.1,60.7,39.1c0.7,0.3,1.4,0.6,2,0.9c46.8,20.8,41.4,53.2,39.9,59.3c0,0.2-0.1,0.4-0.1,0.6c0,0,0,0.1,0,0.2
		c1.3-2.6,16.4-9.9,16.4-9.9S819.2,520.7,795.1,622.7z"/>
	<path class="st1" d="M334.1,615.3c0,0,10.7,13.8,19.8,19.3c11.1,6.6,17.2,10,30.6,15.1s22.7,3.8,22.7,3.8s-2.7,19.2,7.7,37.6
		c0,0,12.8,25.5,41.5,37.3c28.8,11.8,64.8,13.2,96.4-3c31.6-16.2,46.9-49.6,43.5-71.1c0,0,49.3-7.1,71.4-37.8
		c0,0,21.3,48.9,2.3,71.6c0,0-5.7,9.6-25.8,15.6c0,0-7.4,31.5-21.5,36.3c0,0-15.4,10.2-45.1-2.3c0,0-26.8,42.7-76.5,15.7
		c0,0-44,27.6-76-15.5c0,0-54.6,24.8-66.7-34c0,0-34.5-2.5-33.1-47.5C325.4,656.2,328.9,627.9,334.1,615.3z"/>
	<path class="st2" d="M292.5,620.2c-2.3,5.3-9.5,35.9-9.5,35.9c-18.9-5.3-16.2-50.3-16.2-50.3c4.5-21.9-3.8-64.2-3.8-64.2
		c-0.5-9.4-0.2-15.8,0.3-20v0c0-0.2,0-0.4,0.1-0.6c0.1-0.5,0.1-1,0.2-1.4c0.1-0.8,0.3-1.5,0.4-2.1c3.8-11.2,33.9-33.6,39-37.3
		c0,0.1,0,0.1,0,0.2c-4.9,62,0.4,65,5.7,101.7C314,618.7,292.5,620.2,292.5,620.2z"/>
	<path class="st3" d="M779.8,428.8c-7.1-24.9-2.8-52.4-57.5-129c-54.7-76.5-118.8-107.4-118.8-107.4
		c-29.5-20.7-113.1-22.1-113.1-22.1c-62.9,1.4-129.8,44.8-129.8,44.8C236.4,318,218.4,420.2,222.2,460.5c3.8,40.2,23,71.6,23,71.6
		l1.8,1l15.9,8.5c-0.5-9.4-0.2-15.8,0.3-20v0c0.1-1.3,0.1-2.7,0.1-2.7l0,2.1c0.1-0.5,0.1-1,0.2-1.4c0-0.1,0-0.2,0-0.3
		c0-0.6,0.2-1.2,0.4-1.8c3.8-11.2,33.9-33.6,39-37.3c0.5-0.4,0.7-0.5,0.7-0.5c17.5-13.8,38.2-25,56.7-33.5
		c5.9-9.4,14.4-17.2,26.6-19.8c8.4-1.8,16-1.3,22.8,0.9c0.7-0.2,1-0.3,1-0.3c72.3-23.8,158.2-5.7,158.2-5.7
		c8.8,1.5,16.6,3.2,23.5,4.9c6.6-2,14-1.9,22.2,1c0,0,11.4,2.1,21.9,14.8c0,0,0,0,0,0c0.6,0.4,0.9,0.6,0.9,0.6
		c30,10.8,60.7,39.1,60.7,39.1c0.7,0.3,1.4,0.6,2,0.9c46.8,20.8,41.4,53.2,39.9,59.3c0,0.2-0.1,0.4-0.1,0.6c0,0,0,0.1,0,0.2
		c1.3-2.6,16.4-9.9,16.4-9.9C788.3,486.7,779.8,428.8,779.8,428.8z M495.7,223.3c89-2.3,96.7,68.3,96.7,68.3
		c5.1,51.3-21.8,63.5-21.8,63.5c-56.1-15.6-138.6,0.6-138.6,0.6c-11.5-9.6-19-31.2-19-31.2C405.9,305.5,406.7,225.6,495.7,223.3z"/>
	<path class="st3" d="M263.4,523.2l-0.4,18.4c-0.5-9.4-0.2-15.8,0.3-20C263.3,523.5,263.2,525.4,263.4,523.2z"/>
	<path class="st3" d="M263.5,521c0.1-0.5,0.1-1,0.2-1.4c-0.1,1.8-0.2,3-0.3,3.7L263.5,521z"/>
	<path class="st3" d="M410,427.2c-4.7,1.4-25.2,7.8-49.4,18.9c5.9-9.4,14.4-17.2,26.6-19.8C395.6,424.5,403.2,424.9,410,427.2z"/>
	<path class="st3" d="M570.6,355.1c-56.1-15.6-138.6,0.6-138.6,0.6c-11.5-9.6-19-31.2-19-31.2c-7.1-19-6.2-98.9,82.8-101.2
		c89-2.3,96.7,68.3,96.7,68.3C597.5,343,570.6,355.1,570.6,355.1z"/>
	<path class="st3" d="M636.8,441.9c-3.5-2.1-17.1-9.2-44.1-15.8c6.6-2,14-1.9,22.2,1C614.9,427,626.2,429.1,636.8,441.9z"/>
	<path class="st4" d="M263.5,518.9l0,2.1l0,2.2c-0.2,2.2-0.1,0.3,0-1.6v0C263.4,520.2,263.5,518.9,263.5,518.9z"/>
	<path class="st5" d="M570.6,355.1c-56.1-15.6-138.6,0.6-138.6,0.6c-11.5-9.6-19-31.2-19-31.2c-7.1-19-6.2-98.9,82.8-101.2
		c89-2.3,96.7,68.3,96.7,68.3C597.5,343,570.6,355.1,570.6,355.1z"/>
	<polygon class="st3" points="427.2,324.8 453.7,342.8 474.9,277.4 501.1,307.6 528.1,277.4 548.7,342.8 575,325.6 532.7,242.8 
		501.5,274.2 468.4,243 	"/>
	<path class="st6" d="M455.8,502c0,0-54.4-64.6-108.3-9.6c0,0,0.8-26.6,13-46.3c5.9-9.4,14.4-17.2,26.6-19.8
		c8.4-1.8,16-1.3,22.8,0.9C433.9,435,448.3,465.1,455.8,502z"/>
	<path class="st6" d="M654.2,493.2c0,0-43.1-58-108.9,8.8c0,0,12.8-65.6,47.3-75.9c6.6-2,14-1.9,22.2,1c0,0,11.4,2.1,21.9,14.8
		c0,0,0,0,0,0C644.8,451.6,652.4,467.4,654.2,493.2z"/>
	<path class="st2" d="M740.4,541.8c0,0.2-0.1,0.4-0.1,0.6c0,0,0,0.1,0,0.2c-6.7,27.3-3.1,40-4,72.7c-1.1,43.8-16.2,40.8-16.2,40.8
		l-9.5-36.3c-12.7-0.6-19.1-21.2-17.4-29.5c1.7-8.3,6.2-42.3,7.9-52.9c1-6.3,0.2-33.9-0.6-55C747.2,503.3,741.8,535.7,740.4,541.8z"
		/>
</g>
</svg>
