<?xml version="1.0" encoding="utf-8"?>
<!-- Generator: Adobe Illustrator 27.1.1, SVG Export Plug-In . SVG Version: 6.00 Build 0)  -->
<svg version="1.1" xmlns="http://www.w3.org/2000/svg" xmlns:xlink="http://www.w3.org/1999/xlink" x="0px" y="0px"
	 viewBox="0 0 1000 1000" style="enable-background:new 0 0 1000 1000;" xml:space="preserve">
<style type="text/css">
	.st0{display:none;}
	.st1{fill:#F3DEAF;stroke:#000000;stroke-miterlimit:10;}
	.st2{fill:none;stroke:#000000;stroke-miterlimit:10;}
	.st3{fill:#F4DEB1;stroke:#000000;stroke-miterlimit:10;}
	.st4{fill:#701C23;}
	.st5{fill:#FEFAF6;}
	.st6{fill:#FDF7EF;}
	.st7{fill:#513935;}
</style>
<g id="Calque_1" class="st0">
	
		<image style="display:inline;overflow:visible;" width="600" height="600" xlink:href="../st,small,507x507-pad,600x600,f8f8f8.u1.jpg"  transform="matrix(2.4525 0 0 2.4525 -199.3673 -123.6299)">
	</image>
</g>
<g id="Calque_2">
	<path class="st1" d="M750.1,163.2c-8.8-17-83-62-83-62s-43.8-30.6-75.6-38.2c-31.8-7.6-109.6-13.6-109.6-13.6s-40.8,0-61.6,8.7
		c-20.8,8.7-64.2,49.5-64.2,49.5s-36.3,39.7-45.3,48.8s-35.9,55.2-35.9,55.2S257,278.1,250.9,288c0,0,9.5,30.2,20.8,43.8
		c8.9,10.7,33.6,47,47,69.3c3.6,6,6.4,11,7.8,14.2c6.8,15.1,25.7,38.9,46.9,42c21.2,3,31.2,0.8,31.2,0.8c9.4,13.3,19.1,28,24.3,39.1
		c12.2,26.4,13,28.3,26.6,38c13.6,9.6,29.5,14.7,40,24.9c10.5,10.2,37.7-7.9,37.7-7.9s19.8-4,45.1-3.7
		c25.2,0.3,85.9-113.4,98.9-164.7c21.8-5.9,36.4-35.7,36.4-35.7l11.2-38.6l23.1-79.3C747.9,230.1,758.9,180.2,750.1,163.2z
		 M361.9,374.4c0,0,29.3-35.3,56.5-11c3.4,3.1,6.8,7.1,10.2,12.2C428.6,375.5,408,420.8,361.9,374.4z M551,496.2
		c-6.1,0.4-18.9,4.9-5.7,6.4c13.2,1.5,9.8,7.6,6.8,12.5c-3,4.9-26.8,19.3-26.8,19.3c-23-6.4-35.1-12.9-35.1-12.9
		c4.2-4.9,3.4-16.6-6.8-13.6c-10.2,3-9.5-6.8-9.5-6.8s-1.1-23.8,18.9-22.3c20,1.5,36.7-10.6,36.7-10.6s25.3-3.4,31.4,8.7
		C566.9,489,557.1,495.8,551,496.2z M622.1,323.6c-7.1,13.9-24.2,32.7-63.1,18.8c0,0,0.3-2.7,1.3-6.7c3.8-14.3,17.9-44.8,66.3-24.7
		C626.6,311,625.6,316.7,622.1,323.6z"/>
	<path class="st2" d="M669.5,314.3c3.6,37.4,7.6,69.4,7.6,69.4"/>
	<path class="st2" d="M341.6,378.3c5,11.5,15.5,28.6,37.6,46.3c0,0,12.5,15.4,25.3,33.5"/>
	<path class="st3" d="M742.6,912c0,0-3.9,2.2-8.8,5.5c-3.7,2.5-8,5.6-11.6,8.9c-8.3,7.6-36.7,8.3-48.8,1.1c0,0-2.3-0.3-4.9-0.2
		c-2.2,0.1-4.7,0.5-6.1,1.7c-3,2.6-20.4,2.6-26.1-12.1s3.4-44.2,3.4-44.2s3.8-68.4-1.5-100.1c-5.3-31.8-14.4-83.9-16.2-113.8
		s-10.2-66.9-12.5-71.4c-2.3-4.5-62.7,55.6-177.3,3c0,0-3.8,53.3-7.6,62.4c-3.8,9.1-10.6,93.7-9.8,117.9c0.8,24.2,0.4,51.8,9.1,72.6
		c8.7,20.8,5.7,69.9,5.7,69.9s-12.5,15.9-28,13.6c0,0-17.8,18.5-40.1,7.9c0,0-19.3,9.8-43.5-12.1c0,0-1.3,0.2-3.4,0
		c-4.7-0.4-13.1-2.5-16.3-12.9c0,0-7.9-33.3,1.9-61.6l13.2-26.8c0,0,7.6-92.6-1.9-134.2c-9.5-41.6-1.9-193.5-1.9-193.5l8.8-92.4
		c3.6,6,6.4,11,7.8,14.2c6.8,15.1,25.7,38.9,46.9,42c21.2,3,31.2,0.8,31.2,0.8c9.4,13.3,19.1,28,24.3,39.1
		c12.2,26.4,13,28.3,26.6,38c13.6,9.6,29.5,14.7,40,24.9c10.5,10.2,37.7-7.9,37.7-7.9s19.8-4,45.1-3.7
		c25.2,0.3,85.9-113.4,98.9-164.7c21.8-5.9,36.4-35.7,36.4-35.7l11.2-38.6c2.4,10.1,6.9,32.2,5.7,51.1c-1.7,25.5,0.2,65.5,0.2,65.5
		s0.2,167.5,2.5,177.7c2.3,10.2,0,111.4,0,111.4s-2.6,52.7-4.4,68.9c-1.8,16.2,0,62.9,0,62.9s0.2,10.2,9.3,19.3
		C747.2,875.3,757.4,899.5,742.6,912z"/>
	<path class="st2" d="M318.9,875.9c0,0-15.4,21.9-3.7,46.7"/>
	<path class="st2" d="M361.1,933.4c0,0,0.9-24.4,0-32.3"/>
	<path class="st2" d="M401.7,926.7c0,0,6.4-19.1,3-31.6"/>
	<path class="st2" d="M668.6,927.2c0,0-8.4-7-1.5-33.4"/>
	<path class="st2" d="M733.8,917.4c0,0,0.5-27.4-4.8-31.9"/>
	<path class="st2" d="M669.5,314.3c-3.7-37.9-7-81.3-5.5-102.7"/>
	<path class="st2" d="M341.6,378.3c-3.8-8.8-4.3-14.4-4.3-14.4"/>
	<path class="st2" d="M669.5,314.3c3.6,37.4,7.6,69.4,7.6,69.4 M341.6,378.3c5,11.5,15.5,28.6,37.6,46.3c0,0,12.5,15.4,25.3,33.5"/>
	<path class="st4" d="M418.4,363.3c-27.2-24.2-56.5,11-56.5,11c46.1,46.4,66.7,1.2,66.7,1.2C425.2,370.4,421.8,366.4,418.4,363.3z
		 M401.1,379c0,0-7,3.6-5.8-3.9C395.2,375.1,403,371.9,401.1,379z M409.6,369c0,0-6.4,0-10.3-2c-2.6-1.3-4.1-3.4-2.2-6.8
		c0,0,11.4-1.7,12.8,4.8C410.1,366.1,410,367.4,409.6,369z"/>
	<path class="st5" d="M409.6,369c0,0-6.4,0-10.3-2c-2.6-1.3-4.1-3.4-2.2-6.8c0,0,11.4-1.7,12.8,4.8C410.1,366.1,410,367.4,409.6,369
		z"/>
	<path class="st5" d="M401.1,379c0,0-7,3.6-5.8-3.9C395.2,375.1,403,371.9,401.1,379z"/>
	<path class="st4" d="M560.3,335.6c-1.1,4-1.3,6.7-1.3,6.7c39,13.9,56.1-4.9,63.1-18.8c3.5-6.9,4.5-12.6,4.5-12.6
		C578.2,290.9,564.1,321.4,560.3,335.6z M577.9,320.3c0,0-0.8-14.7,12.8-7.1C590.7,313.2,594.4,323.1,577.9,320.3z M595.5,331
		c0,0-3.4,0.3-5.1-1.3c-0.9-0.9-1.3-2.3-0.3-4.7c0,0,6.1-0.7,5.9,3.6C596,329.3,595.9,330.1,595.5,331z"/>
	<path class="st6" d="M577.9,320.3c0,0-0.8-14.7,12.8-7.1C590.7,313.2,594.4,323.1,577.9,320.3z"/>
	<path class="st6" d="M596.1,328.7c0,0.7-0.2,1.5-0.5,2.4c0,0-3.4,0.3-5.1-1.3c-0.9-0.9-1.3-2.3-0.3-4.7
		C590.1,325.1,596.2,324.3,596.1,328.7z"/>
	<path class="st2" d="M536.4,323.1c0,0,7.2-47.6,59.7-37.4"/>
	<path class="st2" d="M369.2,342.8c0,0,47.6-22.9,72.2,20.7"/>
	<path class="st7" d="M545.3,502.6c13.2,1.5,9.8,7.6,6.8,12.5c-3,4.9-26.8,19.3-26.8,19.3c-23-6.4-35.1-12.9-35.1-12.9
		c4.2-4.9,3.4-16.6-6.8-13.6c-10.2,3-9.5-6.8-9.5-6.8s-1.1-23.8,18.9-22.3c20,1.5,36.7-10.6,36.7-10.6s25.3-3.4,31.4,8.7
		c6,12.1-3.8,18.9-9.8,19.3C545,496.6,532.1,501.1,545.3,502.6z"/>
</g>
</svg>
