<?xml version="1.0" encoding="utf-8"?>
<!-- Generator: Adobe Illustrator 27.1.1, SVG Export Plug-In . SVG Version: 6.00 Build 0)  -->
<svg version="1.1" id="Calque_2" xmlns="http://www.w3.org/2000/svg" xmlns:xlink="http://www.w3.org/1999/xlink" x="0px" y="0px"
	 viewBox="0 0 1000 1000" style="enable-background:new 0 0 1000 1000;" xml:space="preserve">
<style type="text/css">
	.st0{fill:#FDD924;}
	.st1{fill:#E73C25;}
	.st2{fill:#030405;}
</style>
<path class="st0" d="M847,356c0,0-11.2,23.2-38.2,50.2c-14.5,14.5-33.4,30.1-57.7,43.7L690.9,486c0,0,29.4,43.2,21.7,121.4
	c0,0,21.3,67,12.8,83.9c-0.3,0.6-0.7,1.2-1,1.6l-2.5,7.8c0,0-1.7,5.9-3.9,12.3c-1.5,4.5-3.4,9.2-5,12.3c-4,7.4-33.1,49.5-84.7,70.7
	c-51.6,21.2-120.8,45.3-233-12.3c-41-21.1-63.1-44.8-74.6-66.4c-6.3-11.9-9.5-23.1-10.8-33c-2.9-21.2,2.7-35.8,2.7-35.8
	s8.3-36.8,12.8-48.2c0,0-3.1-74.8,2-86.7c5.1-11.9,16.2-26.6,16.2-26.6s-29.1-5.5-81.3-55.4c0,0-21.3-18.6-44.3-43.3
	c-25.2-60.9-26.6-129.8-26.6-129.8l-0.4-0.2c7.3,1.3,15.4,4,23.6,9C242,284,331.6,336.1,390.3,436.8c0,0,110-65.2,237.5-4.8
	c0,0,64.9-77.3,145.8-121.6c0,0,30.1-17.5,59.4-26c15.8-4.6,31.4-6.6,41.9-1.8C904.8,296.1,847,356,847,356z"/>
<path class="st1" d="M309.7,691.2c0,0-2.6-50.3,39.1-49.1s48.2,65.4,37,76.9c0,0-27.2,44.8-65.8-2.5
	C320.1,716.6,311.4,707.3,309.7,691.2z"/>
<path class="st1" d="M649.1,675.2c0,0,26.6-48.2,62.4-23.2c0,0,35.7,34-6.2,77.7c0,0-39.1,32.1-59.5-14.6
	C645.7,715,640,697.7,649.1,675.2z"/>
<path class="st2" d="M833.1,283.7c0,0-1.4,67.5-24.9,124.2c0,0,83.6-64.3,97.5-133.8C905.6,274.1,853.8,275.1,833.1,283.7z"/>
<path class="st2" d="M217.9,388.3c-1-1-61.9-62.4-79.4-98.6c0,0-11-22.4-12.2-45.1c0,0,37.6-2.2,64.5,13.7l0.4,0.2
	C191.3,258.5,192.7,327.3,217.9,388.3C217.9,388.3,217.9,388.3,217.9,388.3z"/>
</svg>
