<?xml version="1.0" encoding="utf-8"?>
<!-- Generator: Adobe Illustrator 27.1.1, SVG Export Plug-In . SVG Version: 6.00 Build 0)  -->
<svg version="1.1" xmlns="http://www.w3.org/2000/svg" xmlns:xlink="http://www.w3.org/1999/xlink" x="0px" y="0px"
	 viewBox="0 0 1000 1000" style="enable-background:new 0 0 1000 1000;" xml:space="preserve">
<style type="text/css">
	.st0{display:none;}
	.st1{fill:#DF5E2B;}
	.st2{fill:#EE7624;}
	.st3{fill:#070809;}
	.st4{fill:#070707;}
	.st5{fill:#040505;}
	.st6{fill:#D95F2B;}
	.st7{fill:none;}
</style>
<g id="Calque_1" class="st0">
	
		<image style="display:inline;overflow:visible;" width="800" height="450" xlink:href="../Matt_CPU.jpg"  transform="matrix(2.0882 0 0 2.0882 -331.4746 43.1431)">
	</image>
</g>
<g id="Calque_2">
	<path class="st1" d="M768.7,361.4C758.5,240.6,623.3,64.6,426,132.6S245.7,437.9,245.7,437.9C256.8,708.3,283,721.5,283,721.5
		c28.3,50.6,77.4,80,112,95.4c8.2,3.7,15.6,6.5,21.7,8.7c10.8,3.8,17.5,5.5,17.5,5.5l144.9,4c0,0,8.4-3.1,21.3-8.9
		c8-3.6,17.7-8.2,28.2-13.7c35.8-18.8,81-48.1,99.3-83.7C760.2,665.8,778.9,482.1,768.7,361.4z M510.2,550.5
		c42.5,1.7,68,57.3,68,57.3s0.6,1.5,1.1,4.2l-15.3-2.5c0,0-1.7,17.6-11.4,34.4c-6.9,12-17.8,23.5-35.1,28.1
		c-2.7,0.7-5.5,1.3-8.5,1.6c0,0-3.3-0.3-8.2-1.8c-9.5-2.8-25.3-9.9-36.6-27.2c-5.7-8.7-10.3-20-12.4-34.6l-15.3-1.7
		C436.5,608.3,467.7,548.8,510.2,550.5z"/>
	<path class="st2" d="M371.9,980.2h273.3c0,0-30.6-121.9-85-134.4c-54.4-12.5-131.5,4.5-131.5,4.5s-14.2,31.2-21.5,40.8
		c-7.4,9.6-32.3,85.6-35.7,86.7L371.9,980.2z"/>
	<polygon class="st3" points="367.9,801 424.6,880.4 446.7,869.1 466.5,890 489.8,881 507.4,900.2 530,880.4 549.9,890 568.6,870.2 
		591.3,879.8 646.3,805.6 596.4,803.9 578.2,784 549.3,811.2 539.1,811.2 507.9,784 472.2,814.1 438.2,786.3 414.4,807.3 	"/>
	<path class="st4" d="M500.8,671.7c-4.9,0.2-10.1,0.7-15.4,1.6c-2.2,0.4-4.4,0.8-6.6,1.3c-25.6,5.9-52.4,22.1-58.7,62.9l-3.3,88.1
		l-0.6,17.4c0,0-10.5-9.7-21.1-26.1c-10.2-15.9-20.3-38.1-20.9-64.1c-1.1-52.7,40.8-100.9,74.8-106c0.7-0.1,1.5-0.2,2.4-0.4
		c0.6-0.1,1.2-0.2,1.9-0.3c3.2-0.5,6.9-1,11-1.6C475.5,661.8,491.3,668.9,500.8,671.7z"/>
	<path class="st4" d="M628.6,812.4c-6.3,13.4-15.7,26-29.4,35.6c0,0,0.8-8.6,1.2-22c1.5-48.1-1.5-158-62.4-153.6c-0.1,0-0.3,0-0.4,0
		c-2.1,0.2-4.2,0.5-6.4,0.9c0,0-5.3-1-13.6-1.6c17.2-4.5,28.2-16.1,35.1-28.1c5,0.9,9.9,2,14.8,3.3c0.7,0.2,1.3,0.4,2,0.6
		c32.1,9.5,60.2,30.4,69.5,72.8C638.9,720.5,648.3,770.8,628.6,812.4z"/>
	<path class="st3" d="M291.6,501.7l25.5,28.9c0,0,34-63.8,146.3-20.4l6.8-20.4C470.2,489.8,379.2,435.4,291.6,501.7z"/>
	<path class="st3" d="M547.2,489.8l7.9,23.8c0,0,92.8-48.5,145.5,17l23-25.5C723.6,505.1,674.4,433.7,547.2,489.8z"/>
	<path class="st5" d="M581.6,612.2c-0.3,4-1,7.7-2,11.3c-2.5,8.9-6.8,16.7-12.2,23.6c-8.5,10.8-19.5,19.2-29.8,25.4
		c-0.8,0.5-1.5,0.9-2.3,1.3c-14.8,8.6-27.4,12.6-27.4,12.6c-11.4-2.5-21-6.7-29.1-11.9c-12.3-7.9-21.2-18.1-27.5-28.2
		c-11.7-18.6-14.6-36.5-14.8-38.1c0,0,0,0,0-0.1c0,0,0,0,0,0l15.3,1.7c2.1,14.6,6.7,25.9,12.4,34.6c11.3,17.3,27.1,24.3,36.6,27.2
		c5,1.5,8.2,1.8,8.2,1.8c3-0.3,5.8-0.9,8.5-1.6c17.2-4.5,28.2-16.1,35.1-28.1c9.7-16.8,11.4-34.4,11.4-34.4l15.3,2.5L581.6,612.2z"
		/>
	<path class="st6" d="M579.3,611.9l-15.3-2.5c0,0-1.7,17.6-11.4,34.4c-6.9,12-17.8,23.5-35.1,28.1c-2.7,0.7-5.5,1.3-8.5,1.6
		c0,0-3.3-0.3-8.2-1.8c-9.5-2.8-25.3-9.9-36.6-27.2c-5.7-8.7-10.3-20-12.4-34.6l-15.3-1.7c0,0,31.2-59.5,73.7-57.8
		c42.5,1.7,68,57.3,68,57.3S578.8,609.2,579.3,611.9z"/>
	<path class="st7" d="M579.7,623.6c-0.8,6.8-3.5,15.3-10.3,24.1c-6.3,8.2-16.2,16.8-31.4,24.8c-0.9,0.5-1.8,0.9-2.7,1.4
		c-5.1,2.6-10.9,5.1-17.2,7.5c0,0-15.1,0.3-32.7-8.1c-10.8-5.1-22.5-13.5-32.2-27.1c-6.9-9.7-12.8-22-16.7-37.8c0,0,0,0,0-0.1
		c0,0,0,0,0,0l15.3,1.7c2.1,14.6,6.7,25.9,12.4,34.6c11.3,17.3,27.1,24.3,36.6,27.2c5,1.5,8.2,1.8,8.2,1.8c3-0.3,5.8-0.9,8.5-1.6
		c17.2-4.5,28.2-16.1,35.1-28.1c9.7-16.8,11.4-34.4,11.4-34.4l15.3,2.5C579.8,614.7,580.2,618.7,579.7,623.6z"/>
	<path class="st3" d="M634.2,568.8c58.2,1.5,67.7-56.7,67.7-56.7l-18.9-6c0,0,9.4,38.6-44.6,41.6s-54.8-34.4-54.8-51.8
		c0-17.4-17,1.1-17,1.1S576,567.3,634.2,568.8z"/>
	<path class="st3" d="M310.4,510.2c0,0,20.1,38.6,38.8,53.3c18.7,14.7,66,2.8,83.6-18.4c17.6-21.3,14.2-55.3,14.2-55.3l-14.7-1.7
		c0,0,8.5,38.3-13.9,48.8c-22.4,10.5-38,17.6-70.6,3.1c0,0-17.6-14.5-18.4-40.3L310.4,510.2z"/>
</g>
</svg>
