<?xml version="1.0" encoding="utf-8"?>
<!-- Generator: Adobe Illustrator 27.1.1, SVG Export Plug-In . SVG Version: 6.00 Build 0)  -->
<svg version="1.1" xmlns="http://www.w3.org/2000/svg" xmlns:xlink="http://www.w3.org/1999/xlink" x="0px" y="0px"
	 viewBox="0 0 1000 1000" style="enable-background:new 0 0 1000 1000;" xml:space="preserve">
<style type="text/css">
	.st0{display:none;}
	.st1{fill:#DCDBDD;}
	.st2{fill:#8D2813;}
	.st3{fill:#EFDFBE;}
	.st4{fill:#5A4133;}
	.st5{fill:#5E4729;}
	.st6{fill:#1B1B15;}
	.st7{fill:#0A0909;}
</style>
<g id="Calque_1" class="st0">
	
		<image style="display:inline;overflow:visible;" width="832" height="456" xlink:href="../2267028-wiiplay983_screen.jpg"  transform="matrix(6.6419 0 0 6.6419 -1508.8226 -976.8998)">
	</image>
</g>
<g id="Calque_2">
	<path class="st1" d="M441,656.5c0,0-32.9,17-57.8,12.5v121.3l-146.3-1.1c0,0-17-5.7-30.6,5.7c-13.6,11.3-29.5,48.8-72.6,22.7
		c0,0-17-20.4-9.1-32.9c7.9-12.5,124.7-98.6,124.7-98.6s40.8-10.2,40.8,25c0,0-18,31.6-22.3,36.7l68.8,1.1l1.1-87.7
		c0,0-38.9-25.3-40.1-49.1c-1.1-23.8-1.5-20.8-1.5-20.8l-89.7-4.3l-1.7,57c0,0,34.1-5.5,42.6,2.2c8.5,7.7,6.7,25-3.5,35.2l-123.1,97
		c0,0-50.6,10.6-34-37c16.6-47.6,56.7-65.4,56.7-65.4s1.8-112.8,29-131.5l123.3,0.9c0,0,11-27.8,23.8-36l0.3,0.4l118.3,143.7
		L441,656.5z"/>
	<path class="st2" d="M667.8,623.6c-30.6,17.6-42,32.9-42,32.9s-12.5,13.6,4.5,38c17,24.4,31.2,48.8,31.2,48.8s21.5,60.7-22.7,14.2
		c-44.2-46.5-52.2-74.8-52.2-74.8s-16.4-36.3,14.7-57.8c31.2-21.5,26.7-21.5,26.7-21.5s19.8-6.2-7.4-34
		c-27.2-27.8-49.3-50.5-49.3-50.5L438.3,653.1L320,509.4c4.1-7.4,11-16.5,21.8-23c21.3-12.8,147.1-75.7,147.1-75.7l-80.8-79.1
		c0,0-23.8-19.5-2.6-38.3c21.3-18.7,55.3-52.7,55.3-52.7s12.8-13.6-5.1-32.3c-17.9-18.7-37.4-61.2-37.4-61.2s-2.5-32.3,27.2-5.1
		c29.8,27.2,49.3,75.7,49.3,75.7s17,36.6-7.7,51c-24.7,14.5-42.5,44.2-42.5,44.2l64.8,77.4c0.8,4.3,1.4,6.8,1.4,6.8
		c17.4,4.1,30.5-1.1,33.3-2.3l2.8,11c0,0,11.9,37.1,45,56c-13.8,4.3-4,24.1-4,24.1s9.5,14.4,29.4,22.4l61.1,72.7
		C678.6,581.1,698.4,606,667.8,623.6z"/>
	<path class="st3" d="M797.4,316.3c-15.1,11-40.8,76.7-40.8,80.9c0,4.2-2.3,37-2.3,37c-11.3,17-61.6,30.2-61.6,30.2
		s-45.2,0.6-76.3-1.7c-4.8-0.4-9.3-0.8-13.3-1.3c-4.8-0.6-8.4-0.4-11.1,0.5c-33.1-18.9-45-56-45-56l-2.8-11c0.4-0.2,0.6-0.3,0.6-0.3
		c-0.4-5.3-0.5-10.5-0.5-15.5c0.4-83.3,53.6-114.2,53.6-114.2c25.3,22.3,164,46.1,192,37.4C817.8,293.6,812.6,305.3,797.4,316.3z"/>
	<path class="st4" d="M814.1,422.1c0,0-55.6,49.5-124.7,80.9c-31.5,14.3-55.3,12-71.9,5.4c-19.9-8-29.4-22.4-29.4-22.4
		s-9.8-19.8,4-24.1c2.7-0.8,6.3-1.1,11.1-0.5c3.9,0.5,8.4,0.9,13.3,1.3c31.1,2.3,76.3,1.7,76.3,1.7s50.3-13.2,61.6-30.2
		c0,0,2.3-32.9,2.3-37c0-1.8,4.7-14.9,11.3-30.1c1.3-3.1,2.7-6.3,4.2-9.4c8.2-17.8,18-36,25.3-41.3c15.1-11,20.4-22.7-7.6-14
		c-28,8.7-166.7-15.1-192-37.4c0,0-53.2,30.9-53.6,114.2c0,5,0.1,10.1,0.5,15.5c0,0-0.2,0.1-0.6,0.3c-2.8,1.3-15.9,6.4-33.3,2.3
		c0,0-0.6-2.6-1.4-6.8c-2.9-15.5-8.2-53.4,4.8-74.4c16.6-26.8,57.8-65.4,57.8-65.4s55.9-66.9,131.9-63.9s98.6,1.5,132.7,57.1
		C870.8,299.3,814.1,422.1,814.1,422.1z"/>
	<path class="st5" d="M772.1,357.6c-1.5,3.2-2.9,6.4-4.2,9.4c-16-7.6-61.9-29.9-52.8-30.4c15.6-0.8,36.3,5.7,50.5,15.1
		C768.6,353.8,770.7,355.8,772.1,357.6z"/>
	<ellipse class="st6" cx="648.2" cy="310.1" rx="24.7" ry="17.6"/>
	<path class="st7" d="M662.9,343.5c0,0-38.9,11.3-39.3,17.4c-0.4,6,5.7,16.3,8.3,18.9c2.6,2.6,8.7-6.4,5.7-13.2
		c-3-6.8,25.3-13.5,25.3-13.5S682.9,344.7,662.9,343.5z"/>
	<ellipse class="st6" cx="710" cy="378.6" rx="29.8" ry="28.5"/>
</g>
</svg>
