<?xml version="1.0" encoding="utf-8"?>
<!-- Generator: Adobe Illustrator 27.1.1, SVG Export Plug-In . SVG Version: 6.00 Build 0)  -->
<svg version="1.1" xmlns="http://www.w3.org/2000/svg" xmlns:xlink="http://www.w3.org/1999/xlink" x="0px" y="0px"
	 viewBox="0 0 1000 1000" style="enable-background:new 0 0 1000 1000;" xml:space="preserve">
<style type="text/css">
	.st0{display:none;}
	.st1{fill:#514E51;}
	.st2{fill:#8DD1E8;}
	.st3{fill:#94D4F0;}
	.st4{fill:#FCF7F5;stroke:#000000;stroke-miterlimit:10;}
	.st5{fill:#A09693;}
	.st6{fill:none;stroke:#000000;stroke-miterlimit:10;}
</style>
<g id="Calque_1" class="st0">
	
		<image style="display:inline;overflow:visible;" width="1920" height="1080" xlink:href="../85wxihoxv7g41.jpg"  transform="matrix(1 0 0 1 -490.3146 -40)">
	</image>
</g>
<g id="Calque_2">
	<path class="st1" d="M636.5,732.6C636.5,732.6,636.5,732.6,636.5,732.6c-2.2-0.9-4.9-2-8.2-3.4c0,0,10,10.8,9.5,17.2
		c-0.6,6.4-10,21.7-30.2,32.1c-6.1,3.2-10.8,4.4-14.4,4.6c-8.1,0.5-10.2-4.6-10.2-4.6s-14.9-33.3-30.4-46.1c0,0-21.6-30.9-39.2-63.8
		c0,0-44.2-75.7-55.3-115.4c0,0-10.5-29.2-13.9-31.5c-3.4-2.3-6.5,21-6.5,21s-2.3,53-5.1,62.4c-2.8,9.4-7.7,60.1-7.7,60.1
		s-4.5,28.6,1.4,47.9l11.9,46.5c0,0,0.8,10.8-9.6,10.2c0,0-19.8,5.1-26.9,6.8c-5.3,1.3-21.8,3.5-33.2,1.6c-3.8-0.7-7.1-1.8-9.1-3.6
		c0,0,1.7-40.2,1.7-46.5s-6-33.2-6-33.2s0-37.1-6-63.5c-6-26.4-10.8-111.1,0-143.1l14.7-69.6c0,0,63.5,13.2,165.5,21.2
		c0,0,7.2,31.8,2.7,45c0,0,35.5,78.6,49.1,172.7c0,0,7.6,25.7,14,34.4c0,0,48.8,37,51,42.3C646.3,734.3,649,737.5,636.5,732.6z"/>
	<path class="st2" d="M520.6,315.4c-9.8,25.3-9.1,68.6-9.1,68.6c-53.5-13.8-121.7-14.2-121.7-14.2c7-18.3,4.5-38.9,4.5-38.9
		s-3.4-31.6-12.8-40.2c-9.4-8.7-7.2-17.8-7.2-17.8s-0.8-5.1,4.5-24.2c5.3-19.1,20.2-32.7,20.2-32.7s7.9,0.4,8.1,0.4
		c0.2,0,10.6,17.6,21.4,4.9c10.8-12.7,30-10.6,30-10.6s17-2.1,19.1,5.3s60.3,40.8,60.3,40.8S530.4,290,520.6,315.4z"/>
	<path class="st3" d="M529.5,439.9c-102-7.9-165.5-21.2-165.5-21.2s7.5-6,9.5-12.3c0,0,76.1,14.8,147.4,17.7c0.4,0,0.9,0,1.3,0
		C522.1,424.2,526.9,435.4,529.5,439.9z"/>
	<path class="st4" d="M520.8,424.1c-71.3-2.8-147.4-17.7-147.4-17.7s12.8-23.2,16.4-36.7c0,0,68.2,0.4,121.7,14.2
		C511.5,384,520.1,417.8,520.8,424.1z"/>
	<path class="st4" d="M414.7,915.7c-0.7,5.8,0.9,9.9,5,26.6c4.1,16.7-10.9,20.4-10.9,20.4s-24-0.3-26.8,1
		c-2.8,1.3-22.1,11.6-28.9,10.5c-6.8-1.1-16.3,0.8-16.3,0.8c-9.1,3.7-16.7,0-16.7,0c-13.3-5.1-4-12.2-4-12.2s50.7-29.8,61.5-38.6
		c10.8-8.8,3.1-52.4,0-70.3c-3.1-17.9-9.1-75.8-9.1-75.8c11.3,1.9,27.9-0.3,33.2-1.6c7.1-1.7,26.9-6.8,26.9-6.8
		c1.1,3.7-2,38.8-6,53.3C418.6,837.6,414.7,915.7,414.7,915.7z"/>
	<path class="st4" d="M727,962c-3.4,4.4-6,7-6.8,10.2c-0.8,3.2-5.5,3.8-8.1,2.5c0,0-6,4.9-10.2-0.2c0,0-2.8,5.1-10.6,0.6
		c0,0-6.4,3.4-11.3-0.6c0,0-11.5,4.3-13.4-1.3c-1.9-5.7,1.5-8.3,1.5-8.3s4,0.8,7.2-6.4c3.2-7.2,5.9-27.2,5.9-27.2s1.1-29.1-0.4-32.7
		c-1.5-3.6-36.5-55.2-49.7-67.8c-13.2-12.7-37.8-47.6-37.8-47.6c3.5-0.2,8.2-1.4,14.4-4.6c20.2-10.4,29.7-25.7,30.2-32.1
		c0.6-6.4-9.5-17.2-9.5-17.2c3.3,1.4,6,2.5,8.2,3.4c0,0,0,0,0,0c0.4,0.6,14.2,20.3,22.2,38.5c0,0,29.3,75,37.2,86
		c0,0,5.1,10,7.6,11.9c2.5,1.9,13.8,5.5,15.9,13.8c2.1,8.3,3.8,30,4,35.5c0.2,5.5,4.4,18.5,4.4,18.5S730.3,957.7,727,962z"/>
	<path class="st5" d="M441.5,166.1c0,0-35.3,7.5-56.3,12.9c0,0-10.3-5.7-12-8.3c0,0,14-0.1,18.3-6.8c4.3-6.7,18.2-21.2,48.7-29.9
		c0.2,1.3,0.2,2.6,0.2,3.9L441.5,166.1z"/>
	<line class="st6" x1="440.2" y1="133.9" x2="440.2" y2="133.9"/>
	<path class="st4" d="M538,256.8c0,0-58.2-33.5-60.3-40.8s-19.1-5.3-19.1-5.3s-19.3-2.1-30,10.6c-10.8,12.7-21.2-4.9-21.4-4.9
		c-0.2,0-8.1-0.4-8.1-0.4s-14.9,13.6-20.2,32.7c-5.3,19.1-4.5,24.2-4.5,24.2s-22.6,2.8-30.2,3.2c-7.7,0.4-12.1-4.7-12.1-4.7
		s-0.8-2.4-3.4-13.2c-2.5-10.8-2-16.2-2-19.9c0-3.7,1.8-16.6,1.8-16.6l-43.5-2.1c0,0-0.7-0.8-1.3,3.4s-5.2,8.4-9.9,11.2
		c-4.7,2.8-3.4,3.4-11.3,11.3c-7.9,7.9-8.4-2-8.4-2s7.8-6.4,5-7.4c-2.8-1-18.7,5.5-18.7,5.5s-5.8,3.8-7.8,12c-2,8.2-5.7,8.7-5.4,7.1
		c0.3-1.6-0.3-9.9-0.8-8.5c-0.6,1.4-4.1,5.9-4.1,5.9s-6.2,1.4-5,0c1.3-1.4,2.5-6.8,2.5-6.8s-8.4,3.5-8.9,2.5c-0.6-1,0.9-5.8,2.8-6.7
		c2-0.9,7.9-7.1,7.9-7.1s-0.4-1-3.7-1.6c-3.2-0.6-2.1-3.4-2.1-3.4s18-6.5,26.8-12.3c8.8-5.8,28.3-20.4,28.3-20.4s10.3-2.1,17.1-3.6
		c6.8-1.4,32.6-9.2,44.9-11.8c2.1-0.4,4.7-0.8,7.4-1.2c7.8-23.6,6.8-40,6.8-40s-7.1-6.7-12.2-15.7c-5.1-9.1,0.8-15,2-17
		c1.3-2,9.3-2,9.3-2l0.4-6.7c0,0-0.5-0.1,3.5-8.5c4-8.4,9.8-0.9,9.8-0.9l-0.3,6.6l8.4,0.4c0,2.1,2.5,6.7,2.5,6.7
		c6.4,11.1,7.6,12,7.6,12c2.2,6.8,1.3,6.2,0.9,14.7c-0.4,8.5-7,12.6-7,12.6c-1.1,3.1-2.6,34.7-2.6,34.7c15.5-2.8,15.5-4.1,15.5-4.1
		c21-5.4,56.3-12.9,56.3-12.9l-1-28.2c0-1.3-0.1-2.6-0.2-3.9c-1.2-10.2-7.1-19.3-7.1-19.3c-4.4-3.7-9.4-13.2-9.4-13.2
		s-5-12.2-1.1-18c1-1.6,2.4-2.5,3.8-3c3.8-1.4,7.9,0.2,7.9,0.2s0.6,3,0,18.1c-0.6,15.2,5.5,21.1,5.5,21.1c-1.6-12,1.7-19.7,5.4-26.4
		c3.7-6.7,2.8-1,2.8-1s-1.4,1.8-1.8,5.5c-0.4,3.7,1.5,3.7,1.5,3.7s-0.4-7.1,9.9-22.1c10.3-15,39.3-22.8,39.3-22.8s8.9-2.8,16.6,3.4
		c7.7,6.2,5.2,36.6,5.2,36.6s-1.3,15-3.4,19.4s-3.3,13.6-3.3,13.6c-2,0.4-5.5,1.8-5.5,1.8c-6.2,11.3-17.7,17.7-17.7,17.7v4.2
		c39.4,3.4,39.4,18.1,45.3,29.2c6,11,10.5,37.4,11.3,45.6C546.5,236.6,538,256.8,538,256.8z"/>
	<path class="st5" d="M527.8,76.7c-2.3,34-15.6,53.1-15.6,53.1s1.1-9.2,3.3-13.6s3.4-19.4,3.4-19.4s2.4-30.3-5.2-36.6
		c-7.7-6.2-16.6-3.4-16.6-3.4s-28.9,7.8-39.3,22.8c-10.4,15-9.9,22.1-9.9,22.1s-2,0-1.5-3.7c0.4-3.7,1.8-5.5,1.8-5.5s0.8-5.7-2.8,1
		c-3.7,6.7-6.9,14.3-5.4,26.4c0,0-6.1-6-5.5-21.1c0.6-15.2,0-18.1,0-18.1s-4.2-1.6-7.9-0.2c0,0-3.3-22.4,16.5-42.6
		c19.8-20.2,53.3-11,53.3-11S530,42.7,527.8,76.7z"/>
</g>
</svg>
