<?xml version="1.0" encoding="UTF-8" standalone="no"?>
<!-- Created with Inkscape (http://www.inkscape.org/) -->

<svg
   width="280.67731mm"
   height="25.824141mm"
   viewBox="0 0 280.67731 25.824141"
   version="1.1"
   id="svg989"
   inkscape:version="1.1 (c68e22c387, 2021-05-23)"
   sodipodi:docname="SquareSoft Logo.svg"
   xmlns:inkscape="http://www.inkscape.org/namespaces/inkscape"
   xmlns:sodipodi="http://sodipodi.sourceforge.net/DTD/sodipodi-0.dtd"
   xmlns="http://www.w3.org/2000/svg"
   xmlns:svg="http://www.w3.org/2000/svg">
  <sodipodi:namedview
     id="namedview991"
     pagecolor="#ffffff"
     bordercolor="#666666"
     borderopacity="1.0"
     inkscape:pageshadow="2"
     inkscape:pageopacity="0.0"
     inkscape:pagecheckerboard="0"
     inkscape:document-units="mm"
     showgrid="false"
     inkscape:zoom="0.51906082"
     inkscape:cx="241.78284"
     inkscape:cy="286.09364"
     inkscape:window-width="1920"
     inkscape:window-height="1009"
     inkscape:window-x="-8"
     inkscape:window-y="-8"
     inkscape:window-maximized="1"
     inkscape:current-layer="layer1" />
  <defs
     id="defs986" />
  <g
     inkscape:label="Layer 1"
     inkscape:groupmode="layer"
     id="layer1"
     transform="translate(-12.21459,-80.801522)">
    <path
       style="fill-opacity:1;stroke:#000000;stroke-width:0.265;stroke-linecap:butt;stroke-linejoin:miter;stroke-miterlimit:4;stroke-dasharray:none;stroke-opacity:1"
       d="m 33.639828,88.878527 5.0799,-3.762062 c 0,0 -2.42619,-2.295677 -6.03731,-1.802183 -3.62688,0.495646 -6.00608,2.308128 -6.82578,2.973605 -0.75812,0.615483 -4.47158,3.93948 -0.15769,6.8483 4.07871,2.750235 5.51598,2.055611 5.49666,4.054918 -0.0174,1.80637 -2.56811,2.70327 -3.4692,3.063705 -0.90109,0.36044 -3.27932,0.29871 -4.73074,-0.0451 -1.71207,-0.405485 -4.62169,-2.202005 -4.62169,-2.202005 l -5.98867,4.589895 c -0.38522,-0.1458 2.22175,1.86007 3.70726,2.3959 2.73439,0.98632 6.9999,1.80807 12.09013,1.04026 2.56951,-0.38758 6.70187,-2.25427 8.77427,-4.37167 1.04961,-1.0724 2.51074,-2.657365 2.73916,-4.224905 0.29889,-2.051177 -0.0891,-3.580355 -0.61785,-4.43351 -0.30393,-0.490442 -1.84298,-1.984828 -2.81966,-2.582798 -0.84337,-0.551084 -1.66117,-1.134131 -2.61879,-1.5424 z"
       id="path1168"
       sodipodi:nodetypes="ccssssssccssssscc" />
    <path
       style="fill-opacity:1;stroke:#000000;stroke-width:0.265;stroke-linecap:butt;stroke-linejoin:miter;stroke-miterlimit:4;stroke-dasharray:none;stroke-opacity:1"
       d="m 198.71992,88.878477 5.0799,-3.762062 c 0,0 -2.42619,-2.295677 -6.03731,-1.802183 -3.62688,0.495646 -6.00608,2.308128 -6.82578,2.973605 -0.75812,0.615483 -4.47158,3.93948 -0.15769,6.8483 4.07871,2.750235 5.51598,2.055611 5.49666,4.054918 -0.0174,1.80637 -2.56811,2.70327 -3.4692,3.063705 -0.90109,0.36044 -3.27932,0.29871 -4.73074,-0.0451 -1.71207,-0.405485 -4.62169,-2.202005 -4.62169,-2.202005 l -5.98867,4.589895 c -0.38522,-0.1458 2.22175,1.86007 3.70726,2.3959 2.73439,0.98632 6.9999,1.80807 12.09013,1.04026 2.56951,-0.38758 6.70187,-2.25427 8.77427,-4.37167 1.04961,-1.0724 2.51074,-2.657365 2.73916,-4.224905 0.29889,-2.051177 -0.0891,-3.580355 -0.61785,-4.43351 -0.30393,-0.490442 -1.84298,-1.984828 -2.81966,-2.582798 -0.84337,-0.551084 -1.66117,-1.134131 -2.61879,-1.5424 z"
       id="path1168-9"
       sodipodi:nodetypes="ccssssssccssssscc" />
    <g
       id="g18777"
       transform="translate(-4.2173117,13.389525)">
      <path
         id="path17002"
         style="fill:#000000;fill-opacity:1;stroke:#000000;stroke-width:1.1196;stroke-miterlimit:4;stroke-dasharray:none;stroke-opacity:1"
         d="m 252.5332,263.23242 a 41.714302,67.522826 75.243469 0 0 -80.06836,43.85156 41.714302,67.522826 75.243469 0 0 48.39649,43.85157 41.714302,67.522826 75.243469 0 0 80.0664,-43.85157 41.714302,67.522826 75.243469 0 0 -48.39453,-43.85156 z m -7.67382,20.98242 a 22.339996,35.492293 75.156845 0 1 25.80078,23.43164 22.339996,35.492293 75.156845 0 1 -41.87891,23.42969 22.339996,35.492293 75.156845 0 1 -25.80078,-23.42969 22.339996,35.492293 75.156845 0 1 41.87891,-23.43164 z"
         transform="scale(0.26458333)" />
      <path
         style="fill:#000000;fill-opacity:1;stroke:#000000;stroke-width:0.264583px;stroke-linecap:butt;stroke-linejoin:miter;stroke-opacity:1"
         d="m 57.865597,92.778258 h 17.33098 l 4.269031,-4.269028 h -6.371685"
         id="path17526" />
    </g>
    <path
       id="path17002-7"
       style="fill:#000000;fill-opacity:1;stroke:#000000;stroke-width:0.296228;stroke-miterlimit:4;stroke-dasharray:none;stroke-opacity:1"
       d="M 227.47611,83.036435 A 11.036909,17.865414 75.243469 0 0 206.29136,94.638827 11.036909,17.865414 75.243469 0 0 219.09627,106.24122 11.036909,17.865414 75.243469 0 0 240.2805,94.638827 11.036909,17.865414 75.243469 0 0 227.47611,83.036435 Z m -2.03036,5.551599 a 5.9107905,9.3906691 75.156845 0 1 6.82646,6.199621 5.9107905,9.3906691 75.156845 0 1 -11.08047,6.199105 5.9107905,9.3906691 75.156845 0 1 -6.82645,-6.199105 5.9107905,9.3906691 75.156845 0 1 11.08046,-6.199621 z" />
    <g
       id="g24300"
       transform="translate(-4.2173117,13.389525)">
      <rect
         style="opacity:1;fill:#000000;fill-opacity:1;stroke:#000000;stroke-width:0.217201;stroke-miterlimit:4;stroke-dasharray:none;stroke-opacity:1"
         id="rect18801"
         width="8.3005381"
         height="14.983184"
         x="107.9191"
         y="74.261925"
         transform="matrix(1,0,-0.3111007,0.95037695,0,0)" />
      <rect
         style="fill:#000000;fill-opacity:1;stroke:#000000;stroke-width:0.217201;stroke-miterlimit:4;stroke-dasharray:none;stroke-opacity:1"
         id="rect18801-7"
         width="8.3005381"
         height="14.983184"
         x="123.87893"
         y="74.261925"
         transform="matrix(1,0,-0.3111007,0.95037695,0,0)" />
      <path
         style="fill:#000000;fill-opacity:1;stroke:#000000;stroke-width:0.264583px;stroke-linecap:butt;stroke-linejoin:miter;stroke-opacity:1"
         d="m 80.178653,84.834065 c -1.908904,6.143014 5.782299,8.538014 11.565549,8.246007 6.759626,-0.341306 11.714638,-5.522773 12.641488,-8.266393 l -8.237186,0.0028 c -0.730462,1.751963 -1.894889,2.608631 -5.048079,2.679559 -3.451052,-0.01623 -2.746763,-2.137596 -2.645006,-2.679559 l -8.276766,0.01757"
         id="path18940"
         sodipodi:nodetypes="csccccc" />
    </g>
    <g
       id="g24945"
       transform="translate(-4.2173117,13.389525)">
      <path
         sodipodi:type="star"
         style="opacity:1;fill:#000000;fill-opacity:1;stroke:#000000;stroke-width:1.00157;stroke-miterlimit:4;stroke-dasharray:none;stroke-opacity:1"
         id="path24359"
         inkscape:flatsided="true"
         sodipodi:sides="3"
         sodipodi:cx="485.75"
         sodipodi:cy="344.25"
         sodipodi:r1="57.5"
         sodipodi:r2="28.75"
         sodipodi:arg1="-1.5707963"
         sodipodi:arg2="-0.52359878"
         inkscape:rounded="0"
         inkscape:randomized="0"
         transform="matrix(0.32868746,0,-0.09691805,0.29100584,-7.9963589,-15.742465)"
         inkscape:transform-center-x="2.7863903"
         inkscape:transform-center-y="-4.1832097"
         d="m 485.75,286.75 49.79646,86.25 -99.59292,0 z" />
      <path
         sodipodi:type="star"
         style="opacity:1;fill:#c60226;fill-opacity:1;stroke:#c60226;stroke-width:1.00157;stroke-miterlimit:4;stroke-dasharray:none;stroke-opacity:1"
         id="path24359-4"
         inkscape:flatsided="true"
         sodipodi:sides="3"
         sodipodi:cx="485.75"
         sodipodi:cy="344.25"
         sodipodi:r1="57.5"
         sodipodi:r2="28.75"
         sodipodi:arg1="-1.5707963"
         sodipodi:arg2="-0.52359878"
         inkscape:rounded="0"
         inkscape:randomized="0"
         transform="matrix(0.19486525,0,-0.05745872,0.17252537,39.855366,28.510085)"
         inkscape:transform-center-x="1.6519356"
         inkscape:transform-center-y="-2.4800514"
         d="m 485.75,286.75 49.79646,86.25 -99.59292,0 z" />
    </g>
    <g
       id="g28474"
       transform="translate(-4.2173117,13.389525)">
      <rect
         style="opacity:1;fill-opacity:1;stroke:#000000;stroke-width:0.269024;stroke-miterlimit:4;stroke-dasharray:none;stroke-opacity:1"
         id="rect24971"
         width="8.2416248"
         height="23.340553"
         x="162.70276"
         y="74.446716"
         transform="matrix(1,0,-0.3151959,0.94902663,0,0)" />
      <rect
         style="opacity:1;fill-opacity:1;stroke:#000000;stroke-width:0.272458;stroke-miterlimit:4;stroke-dasharray:none;stroke-opacity:1"
         id="rect25381"
         width="12.262593"
         height="5.3172812"
         x="141.15894"
         y="81.726906" />
      <rect
         style="fill-opacity:1;stroke:#000000;stroke-width:0.274791;stroke-miterlimit:4;stroke-dasharray:none;stroke-opacity:1"
         id="rect25381-5"
         width="13.219374"
         height="5.0172911"
         x="139.24236"
         y="70.656815" />
      <path
         style="fill:#000000;fill-opacity:1;stroke:#000000;stroke-width:0.264583px;stroke-linecap:butt;stroke-linejoin:miter;stroke-opacity:1"
         d="m 152.46173,75.674103 c 3.53538,0 3.27131,6.04907 -1.79499,6.04907 l 2.74683,4.1984 c 3.39404,0.307976 9.73533,-4.107712 9.69582,-8.211154 -0.049,-5.091756 -4.63869,-7.204064 -10.64766,-7.053604"
         id="path25518"
         sodipodi:nodetypes="cccsc" />
      <rect
         style="opacity:1;fill:#000000;fill-opacity:1;stroke:#000000;stroke-width:0.291104;stroke-miterlimit:4;stroke-dasharray:none;stroke-opacity:1"
         id="rect28022"
         width="8.4997396"
         height="9.1393366"
         x="87.441734"
         y="102.8476"
         transform="matrix(1,0,0.55970435,0.82869237,0,0)" />
    </g>
    <g
       id="g28810"
       transform="translate(-4.2173117,13.389525)">
      <rect
         style="opacity:1;fill:#000000;fill-opacity:1;stroke:#000000;stroke-width:0.210099;stroke-miterlimit:4;stroke-dasharray:none;stroke-opacity:1"
         id="rect28498"
         width="8.1498604"
         height="23.701082"
         x="192.75183"
         y="74.77076"
         transform="matrix(1,0,-0.33378415,0.94264953,0,0)" />
      <rect
         style="opacity:1;fill:#000000;fill-opacity:1;stroke:#000000;stroke-width:0.272024;stroke-miterlimit:4;stroke-dasharray:none;stroke-opacity:1"
         id="rect28602"
         width="13.255572"
         height="5.7963152"
         x="197.26898"
         y="91.984398"
         transform="matrix(1,0,-0.31522706,0.94901628,0,0)" />
      <rect
         style="fill:#000000;fill-opacity:1;stroke:#000000;stroke-width:0.272024;stroke-miterlimit:4;stroke-dasharray:none;stroke-opacity:1"
         id="rect28602-0"
         width="13.255572"
         height="5.7963152"
         x="197.34447"
         y="74.293777"
         transform="matrix(1,0,-0.31522706,0.94901628,0,0)" />
      <rect
         style="fill:#000000;fill-opacity:1;stroke:#000000;stroke-width:0.287506;stroke-miterlimit:4;stroke-dasharray:none;stroke-opacity:1"
         id="rect28602-7"
         width="13.263044"
         height="6.4712253"
         x="242.73322"
         y="107.95993"
         transform="matrix(1,0,-0.67675709,0.73620639,0,0)" />
    </g>
    <g
       id="g1786">
      <rect
         style="fill:#000000;fill-opacity:1;stroke:#000000;stroke-width:0.210099;stroke-miterlimit:4;stroke-dasharray:none;stroke-opacity:1"
         id="rect28498-7"
         width="8.1498604"
         height="23.701082"
         x="305.67218"
         y="88.974899"
         transform="matrix(1,0,-0.33378415,0.94264953,0,0)" />
      <rect
         style="fill:#000000;fill-opacity:1;stroke:#000000;stroke-width:0.369654;stroke-miterlimit:4;stroke-dasharray:none;stroke-opacity:1"
         id="rect28602-0-0"
         width="24.747202"
         height="5.7332511"
         x="292.55396"
         y="87.440811"
         transform="matrix(1,0,-0.28186132,0.95945516,0,0)" />
    </g>
    <g
       id="g1412"
       transform="translate(1.0813107)">
      <rect
         style="fill:#000000;fill-opacity:1;stroke:#000000;stroke-width:0.210099;stroke-miterlimit:4;stroke-dasharray:none;stroke-opacity:1"
         id="rect28498-1"
         width="8.1498604"
         height="23.701082"
         x="275.34293"
         y="88.974899"
         transform="matrix(1,0,-0.33378415,0.94264953,0,0)" />
      <rect
         style="fill:#000000;fill-opacity:1;stroke:#000000;stroke-width:0.272024;stroke-miterlimit:4;stroke-dasharray:none;stroke-opacity:1"
         id="rect28602-0-7"
         width="13.255572"
         height="5.7963152"
         x="279.64194"
         y="88.402626"
         transform="matrix(1,0,-0.31522706,0.94901628,0,0)" />
      <rect
         style="fill:#000000;fill-opacity:1;stroke:#000000;stroke-width:0.287506;stroke-miterlimit:4;stroke-dasharray:none;stroke-opacity:1"
         id="rect28602-7-4"
         width="13.263044"
         height="6.4712253"
         x="332.89151"
         y="126.14712"
         transform="matrix(1,0,-0.67675709,0.73620639,0,0)" />
    </g>
  </g>
</svg>
