<?xml version="1.0" encoding="utf-8"?>
<!-- Generator: Adobe Illustrator 27.1.1, SVG Export Plug-In . SVG Version: 6.00 Build 0)  -->
<svg version="1.1" xmlns="http://www.w3.org/2000/svg" xmlns:xlink="http://www.w3.org/1999/xlink" x="0px" y="0px"
	 viewBox="0 0 1000 1000" style="enable-background:new 0 0 1000 1000;" xml:space="preserve">
<style type="text/css">
	.st0{display:none;}
	.st1{fill:#323232;}
	.st2{fill:none;stroke:#000000;stroke-miterlimit:10;}
	.st3{fill:#E00A17;}
	.st4{fill:#565555;}
	.st5{fill:#464746;}
	.st6{fill:#464746;stroke:#000000;stroke-miterlimit:10;}
	.st7{fill:#565555;stroke:#000000;stroke-miterlimit:10;}
	.st8{fill:#323232;stroke:#000000;stroke-miterlimit:10;}
	.st9{fill:#DDDCDC;}
</style>
<g id="Calque_1" class="st0">
	
		<image style="display:inline;overflow:visible;" width="387" height="302" xlink:href="../sega_mega_drive__eur_pal__by_blueamnesiac_d513a4i.png"  transform="matrix(2.3504 0 0 2.3504 45.1885 145.0825)">
	</image>
</g>
<g id="Calque_2">
	<polygon class="st1" points="951.3,850 947.1,854.9 52.9,854.9 49.1,850.7 58.2,825.8 942.2,825.8 	"/>
	<rect x="144.2" y="695.1" class="st2" width="46.2" height="2.2"/>
	<rect x="144.2" y="695.1" class="st3" width="46.2" height="2.2"/>
	<polygon class="st4" points="954.8,179.5 954.8,182.1 918,176.1 924.2,147.6 	"/>
	<polygon class="st4" points="924.2,147.6 918,176.1 82,175 76.8,148.2 921.8,145.1 	"/>
	<polygon class="st4" points="82,175 45.2,181.7 45.2,178.1 76.8,148.2 	"/>
	<polygon class="st5" points="82,564.2 82,621.6 58.2,645.7 58.2,825.8 49.1,850.7 45.2,847 45.2,564.2 	"/>
	<path class="st1" d="M230.1,208.6c0,0-0.4,328.6-0.4,340.2c0,11.5-11,15.5-11,15.5H47.1v-7.8h-2v-13.9h2.5l-0.2-7.3h-2.3v-14h2.4
		l-0.1-7h-2.3V500h2.5l-0.1-7h-2.7l0.3-14.3h2.3l-0.1-7h-2.5l0.3-14h2.3l-0.1-7.2h-2.5v-14h2.6l-0.1-7h-2.5v-14.2h2.5v-7h-2.5V394
		h2.5l-0.1-7h-2.5v-14.2h2.5v-6.7h-2.5v-14.2h2.6l0.1-7.2h-2.7v-14.1h2.7v-7h-2.4v-14h2.2v-7.2h-2.2v-13.9h2.2v-7.4h-2.5l0.3-13.8
		h2.3l0.1-7.2h-2.4l-0.3-13.9H47v-6.9h-2.1l0.3-14.5h2.4l0.1-7.1h-2.5l-0.3-13.9h2.7v-7.1c0,0,14.3-0.3,34.4-0.6
		c44.1-0.7,116.4-1.9,128.3-1.6C227.7,195,230.1,208.6,230.1,208.6z"/>
	<path class="st5" d="M82,175v21.3c-20.1,0.3-34.4,0.6-34.4,0.6h-2.4v-15.1L82,175z"/>
	<polygon class="st5" points="954.8,182.1 954.8,847.3 951.3,850 942.2,825.8 942.2,647 915.7,617.9 918,176.1 	"/>
	<path class="st5" d="M82,175v21.3c44.1-0.7,116.4-1.9,128.3-1.6c17.4,0.4,19.8,14,19.8,14s-0.4,328.6-0.4,340.2
		c0,11.5-11,15.5-11,15.5H82v57.4h299.3c0,0,52.9,84.8,179.9,112.5c0,0,105.8,14.2,176.9-27.4c71.1-41.6,99.6-87.1,99.6-87.1l78-1.7
		l2.3-441.8L82,175z M852.6,587.3c0,0-45.3,81.7-136.2,122c-29.8,13.2-64.5,22-104.1,22c-42.3,0-79.1-8.6-110.5-22
		C414,671.9,367.7,597,357.1,567.3c-14.4-40.4-66.6-167.6,60.7-311.3c0,0,86.7-82.2,193-76.8s180.6,52.4,235.8,134.1
		C901.9,394.8,887.2,543.1,852.6,587.3z"/>
	<path class="st1" d="M942.2,647H839.8c0,0-61.8,45.5-75.8,53.5c-14,7.9-58,44-166.9,45.2C488.3,746.8,395.3,655,395.3,655
		s-14-6-19.6-7.6c-5.7-1.5-18.5-0.4-18.5-0.4v-25.4h24.2c0,0,52.9,84.8,179.9,112.5c0,0,105.8,14.2,176.9-27.4
		c71.1-41.6,99.6-87.1,99.6-87.1l78-1.7L942.2,647z"/>
	<path class="st6" d="M942.2,647v178.8H357.1V647c0,0,12.8-1.1,18.5,0.4c5.7,1.5,19.6,7.6,19.6,7.6s93,91.8,201.8,90.7
		C706,744.5,750,708.4,764,700.5c14-7.9,75.8-53.5,75.8-53.5H942.2z"/>
	<line class="st2" x1="45.2" y1="181.7" x2="44.9" y2="181.8"/>
	<polygon class="st1" points="113.9,621.6 113.9,646.5 58.2,645.7 82,621.6 	"/>
	<path class="st6" d="M113.9,621.6v204.2h243.2V621.6H113.9z M190.5,775h-46.2V639.5h46.2V775z M321.1,773.2l-98.9,1.7v-49l98.9,1.1
		V773.2z M324.2,680h-99.8v-40.5h99.8V680z"/>
	<rect x="257" y="639.5" class="st3" width="2.2" height="40.5"/>
	<rect x="144.2" y="697.3" class="st7" width="46.2" height="3.7"/>
	<rect x="144.2" y="750.4" class="st6" width="17.1" height="24.5"/>
	<rect x="161.3" y="750.4" class="st8" width="12.3" height="24.5"/>
	<rect x="173.6" y="750.4" class="st6" width="16.8" height="24.5"/>
	<rect x="144.2" y="715.3" class="st8" width="46.2" height="35.2"/>
	<rect x="144.2" y="701" class="st7" width="46.2" height="14.3"/>
	<rect x="144.2" y="691.3" class="st7" width="46.2" height="3.8"/>
	<rect x="161.3" y="639.5" class="st1" width="12.3" height="51.9"/>
	<rect x="173.6" y="639.5" class="st6" width="16.8" height="51.9"/>
	<rect x="144.2" y="639.5" class="st6" width="17.1" height="51.9"/>
	<rect x="290.8" y="639.5" class="st1" width="33.4" height="40.5"/>
	<rect x="269.6" y="639.5" class="st5" width="21.2" height="40.5"/>
	<rect x="259.2" y="639.5" class="st4" width="10.5" height="40.5"/>
	<rect x="246" y="639.5" class="st4" width="11" height="40.5"/>
	<rect x="224.5" y="639.5" class="st5" width="21.5" height="40.5"/>
	<path class="st1" d="M222.2,725.9v49l98.9-1.7V727L222.2,725.9z M314.3,766.2h-84.2v-32h84.2V766.2z"/>
	<rect x="230.1" y="734.1" class="st9" width="84.2" height="32"/>
	<polygon class="st6" points="113.9,646.5 113.9,825.8 58.2,825.8 58.2,645.7 	"/>
	<path class="st1" d="M852.6,587.3c0,0-45.3,81.7-136.2,122c0,0-0.1-15.4-0.2-37.7C826,608.7,837.9,528.3,837.9,528.3
		c37.4-141.2-47.6-233.1-47.6-233.1c-215.4-193.5-374.5,16-374.5,16c-20.5,22.4-112.5,180.9,19,310.4c22.1,21.7,44.7,37.6,67,48.9
		v38.8C414,671.9,367.7,597,357.1,567.3c-14.4-40.4-66.6-167.6,60.7-311.3c0,0,86.7-82.2,193-76.8s180.6,52.4,235.8,134.1
		C901.9,394.8,887.2,543.1,852.6,587.3z"/>
	<path class="st9" d="M716.4,709.3c-29.8,13.2-64.5,22-104.1,22c-42.3,0-79.1-8.6-110.5-22v-38.8c110.6,56.2,214.2,1.2,214.2,1.2
		c0.1,0,0.1-0.1,0.2-0.1C716.3,694,716.4,709.3,716.4,709.3z"/>
	<path class="st1" d="M716.2,671.6c-0.1,0-0.1,0.1-0.2,0.1c0,0-103.6,55-214.2-1.2V501.9c0,0-0.6-12.9,19-12.9c19.6,0,181,0,181,0
		s15.1-0.8,14.4,18.1C715.7,520.6,716,617,716.2,671.6z"/>
	<path class="st5" d="M790.3,295.2c-215.4-193.5-374.5,16-374.5,16c-20.5,22.4-112.5,180.9,19,310.4c22.1,21.7,44.7,37.6,67,48.9
		V501.9c0,0-0.6-12.9,19-12.9c19.6,0,181,0,181,0s15.1-0.8,14.4,18.1c-0.5,13.4-0.2,109.8,0,164.5
		C826,608.7,837.9,528.3,837.9,528.3C875.3,387.2,790.3,295.2,790.3,295.2z M818,371.9c-4.7,25.3-34,26.4-34,26.4l-366.8-3.2
		c-36.8-27.8-2.8-61.2-2.8-61.2c16.7-5,57.8-4.5,57.8-4.5s240.4,0,278.9,0s52.2,4.5,52.2,4.5S822.7,346.6,818,371.9z"/>
	<path class="st1" d="M803.3,333.9c0,0-13.6-4.5-52.2-4.5s-278.9,0-278.9,0s-41.1-0.5-57.8,4.5c0,0-34,33.4,2.8,61.2l366.8,3.2
		c0,0,29.3-1.1,34-26.4C822.7,346.6,803.3,333.9,803.3,333.9z M775.2,382.9c-20.1,4.2-331.7,0-331.7,0s-18.7-7.4-19.3-17.9
		c-0.6-10.5-0.6-10.5-0.6-10.5l14.7-0.3l-0.3-11.3h341.3v12.8h14.2C793.7,355.7,795.4,378.7,775.2,382.9z"/>
	<path class="st5" d="M775.2,382.9c-20.1,4.2-331.7,0-331.7,0s-18.7-7.4-19.3-17.9c-0.6-10.5-0.6-10.5-0.6-10.5l14.7-0.3l-0.3-11.3
		h341.3v12.8h14.2C793.7,355.7,795.4,378.7,775.2,382.9z"/>
</g>
</svg>
