<?xml version="1.0" encoding="utf-8"?>
<!-- Generator: Adobe Illustrator 27.1.1, SVG Export Plug-In . SVG Version: 6.00 Build 0)  -->
<svg version="1.1" xmlns="http://www.w3.org/2000/svg" xmlns:xlink="http://www.w3.org/1999/xlink" x="0px" y="0px"
	 viewBox="0 0 1000 1000" style="enable-background:new 0 0 1000 1000;" xml:space="preserve">
<style type="text/css">
	.st0{display:none;}
	.st1{fill:#030405;}
	.st2{fill:#E9434B;}
	.st3{fill:#59C3E6;}
</style>
<g id="Calque_1" class="st0">
	
		<image style="display:inline;overflow:visible;" width="1920" height="1080" xlink:href="23F404B1.png"  transform="matrix(1.0738 0 0 1.0738 -527.578 -49.5076)">
	</image>
</g>
<g id="Calque_2">
	<polygon class="st1" points="276.1,304.4 277.2,659.3 751.7,607.7 751.7,252.8 	"/>
	<path class="st2" d="M788.6,234.7v390c0,0,90.7-5.7,105.4-18.1c14.7-12.5,39.1-29.5,40.8-66.9s0.6-252.9,0.6-252.9
		s-5.7-59-68.6-60.1L788.6,234.7z"/>
	<path class="st3" d="M246.6,291.4l1.1,391.2l-85.6,7.9c0,0-57.3-3.4-62.4-57.8V372.4c0,0,10.8-54.4,54.4-68.6L246.6,291.4z"/>
	<ellipse class="st1" cx="861.3" cy="475.9" rx="42.4" ry="41.7"/>
	<ellipse class="st1" cx="181.4" cy="421.2" rx="42.4" ry="41.7"/>
</g>
</svg>
