<?xml version="1.0" encoding="utf-8"?>
<!-- Generator: Adobe Illustrator 27.1.1, SVG Export Plug-In . SVG Version: 6.00 Build 0)  -->
<svg version="1.1" xmlns="http://www.w3.org/2000/svg" xmlns:xlink="http://www.w3.org/1999/xlink" x="0px" y="0px"
	 viewBox="0 0 1000 1000" style="enable-background:new 0 0 1000 1000;" xml:space="preserve">
<style type="text/css">
	.st0{display:none;}
	.st1{fill:#1277A3;}
	.st2{fill:#0B1A1E;}
	.st3{fill:#C6CCD8;}
	.st4{fill:#AEB5BC;}
</style>
<g id="Calque_1" class="st0">
	
		<image style="display:inline;overflow:visible;" width="1200" height="857" xlink:href="../e1272094a2cd7231879183afbcec42d6_1d14e7ed11238e8bcb686f86aa595333.jpg"  transform="matrix(1.1245 0 0 1.1245 -174.8425 19.2362)">
	</image>
</g>
<g id="Calque_2">
	<path class="st1" d="M348.1,123.9l528,104.3c0,0,49.1,7.9,36.7,52.5c-12.5,44.6-84.7,259.3-84.7,259.3s3.9,6.5-16.5,0.5l4.5,66
		L699,864c0,0-13.3,24.4-50.2,7.7L111.6,726.8c0,0-24.4-23.2-26.6-43.7c0,0,0-4.3,13.3-28.3s115.4-207.5,115.4-207.5
		s-9.9-23-10.2-29.8c0,0,5.7-12.8,21-14.7v-6l-6-6.5l98.6-255.1C317.2,135.2,329.1,124.9,348.1,123.9z"/>
	<path class="st2" d="M225.3,390.3l591.9,135.2L898,261.9c0,0,6-23-35.7-33.2l-509.4-98.6c0,0-25.5-6-37.4,23L225.3,390.3z"/>
	<polygon class="st3" points="250,679.4 352,492.3 631.8,560.4 541.7,752.6 	"/>
	<polygon class="st4" points="417.5,199.8 769.6,274.6 695.6,489.8 341.8,410.7 	"/>
</g>
</svg>
