<?xml version="1.0" encoding="utf-8"?>
<!-- Generator: Adobe Illustrator 27.1.1, SVG Export Plug-In . SVG Version: 6.00 Build 0)  -->
<svg version="1.1" xmlns="http://www.w3.org/2000/svg" xmlns:xlink="http://www.w3.org/1999/xlink" x="0px" y="0px"
	 viewBox="0 0 1000 1000" style="enable-background:new 0 0 1000 1000;" xml:space="preserve">
<style type="text/css">
	.st0{display:none;}
	.st1{fill:#B8B8BC;}
	.st2{fill:#9F8C94;}
	.st3{fill:#9A8C92;}
	.st4{fill:#989899;}
	.st5{fill:#A08B92;}
	.st6{fill:#73B844;}
	.st7{fill:#717174;}
	.st8{fill:#737375;}
	.st9{fill:#6B6B6E;}
	.st10{fill:#7D7C80;}
</style>
<g id="Calque_1" class="st0">
	
		<image style="display:inline;overflow:visible;" width="800" height="800" xlink:href="../original-1537058628-d450edb351bff7823f9abf681431ac52.jpg"  transform="matrix(1.8578 0 0 1.8578 -243.1124 57.0709)">
	</image>
</g>
<g id="Calque_2">
	<path class="st1" d="M873,184.6c0,0-161-0.1-171.2,0c-10.2,0.1-8.5,11.5-8.5,11.5h-0.9l-6.7,0l-372-1.1l-6.7,0h-0.3
		c0.9-12.2-10.8-10.3-10.8-10.3s-154.8,1.2-165.6,0.1c-10.8-1.1-10.8,6.8-10.8,6.8S119,709.2,119,721.1c0,11.9,11.3,13.4,11.3,13.4
		h65.9l0.6-31c-26-3.9-46-25.7-46-52.1c0-29.1,24.3-52.7,54.3-52.7s54.3,23.6,54.3,52.7c0,24.8-17.7,45.7-41.5,51.3v31.9h78
		c9.3,0,9.6-11.7,9.6-11.7l3.2,0l4.9,0l34,0.3c0,0,0.2,7.8,0.6,17.4c0.4,9.6,16.6,12.5,16.6,12.5l33.1-0.2l0.2,9.6h10.2l-0.2-10.8
		c0,0,23.2,0,36.3,0s9.8-28.7,9.8-28.7l233.2-0.2h5.1c0.2,12.8,7.2,11.7,7.2,11.7h170.8c8.7,0,9.7-7.9,9.7-7.9s0-531.4,0-536.8
		S873,184.6,873,184.6z M692.4,608.4c-1.7,2.3-3.5,4.6-5.3,6.8c-44,54.2-111.2,88.9-186.5,88.9c-75.5,0-142.9-34.8-186.9-89.3
		c-1.8-2.2-3.6-4.5-5.3-6.8c-30.1-40.1-47.9-90-47.9-144c0-53.4,17.4-102.8,47-142.7c2-2.8,4.1-5.5,6.3-8.1
		c44-54.5,111.4-89.3,186.9-89.3c74.7,0,141.4,34.1,185.5,87.6c2.2,2.6,4.3,5.3,6.3,8.1c30.3,40.2,48.3,90.2,48.3,144.4
		C740.7,518.2,722.7,568.2,692.4,608.4z"/>
	<ellipse class="st2" cx="788.1" cy="651.4" rx="54.3" ry="52.7"/>
	<circle class="st3" cx="183.8" cy="530.6" r="25.3"/>
	<path class="st4" d="M692.4,319.5c-2-2.7-4.2-5.4-6.3-8.1C642,258,575.2,223.8,500.5,223.8c-75.5,0-142.9,34.8-186.9,89.3
		c-2.2,2.7-4.3,5.4-6.3,8.1c-29.5,39.9-47,89.2-47,142.7c0,54,17.8,103.9,47.9,144c1.7,2.3,3.5,4.6,5.3,6.8
		c44,54.5,111.4,89.3,186.9,89.3c75.3,0,142.5-34.7,186.5-88.9c1.8-2.2,3.6-4.5,5.3-6.8c30.3-40.2,48.3-90.2,48.3-144.4
		C740.7,409.7,722.7,359.7,692.4,319.5z M687,597.5c-41.9,58-110,95.7-187,95.7c-76.6,0-144.4-37.3-186.3-94.8
		c-1.8-2.5-3.6-5.1-5.4-7.7c-24.5-36.6-38.8-80.7-38.8-128.1c0-46.8,14-90.4,38-126.8c2-3,4.1-6,6.2-9
		c41.9-57.4,109.8-94.8,186.3-94.8c76.4,0,144.1,37.2,186.1,94.4c2.2,3,4.3,6,6.3,9c24.1,36.4,38.2,80.1,38.2,127.1
		s-14,90.7-38.2,127.1C690.6,592.4,688.8,595,687,597.5z"/>
	<path class="st1" d="M730.5,462.7c0,47-14,90.7-38.2,127.1c-1.7,2.6-3.5,5.2-5.4,7.8c-41.9,58-110,95.7-187,95.7
		c-76.6,0-144.4-37.3-186.3-94.8c-1.8-2.5-3.6-5.1-5.4-7.7c-24.5-36.6-38.8-80.7-38.8-128.1c0-46.8,14-90.4,38-126.8
		c2-3,4.1-6,6.2-9c41.9-57.4,109.8-94.8,186.3-94.8c76.4,0,144.1,37.2,186.1,94.4c2.2,3,4.3,6,6.3,9
		C716.5,372,730.5,415.7,730.5,462.7z"/>
	<path class="st5" d="M205.2,598.6c-30,0-54.3,23.6-54.3,52.7c0,26.4,19.9,48.2,46,52.1l-0.6,31h21.7v-31.9
		c23.8-5.6,41.5-26.4,41.5-51.3C259.5,622.2,235.2,598.6,205.2,598.6z M210.3,730.2h-7.6V712h7.6V730.2z"/>
	<rect x="202.6" y="712" class="st6" width="7.6" height="18.2"/>
	<path class="st7" d="M313.7,195v118.1c-2.2,2.7-4.3,5.4-6.3,8.1L306.9,195L313.7,195z"/>
	<path class="st8" d="M313.7,614.8v108.1l-4.9,0l-0.4-114.9C310.1,610.2,311.8,612.5,313.7,614.8z"/>
	<path class="st9" d="M692.4,196.1v123.4c-2-2.7-4.2-5.4-6.3-8.1l-0.4-115.4L692.4,196.1z"/>
	<path class="st10" d="M692.4,722.8V608.4c-1.7,2.3-3.5,4.6-5.3,6.8l0.4,107.6"/>
</g>
</svg>
