<?xml version="1.0" encoding="utf-8"?>
<!-- Generator: Adobe Illustrator 27.1.1, SVG Export Plug-In . SVG Version: 6.00 Build 0)  -->
<svg version="1.1" id="Calque_2" xmlns="http://www.w3.org/2000/svg" xmlns:xlink="http://www.w3.org/1999/xlink" x="0px" y="0px"
	 viewBox="0 0 1000 1000" style="enable-background:new 0 0 1000 1000;" xml:space="preserve">
<style type="text/css">
	.st0{fill:#3D3E3C;}
	.st1{fill:#2B2B2D;}
	.st2{fill:#1D201F;}
	.st3{fill:#0A0C0C;}
	.st4{fill:#242828;}
	.st5{fill:#282B2C;}
	.st6{fill:#2E3335;}
	.st7{fill:#141A1A;}
</style>
<polygon class="st0" points="231.3,798.5 70.5,492.3 60.3,428.6 227,741.5 "/>
<path class="st1" d="M965.2,505.9l-406,129.6l-0.9,0.3l-4.3,1.4l0,0l-40.5,12.9l-4,1.3L227,741.5l4.2,57c6,2.9,6.8,3.5,6.8,3.5
	L898,583.3v-22.1l59.8-18.1c7.1-1.4,3.7-6.2,3.7-6.2l-5.1-8.5l4.5-1.4c6.2-0.8,2.8-6.5,2.8-6.5l-5.7-7.6l7.1-2.3
	C967.3,510.6,965.2,505.9,965.2,505.9z M380.2,752.5c0,0-107.3,34.4-121.7,37.8c-14.4,3.4-14-14.7-14-14.7l138.3-41.9
	C387,746.4,380.2,752.5,380.2,752.5z M534,699.9c0,0-94.9,31-107.4,35.5c-12.5,4.5-15.5-12.5-15.5-12.5l133-42
	C544.2,695,534,699.9,534,699.9z M555.5,661.6V654c0,0,387.4-124.1,387-124.9c0,0,0,0,0,0c0.3,0.4,3,5,3,5L555.5,661.6z"/>
<path class="st2" d="M945.6,534l-390,127.6V654c0,0,387.4-124.1,387-124.9c0,0,0,0,0,0C942.8,529.4,945.6,534,945.6,534z"/>
<path class="st3" d="M380.2,752.5c0,0-107.3,34.4-121.7,37.8c-14.4,3.4-14-14.7-14-14.7l138.3-41.9
	C387,746.4,380.2,752.5,380.2,752.5z"/>
<path class="st3" d="M544.2,681c0,14-10.2,18.9-10.2,18.9s-94.9,31-107.4,35.5c-12.5,4.5-15.5-12.5-15.5-12.5L544.2,681z"/>
<polygon class="st4" points="509.5,651.4 227,741.5 60.3,428.6 307.8,360.9 "/>
<polygon class="st5" points="553.9,637.2 513.4,650.1 313,359.5 348.2,349.8 "/>
<polygon class="st6" points="965.2,505.9 559.1,635.5 353,348.5 713.9,249.8 "/>
<polygon class="st7" points="513.4,650.1 509.5,651.4 307.8,360.9 313,359.5 "/>
<polygon class="st7" points="559.1,635.5 558.3,635.8 553.9,637.2 348.2,349.8 353,348.5 "/>
<image style="overflow:visible;" width="3000" height="3000" xlink:href="../ps2-logo-icon-9.png"  transform="matrix(6.132444e-03 -1.132951e-03 1.132951e-03 6.132444e-03 753.5665 582.3511)">
</image>
</svg>
