<?xml version="1.0" encoding="utf-8"?>
<!-- Generator: Adobe Illustrator 27.1.1, SVG Export Plug-In . SVG Version: 6.00 Build 0)  -->
<svg version="1.1" xmlns="http://www.w3.org/2000/svg" xmlns:xlink="http://www.w3.org/1999/xlink" x="0px" y="0px"
	 viewBox="0 0 1000 1000" style="enable-background:new 0 0 1000 1000;" xml:space="preserve">
<style type="text/css">
	.st0{display:none;}
	.st1{fill:#4E4F55;}
	.st2{fill:#27326F;}
	.st3{fill:#46484D;}
	.st4{fill:#393A40;}
	.st5{fill:#3E3F45;}
	.st6{fill:#585A62;}
	.st7{fill:#3B3C43;}
	.st8{fill:#3B3D42;}
	.st9{fill:#46464A;}
	.st10{fill:#17171F;}
</style>
<g id="Calque_1" class="st0">
	
		<image style="display:inline;overflow:visible;" width="960" height="295" xlink:href="../Screenshot-2016-11-10-at-02.58.47-1200x369.jpg"  transform="matrix(3.3052 0 0 3.3052 22.6772 12.4862)">
	</image>
</g>
<g id="Calque_2">
	<rect x="147.4" y="413.8" class="st1" width="783.5" height="471.7"/>
	<polygon class="st2" points="917.8,402.8 917.8,413.8 154.7,413.8 154.7,403.3 	"/>
	<polygon class="st3" points="930.9,104.3 930.9,402.8 917.8,402.8 154.7,403.3 147.4,403.3 147.4,104.3 	"/>
	<polygon class="st4" points="108,112.2 108,403.3 82.5,403.3 82.5,120.7 	"/>
	<polygon class="st5" points="147.4,104.3 147.4,403.3 115.6,403.3 115.6,112.2 	"/>
	<rect x="108" y="112.2" class="st6" width="7.6" height="291.1"/>
	<polygon class="st7" points="108.8,874.2 82.5,866.8 82.5,417.2 108,417.2 	"/>
	<polygon class="st8" points="147.4,413.8 147.4,885.5 115.6,875.9 115.6,417.2 	"/>
	<polygon class="st9" points="115.6,417.2 115.6,875.9 108.8,874.2 108,417.2 	"/>
	<polygon class="st10" points="154.7,403.3 154.7,413.8 147.4,413.8 115.6,417.2 85.6,417.2 85.6,403.3 147.4,403.3 	"/>
	
		<image style="overflow:visible;" width="512" height="512" xlink:href="../playstation-4-logo-icon-png-1.png"  transform="matrix(0.1354 0 0 0.1354 834.6693 318.0079)">
	</image>
</g>
</svg>
