<?xml version="1.0" encoding="utf-8"?>
<!-- Generator: Adobe Illustrator 27.1.1, SVG Export Plug-In . SVG Version: 6.00 Build 0)  -->
<svg version="1.1" xmlns="http://www.w3.org/2000/svg" xmlns:xlink="http://www.w3.org/1999/xlink" x="0px" y="0px"
	 viewBox="0 0 1000 1000" style="enable-background:new 0 0 1000 1000;" xml:space="preserve">
<style type="text/css">
	.st0{display:none;}
	.st1{fill:none;stroke:#000000;stroke-miterlimit:10;}
	.st2{fill:#1F1E1F;}
	.st3{fill:#464342;}
	.st4{fill:#111212;}
	.st5{fill:#08090A;}
	.st6{fill:#BD2326;}
	.st7{fill:#0B0D0F;}
	.st8{fill:#0B0E0F;stroke:#FFFFFF;stroke-miterlimit:10;}
	.st9{fill:#0B0E0F;}
	.st10{fill:#D4202A;}
	.st11{fill:#1E1D1E;}
	.st12{fill:#3C3938;stroke:#000000;stroke-miterlimit:10;}
	.st13{fill:#2E2C2A;}
	.st14{fill:#2D2B29;stroke:#000000;stroke-width:2;stroke-miterlimit:10;}
	.st15{fill:#BD2326;stroke:#FFFFFF;stroke-miterlimit:10;}
	.st16{fill:#3E3D3B;}
	.st17{fill:#1B1917;}
	.st18{fill:#121112;}
</style>
<g id="Calque_1" class="st0">
	
		<image style="display:inline;overflow:visible;" width="1192" height="670" xlink:href="../sega_master_system_wallpaper_by_ryokai_d8n9h4v-pre.jpg"  transform="matrix(0.8389 0 0 0.8389 0 201.5576)">
	</image>
</g>
<g id="Calque_2">
	<path class="st1" d="M641.4,526.6l-3.4,22.7h58.7l2.8-22.7H641.4z"/>
	<polygon class="st2" points="136.6,302.7 136.6,412.1 0,685.9 0,201.6 	"/>
	<polygon class="st3" points="1000,201.6 862.8,302.7 841.7,302.7 841.7,280.4 500,280.4 500,302.7 136.6,302.7 0,201.6 	"/>
	<path class="st4" d="M862.5,410.4l-364.7,1.7H136.6L0,685.9v77.7h637.2v-50.8h153.3v50.8H1000v-76.9L862.5,410.4z M504.2,436.5
		h332.6v220.3H504.2V436.5z M998.3,692.4L1.9,692.9v-3.3h996.4V692.4z"/>
	<rect x="637.2" y="712.9" class="st5" width="153.3" height="50.8"/>
	<path class="st1" d="M641.4,526.6l-3.4,22.7h58.7l2.8-22.7H641.4z"/>
	<path class="st6" d="M504.2,436.5v220.3h332.6V436.5H504.2z M645.1,616.8h-55.8l1.3-12.2h57.5L645.1,616.8z M559,600.6l10.8-56.4
		l94.1,28.2L559,600.6z M548.8,539.4l1.4-12.8h57.4l-1.9,12.8H548.8z M638,549.3l3.4-22.7h58.1l-2.8,22.7H638z M729.8,616.8h-58.7
		l4.1-22.1l58.1,0.8L729.8,616.8z M799,589.6h-65.8l4.8-35.2h67.2L799,589.6z M835,505.2l-329.2-0.3v-41.4H835V505.2z"/>
	<path class="st7" d="M505.8,463.5v41.4l329.2,0.3v-41.7H505.8z M663.3,498.5H510.2V472h158.4L663.3,498.5z M830.3,497.7L672,498.5
		l5.5-26.5h152.9V497.7z"/>
	<polygon class="st8" points="830.3,472 830.3,497.7 672,498.5 677.4,472 	"/>
	<polygon class="st8" points="668.6,472 663.3,498.5 510.2,498.5 510.2,472 	"/>
	<polygon class="st1" points="607.6,526.6 605.7,539.4 548.8,539.4 550.2,526.6 	"/>
	<polygon class="st1" points="648.2,604.6 645.1,616.8 589.4,616.8 590.7,604.6 	"/>
	<path class="st1" d="M569.7,544.2L559,600.6l104.9-28.2L569.7,544.2z M573.1,549.3l78,22.7l-87,22.7L573.1,549.3z"/>
	<polygon class="st9" points="651.1,572 564.1,594.7 573.1,549.3 	"/>
	<path class="st1" d="M738.1,554.4l-4.8,35.2H799l6.2-35.2H738.1z M795.1,585.6h-57l3.7-27.2h58.4L795.1,585.6z"/>
	<polygon class="st9" points="800.2,558.4 795.1,585.6 738.1,585.6 741.8,558.4 	"/>
	<polygon class="st10" points="998.3,689.6 998.3,692.4 1.9,692.9 1.9,689.6 	"/>
	<polygon class="st11" points="1000,201.6 1000,686.7 862.5,410.4 862.8,302.7 	"/>
	<rect x="500" y="286.8" class="st12" width="341.7" height="15.9"/>
	<polygon class="st13" points="500,302.7 497.7,412.1 136.6,412.1 136.6,302.7 	"/>
	<path class="st14" d="M500,302.7l-2.3,109.4l364.7-1.7l0.4-107.7H500z M835,401.7H505.8v-9.8H835V401.7z M812.2,343.1v-15.5H526.1
		v15.5h-21.9v-22.7H835l1.7,22.7H812.2z"/>
	<polygon class="st15" points="699.5,526.6 696.7,549.3 638,549.3 641.4,526.6 	"/>
	<polygon class="st15" points="733.3,595.4 729.8,616.8 671.1,616.8 675.2,594.7 	"/>
	<rect x="505.8" y="391.9" class="st16" width="329.2" height="9.8"/>
	<polygon class="st17" points="812.2,343.1 812.2,327.6 526.1,327.6 526.1,343.1 504.2,343.1 504.2,320.5 835,320.5 836.8,343.1 	
		"/>
	<rect x="500" y="280.4" class="st18" width="341.7" height="6.4"/>
</g>
</svg>
