<?xml version="1.0" encoding="utf-8"?>
<!-- Generator: Adobe Illustrator 27.1.1, SVG Export Plug-In . SVG Version: 6.00 Build 0)  -->
<svg version="1.1" xmlns="http://www.w3.org/2000/svg" xmlns:xlink="http://www.w3.org/1999/xlink" x="0px" y="0px"
	 viewBox="0 0 1000 1000" style="enable-background:new 0 0 1000 1000;" xml:space="preserve">
<style type="text/css">
	.st0{display:none;}
	.st1{fill:none;stroke:#000000;stroke-miterlimit:10;}
	.st2{fill:#404447;}
	.st3{fill:#404447;stroke:#000000;stroke-width:2;stroke-miterlimit:10;}
	.st4{fill:#25292A;}
	.st5{fill:#030405;}
	.st6{fill:#0C0F11;}
	.st7{fill:#2F3538;}
	.st8{fill:#060709;}
	.st9{fill:#25292A;stroke:#000000;stroke-width:2;stroke-miterlimit:10;}
	.st10{fill:#2F3538;stroke:#000000;stroke-width:2;stroke-miterlimit:10;}
	.st11{fill:#4469B1;}
	.st12{fill:#FFFFFF;}
</style>
<g id="Calque_1" class="st0">
	
		<image style="display:inline;overflow:visible;" width="384" height="193" xlink:href="../sega_game_gear_by_blueamnesiac_d56qhhp.png"  transform="matrix(2.5688 0 0 2.5688 6.7913 246.442)">
	</image>
</g>
<g id="Calque_2">
	<path class="st1" d="M876.8,435l-32.7,33.9c4.9,2.2,9.1,5.9,12,10.4l29.3-28.4C881,446.8,877.8,441.2,876.8,435z"/>
	<path class="st2" d="M975.7,307.8c-2.3-40.8-79.9-48.2-79.9-48.2c-8.3-1.6-20.7-3.1-36-4.3l-22.9,67.1L816,383l-59.2,173.1
		c0,0,0.8,32.3-45.1,57c-45.9,24.7-199,20.4-199,20.4s-148.8,1.7-199-11.9c-50.2-13.6-64.6-41.7-64.6-41.7L142.5,257.5
		c-121.9,4.1-115.3,35-115.3,35c-5.1,35.7-10.2,102-10.2,102S-1.7,569.7,6.8,636.1c8.5,66.3,51,85,132.7,93.5
		c81.6,8.5,505.1,8.5,505.1,8.5s205.8-1.7,275.5-20.4c69.7-18.7,62.9-49.3,71.4-125.9C1000,515.3,975.7,307.8,975.7,307.8z
		 M97.6,502.9c-17.4-5.5-31.3-18.8-37.5-35.8c-2.2-6.2-3.5-12.8-3.5-19.7c0-5.7,0.8-11.2,2.4-16.4c5.5-18.7,20.3-33.5,39-39.2
		c5.5-1.7,11.3-2.6,17.4-2.6c6.3,0,12.4,1,18.1,2.8c18.6,6,33.2,20.9,38.5,39.7c1.4,5,2.2,10.3,2.2,15.7c0,6.9-1.2,13.4-3.4,19.5
		c-6,16.7-19.5,29.9-36.5,35.6c-5.9,2-12.3,3.1-18.9,3.1C109.2,505.7,103.2,504.7,97.6,502.9z M176.1,535.5
		c-20.1,43.2-45.3,49.7-46.1,49.9c21.9-20,52.5-59.3,57-114.9c4.5-55.6-36.7-91.1-36.7-91.1c20,3.4,35.9,35.9,40.4,52.9
		C195.4,449.3,196.5,491.7,176.1,535.5z M913.8,532.1c-65,62.7-97.1,86.5-130.8,64.2c0,0-7.2-11-3.8-27.2
		c2.2-10.6,18.6-40.3,29.6-59.4c-2.7-4.4-4.3-9.5-4.3-15c0-15.6,12.5-28.3,28-28.3c4.1,0,8,0.9,11.5,2.5l32.7-33.9
		c-0.3-1.6-0.4-3.2-0.4-4.9c0-15.6,12.5-28.3,28-28.3c5.7,0,11.1,1.7,15.5,4.7c5.7-3.2,12.9-6,20.3-5.6
		c15.4,0.9,22.1,15.2,22.3,15.7c0,0,0,0,0,0S978.9,469.4,913.8,532.1z"/>
	<path class="st3" d="M913.8,532.1c-65,62.7-97.1,86.5-130.8,64.2c1.1-6,2.6-12.9,6-27.2c2.2-9.1,18.2-33.3,29.7-49.8
		c4.1,2.3,8.7,3.6,13.7,3.6c15.5,0,28-12.7,28-28.3c0-5.7-1.7-11-4.5-15.4l29.3-28.4c5,4.6,11.6,7.5,19,7.5c15.5,0,28-12.7,28-28.3
		c0-5.5-1.5-10.5-4.2-14.9c13.8-14.5,33.6,0.9,34.2,1.4c0,0,0,0,0,0S978.9,469.4,913.8,532.1z"/>
	<path class="st4" d="M135.5,466.3l35.3,0.7c-6,16.7-19.5,29.9-36.5,35.6v-34.3L115.9,451l-17.6,17.3l-0.7,34.7
		c-17.4-5.5-31.3-18.8-37.5-35.8l35.4,0.2l17.3-20.1l-16.2-16.4L59,431.1c5.5-18.7,20.3-33.5,39-39.2v36.4l16.7,17l19-16.7
		l-0.2-36.5c18.6,6,33.2,20.9,38.5,39.7l-35.4-1.5l-17.3,17.6L135.5,466.3z"/>
	<path class="st5" d="M856.1,479.3c-2.9-4.5-7.1-8.2-12-10.4c-3.5-1.6-7.4-2.5-11.5-2.5c-15.5,0-28,12.7-28,28.3
		c0,5.5,1.6,10.7,4.3,15c2.5,4,5.9,7.3,10,9.6c4.1,2.3,8.7,3.6,13.7,3.6c15.5,0,28-12.7,28-28.3C860.6,489,858.9,483.7,856.1,479.3z
		 M833.6,516.1c-3.9,0-7.5-1-10.7-2.6c-4.5-2.4-8-6.2-10-10.8c-1.1-2.6-1.7-5.4-1.7-8.4c0-12.1,10-21.8,22.4-21.8
		c2.1,0,4.2,0.3,6.2,0.8c5.3,1.5,9.9,4.9,12.8,9.3c2.2,3.4,3.5,7.4,3.5,11.6C856,506.4,846,516.1,833.6,516.1z"/>
	<path class="st4" d="M856,494.3c0,12.1-10,21.8-22.4,21.8c-3.9,0-7.5-1-10.7-2.6c-4.5-2.4-8-6.2-10-10.8c-1.1-2.6-1.7-5.4-1.7-8.4
		c0-12.1,10-21.8,22.4-21.8c2.1,0,4.2,0.3,6.2,0.8c5.3,1.5,9.9,4.9,12.8,9.3C854.8,486,856,490,856,494.3z"/>
	<path class="st5" d="M928.2,415.3c-2.1-3.5-5-6.4-8.3-8.7c-4.4-3-9.8-4.7-15.5-4.7c-15.5,0-28,12.7-28,28.3c0,1.7,0.1,3.3,0.4,4.9
		c1.1,6.2,4.2,11.8,8.6,15.9c5,4.6,11.6,7.5,19,7.5c15.5,0,28-12.7,28-28.3C932.3,424.7,930.8,419.6,928.2,415.3z M904.1,452.2
		c-5.6,0-10.7-2-14.6-5.3c-4.8-4-7.8-9.9-7.8-16.6c0-0.2,0-0.3,0-0.5c0.3-11.8,10.2-21.3,22.4-21.3c3.4,0,6.6,0.7,9.5,2.1
		c4.6,2.1,8.3,5.7,10.6,10.1c1.5,2.9,2.3,6.2,2.3,9.6C926.5,442.5,916.4,452.2,904.1,452.2z"/>
	<path class="st4" d="M926.5,430.4c0,12.1-10,21.8-22.4,21.8c-5.6,0-10.7-2-14.6-5.3c-4.8-4-7.8-9.9-7.8-16.6c0-0.2,0-0.3,0-0.5
		c0.3-11.8,10.2-21.3,22.4-21.3c3.4,0,6.6,0.7,9.5,2.1c4.6,2.1,8.3,5.7,10.6,10.1C925.6,423.7,926.5,426.9,926.5,430.4z"/>
	<path class="st3" d="M527.8,246.4c-108.9,0-380.4,10.9-380.4,10.9c-1.7,0-3.3,0.1-4.9,0.2l106.7,322.4c0,0,14.5,28.1,64.6,41.7
		c50.2,13.6,199,11.9,199,11.9s153.1,4.3,199-20.4c45.9-24.7,45.1-57,45.1-57L816,383l20.7-60.6l22.9-67.1
		C757.9,247,527.8,246.4,527.8,246.4z M728.8,570.6c-24.7,30.6-51.9,31.5-51.9,31.5s-196.4,22.1-359.7-0.8c0,0-58.7,17-126.7-273
		c0,0-12.8-49.3,142.9-51.9c155.6-2.5,235.6-2.5,235.6-2.5s248.3-13.6,241.5,57.8C810.4,331.6,753.4,540,728.8,570.6z"/>
	<path class="st6" d="M568.9,273.8c0,0-79.9,0-235.6,2.5c-155.6,2.6-142.9,51.9-142.9,51.9c68,290,126.7,273,126.7,273
		c163.3,23,359.7,0.8,359.7,0.8s27.2-0.8,51.9-31.5c24.7-30.6,81.6-239,81.6-239C817.2,260.2,568.9,273.8,568.9,273.8z M678,574.8
		c0,0-319.8,0.9-344.7,2c-24.9,1.1-21.5-16.2-21.5-16.2s0.6-239.2,0-257.4c-0.6-18.1,7.9-15.3,7.9-15.3s341.3,0,354.9,0
		c13.6,0,14.2,9.1,14.2,9.1s-1.5,246.6,0,264.2C689.8,572.8,678,574.8,678,574.8z"/>
	<path class="st2" d="M688.8,561.2c-1.5-17.5,0-264.2,0-264.2s-0.6-9.1-14.2-9.1c-13.6,0-354.9,0-354.9,0s-8.5-2.8-7.9,15.3
		c0.6,18.1,0,257.4,0,257.4s-3.4,17.3,21.5,16.2c25-1.1,344.7-2,344.7-2S689.8,572.8,688.8,561.2z M680.3,566.3l-361.7-0.6
		l0.6-268.7l361.1,0.6V566.3z"/>
	<path class="st7" d="M319.1,297l-0.6,268.7l361.7,0.6V297.6L319.1,297z M339,547.6l0.6-231.3l322.6,0.6l1.1,230.2L339,547.6z"/>
	<polygon class="st8" points="663.3,547 339,547.6 339.5,316.3 662.1,316.9 	"/>
	<path class="st9" d="M112.8,447.3l-17.3,20.1l-35.4-0.2c-2.2-6.2-3.5-12.8-3.5-19.7c0-5.7,0.8-11.2,2.4-16.4l37.6-0.2L112.8,447.3z
		"/>
	<path class="st9" d="M133.8,428.6l-19,16.7l-16.7-17v-36.4c5.5-1.7,11.3-2.6,17.4-2.6c6.3,0,12.4,1,18.1,2.8L133.8,428.6z"/>
	<path class="st9" d="M174.2,447.5c0,6.9-1.2,13.4-3.4,19.5l-35.3-0.7l-16.2-18.4l17.3-17.6l35.4,1.5
		C173.5,436.8,174.2,442,174.2,447.5z"/>
	<path class="st9" d="M134.3,468.2v34.3c-5.9,2-12.3,3.1-18.9,3.1c-6.2,0-12.2-1-17.8-2.7l0.7-34.7l17.6-17.3L134.3,468.2z"/>
	<path class="st7" d="M818.8,519.3c-11.5,16.6-27.6,40.8-29.7,49.8c-3.4,14.4-4.9,21.2-6,27.2c0,0-7.2-11-3.8-27.2
		c2.2-10.6,18.6-40.3,29.6-59.4C811.3,513.7,814.8,517,818.8,519.3z"/>
	<path class="st7" d="M885.4,450.9l-29.3,28.4c-2.9-4.5-7.1-8.2-12-10.4l32.7-33.9C877.8,441.2,881,446.8,885.4,450.9z"/>
	<path class="st7" d="M962.4,416.6c-0.6-0.5-20.5-15.9-34.2-1.4c-2.1-3.5-5-6.4-8.3-8.7c5.7-3.2,12.9-6,20.3-5.6
		C955.6,401.9,962.2,416.2,962.4,416.6z"/>
	<path class="st10" d="M176.1,535.5c-20.1,43.2-45.3,49.7-46.1,49.9c21.9-20,52.5-59.3,57-114.9c4.5-55.6-36.7-91.1-36.7-91.1
		c20,3.4,35.9,35.9,40.4,52.9C195.4,449.3,196.5,491.7,176.1,535.5z"/>
	<path class="st11" d="M857.4,361.9c-7.2,21.8-30.4,22.2-41.4,21l20.7-60.6C848.2,329.5,863.7,343,857.4,361.9z"/>
	<polygon class="st12" points="832.2,457.3 824.7,449.7 822.2,453.1 818.4,448.6 825.6,441.4 837.5,453.7 	"/>
	<path class="st12" d="M817.3,444.4l-5.7-5.1l70.3-70.9c0,0,4-3,6.4-0.6c2.5,2.5,3.2,3.4,3.2,3.4l-4.5,4.5l-3.8-3.8l-64.8,65.8
		l3.8,2.5L817.3,444.4z"/>
	<polygon class="st12" points="885.1,381.5 897,369 912.5,384.9 899.5,396.4 	"/>
</g>
</svg>
