<?xml version="1.0" encoding="utf-8"?>
<!-- Generator: Adobe Illustrator 27.1.1, SVG Export Plug-In . SVG Version: 6.00 Build 0)  -->
<svg version="1.1" xmlns="http://www.w3.org/2000/svg" xmlns:xlink="http://www.w3.org/1999/xlink" x="0px" y="0px"
	 viewBox="0 0 1000 1000" style="enable-background:new 0 0 1000 1000;" xml:space="preserve">
<style type="text/css">
	.st0{display:none;}
	.st1{fill:#616160;}
	.st2{fill:#FFFFFF;}
	.st3{fill:#65B9E8;}
</style>
<g id="Calque_1" class="st0">
	
		<image style="display:inline;overflow:visible;" width="1200" height="857" xlink:href="../93afc0bd20fb539639ef57c097acc6f7_1e60e29de676058e56c855386d510cfe.jpg"  transform="matrix(1.0811 0 0 1.0811 -128.9213 17.2945)">
	</image>
</g>
<g id="Calque_2">
	<polygon class="st1" points="859,674.2 842.8,813.3 263,885.5 141.1,861.7 169.3,692 181.3,691.1 180.2,698.1 276.6,709.2 847,682 
		847.9,674.5 	"/>
	<path class="st2" d="M367.9,74.8l-98.1,13.6l-83.9,571.5l-4.6,31.2l-1,7.1l96.4,11.1L847,682l0.9-7.5l48.4-392.2L367.9,74.8z
		 M265.8,651.4c0,0-10.5,17.6-18.7-0.6l69.2-512.9c0,0,14.4-8.7,18.5,3.4L265.8,651.4z"/>
	<path class="st3" d="M334.8,141.3l-69,510c0,0-10.5,17.6-18.7-0.6l69.2-512.9C316.3,137.9,330.7,129.2,334.8,141.3z"/>
</g>
</svg>
