<?xml version="1.0" encoding="utf-8"?>
<!-- Generator: Adobe Illustrator 27.1.1, SVG Export Plug-In . SVG Version: 6.00 Build 0)  -->
<svg version="1.1" xmlns="http://www.w3.org/2000/svg" xmlns:xlink="http://www.w3.org/1999/xlink" x="0px" y="0px"
	 viewBox="0 0 1000 1000" style="enable-background:new 0 0 1000 1000;" xml:space="preserve">
<style type="text/css">
	.st0{display:none;}
	.st1{fill:#676C66;}
	.st2{fill:#4F5150;}
	.st3{fill:#040506;}
	.st4{fill:#030505;}
	.st5{fill:#4B4C4C;stroke:#000000;stroke-width:0.75;stroke-miterlimit:10;}
	.st6{fill:#07090A;}
	.st7{fill:#050607;}
	.st8{fill:#4B4C4C;stroke:#000000;stroke-width:3;stroke-miterlimit:10;}
	.st9{fill:#6D706C;}
	.st10{fill:#59625B;}
	.st11{fill:#5EB132;}
	.st12{fill:none;stroke:#000000;stroke-miterlimit:10;}
	.st13{fill:#575859;}
	.st14{fill:#0F1413;}
	.st15{fill:#1F211F;}
	.st16{fill:#6C7377;}
	.st17{fill:#484948;}
	.st18{fill:#888B86;}
	.st19{fill:#989A94;}
	.st20{fill:none;stroke:#000000;stroke-width:3;stroke-miterlimit:10;}
</style>
<g id="Calque_1" class="st0">
	
		<image style="display:inline;overflow:visible;" width="2048" height="1536" xlink:href="B951E606.jpg"  transform="matrix(0.4924 0 0 0.4924 -2.7206 123.5449)">
	</image>
</g>
<g id="Calque_2">
	<path class="st1" d="M984.5,591.1c-5.7-13.6-12.9-33.3-12.9-33.3l-19.3-12.5l-3.6-3.2c0,0.2,0,0.3,0,0.3L792.2,452l-98.3-54.4
		L652,376.1l-4.6-2.4c20-11.9,118.4-70.6,151.9-86.3l0-0.2l-6.1-4.7l-10.9-8.5c0,0-177.3-17.8-216.9-17l-21.2,8.1l-44.6,17.2
		l-44.5-18.6l-22.4-9.3c0,0-173.9,4.9-219.2,10.6l-2.1,1.7l-14.5,11.5l62.3,34.5l94,58.2l-5.2,2.7h0L134,482.1l-89.2,46.7l-5.9,5.9
		l-18.5,10.6L3.7,585.4c0,0-0.4,1.7-0.2,4.3c0,0,0,0,0,0c1.3,1.3,5.3,3.5,18.3,4c18.5,0.8,356.8,15.5,356.8,15.5l122.1-88.8
		l119,91.1c0,0,302-2.3,368.1-9.1C987.9,602.4,990.2,604.7,984.5,591.1z M499.8,430.8c-54.6,0-98.8-23.8-98.8-53.1
		c0-29.4,44.2-53.2,98.8-53.2s98.8,23.8,98.8,53.2C598.6,407,554.4,430.8,499.8,430.8z"/>
	<path class="st2" d="M611.3,668.8l-14.9-9.6l-14.3,82l11.6,9.4c0,0,0.4,1.5,7.6,1.5c7.2,0,205.2-4.5,305.4-23.1
		c0,0,4.5-1.5,8.3-7.9c2.1-3.5,24.2-39.4,43.5-70.8C874.2,664.3,611.3,668.8,611.3,668.8z M679.1,737c-9.8,1.5-38.2,1.9-38.2,1.9
		s-14-4.2-15.5-11c-1.5-6.8,13.6-13.2,13.6-13.2s30.6-5.3,42-2.3c11.3,3,12.1,8.7,12.1,8.7S689,735.5,679.1,737z M790.6,719.6
		c-6,13.6-28.7,14-28.7,14s-27.6,4.5-33.6-3c0,0-7-6,0.4-12.1c0,0,11.3-9.1,20.4-9.8c9.1-0.8,25.7-1.5,25.7-1.5
		S796.7,706,790.6,719.6z"/>
	<path class="st3" d="M790.6,719.6c-6,13.6-28.7,14-28.7,14s-27.6,4.5-33.6-3c0,0-7-6,0.4-12.1c0,0,11.3-9.1,20.4-9.8
		c9.1-0.8,25.7-1.5,25.7-1.5S796.7,706,790.6,719.6z"/>
	<path class="st4" d="M693.1,721.1c0,0-4.2,14.4-14,15.9c-9.8,1.5-38.2,1.9-38.2,1.9s-14-4.2-15.5-11c-1.5-6.8,13.6-13.2,13.6-13.2
		s30.6-5.3,42-2.3C692.4,715.4,693.1,721.1,693.1,721.1z"/>
	<path class="st5" d="M401,655.7c0,0-5.7,2-10.7,5.7c-5,3.7-9,3-9,3c-128.6-0.7-338.9-24.7-350.6-26c13.3,23.8,27.5,49.8,27.5,49.8
		l16.2,28.7c0,0,4.2,3.8,14,4.5c9.8,0.8,157.6,24.6,302.7,28c0,0,6,1.9,11-3c2.7-2.7,5.1-5.4,6.7-7.2L401,655.7z M258.1,726.8
		c-12.1,3-41.6-1.9-41.6-1.9s-26.8-15.1-11-23.8c0,0,26.8-0.8,40.1,1.5c13.2,2.3,19.7,12.5,19.7,12.5S270.2,723.7,258.1,726.8z
		 M362,732.1c0,0-1.5,5.3-31,2.3c0,0-14,3-26.8-9.8c0,0-11-9.5,4.5-16.3c0,0,28.7-0.4,37,1.1c8.3,1.5,17.8,5.3,18.9,8.3
		C365.8,720.7,371.5,725.2,362,732.1z"/>
	<path class="st6" d="M258.1,726.8c-12.1,3-41.6-1.9-41.6-1.9s-26.8-15.1-11-23.8c0,0,26.8-0.8,40.1,1.5
		c13.2,2.3,19.7,12.5,19.7,12.5S270.2,723.7,258.1,726.8z"/>
	<path class="st7" d="M362,732.1c0,0-1.5,5.3-31,2.3c0,0-14,3-26.8-9.8c0,0-11-9.5,4.5-16.3c0,0,28.7-0.4,37,1.1
		c8.3,1.5,17.8,5.3,18.9,8.3C365.8,720.7,371.5,725.2,362,732.1z"/>
	<path class="st8" d="M619.8,611.5l-119-91.1l-122.1,88.8c0,0-338.3-14.7-356.8-15.5c-13-0.5-17-2.7-18.3-4c0.2,2.6,1.1,6,3.7,9.5
		c0.3,0.4,0.6,0.8,1,1.2c1,1.2,2.8,4,5.2,8c4.4,7.2,10.7,18.3,17.2,29.9c11.7,1.3,222,25.3,350.6,26c0,0,4,0.7,9-3
		c5-3.7,10.7-5.7,10.7-5.7l195.4,3.4l14.9,9.6c0,0,262.9-4.5,347.2-18.5c15.6-25.4,29.5-47.9,29.5-47.9
		C921.8,609.2,619.8,611.5,619.8,611.5z M399.1,608.8l101.3-80.5l102.8,83.5L399.1,608.8z"/>
	<polygon class="st9" points="544.2,265.1 499.6,282.3 455.1,263.7 	"/>
	<path class="st10" d="M499.8,324.5c-54.6,0-98.8,23.8-98.8,53.2c0,29.3,44.2,53.1,98.8,53.1s98.8-23.8,98.8-53.1
		C598.6,348.3,554.4,324.5,499.8,324.5z M499.7,426.9c-43.4,0-78.5-20.1-78.5-44.9s35.2-44.9,78.5-44.9c43.4,0,78.5,20.1,78.5,44.9
		S543.1,426.9,499.7,426.9z"/>
	<ellipse class="st11" cx="499.7" cy="381.9" rx="78.5" ry="44.9"/>
	<line class="st12" x1="799.3" y1="287.4" x2="798" y2="296.6"/>
	<path class="st13" d="M948.8,542.1c0,0.2,0,0.3,0,0.3L792.2,452l-98.3-54.4L652,376.1c29.1-19.8,128.9-73.2,128.9-73.2l17.1-6.2
		l-0.2,1.5l138.3,232.4L948.8,542.1z"/>
	<path class="st14" d="M799.3,287.4l-1.3,9.2l-17.1,6.2c0,0-99.8,53.4-128.9,73.2l-4.6-2.4C667.4,361.8,765.8,303,799.3,287.4z"/>
	<line class="st12" x1="799.3" y1="287.4" x2="798" y2="296.6"/>
	<polygon style="fill:#1E211F;" points="353.2,370.8 348,373.5 348,373.5 336,365.9 250.1,312.3 197.6,287.6 196.9,278.1 
		259.2,312.6 	"/>
	<polygon class="st13" points="348,373.5 134,482.1 44.8,528.8 55.5,518.1 197.6,287.6 250.1,312.3 336,365.9 	"/>
	<path class="st12" d="M3.6,589.7C3,589.2,3,588.8,3,588.8"/>
	<polygon class="st16" points="603.2,611.9 399.1,608.8 500.4,528.3 	"/>
	<path class="st17" d="M401,655.7l7.8,83.6c1.2-1.4,2-2.3,2-2.3l168.9,2.3l2.4,1.9l14.3-82L401,655.7z M495.2,728.2
		c0,0-14.7-2.8-8.6-10.9c0,0,14.2-5.4,20.5,1.6C507.1,718.8,510.9,727.5,495.2,728.2z M510.8,698.7c0,0-26.9,9.2-33.6-10.1
		c0,0,0.1-15.9,32.9-10.1C510.1,678.6,528.8,686.9,510.8,698.7z"/>
	<path class="st18" d="M495.2,728.2c0,0-14.7-2.8-8.6-10.9c0,0,14.2-5.4,20.5,1.6C507.1,718.8,510.9,727.5,495.2,728.2z"/>
	<path class="st19" d="M510.8,698.7c0,0-26.9,9.2-33.6-10.1c0,0,0.1-15.9,32.9-10.1C510.1,678.6,528.8,686.9,510.8,698.7z"/>
	<path class="st20" d="M30.7,638.4c-0.3,0-0.5-0.1-0.5-0.1"/>
	<path class="st20" d="M13,608.5c0,0,250,26.5,367.1,26.2l18.9-10.6l202.3,4.5l17.8,10.6c0,0,122.5,3.8,356.8-17.8"/>
	<line class="st20" x1="100.2" y1="617.1" x2="114.2" y2="647.1"/>
</g>
</svg>
