<?xml version="1.0" encoding="utf-8"?>
<!-- Generator: Adobe Illustrator 27.1.1, SVG Export Plug-In . SVG Version: 6.00 Build 0)  -->
<svg version="1.1" xmlns="http://www.w3.org/2000/svg" xmlns:xlink="http://www.w3.org/1999/xlink" x="0px" y="0px"
	 viewBox="0 0 1000 1000" style="enable-background:new 0 0 1000 1000;" xml:space="preserve">
<style type="text/css">
	.st0{display:none;}
	.st1{fill:#121213;}
	.st2{fill:none;stroke:#000000;stroke-miterlimit:10;}
	.st3{fill:#8F8F90;}
	.st4{fill:#2B2C2E;}
	.st5{fill:#29292A;}
	.st6{fill:#151615;}
	.st7{fill:#393938;}
	.st8{fill:#161718;}
	.st9{fill:#5A5A5A;}
	.st10{fill:#0D0E0F;}
	.st11{fill:#515151;}
	.st12{fill:#CBCCCC;}
	.st13{fill:#808284;}
	.st14{fill:#0C0D0E;}
	.st15{fill:#262626;}
</style>
<g id="Calque_1" class="st0">
	
		<image style="display:inline;overflow:visible;" width="7680" height="5040" xlink:href="../Microsoft-Xbox-One-Console-wKinect.png"  transform="matrix(0.1881 0 0 0.1881 -384.9556 -72.0394)">
	</image>
</g>
<g id="Calque_2">
	<polygon class="st1" points="628.6,272.9 394.8,578.2 14.9,489.5 271,200.6 	"/>
	<polygon class="st2" points="780.9,667 781.3,667.4 780.5,667.2 979.1,343.8 980.5,344 	"/>
	<polygon class="st3" points="394.8,578.2 393.7,579.6 388.9,590.4 388.1,593.3 9.1,506.2 9,504 14.1,490.3 14.9,489.5 	"/>
	<polygon class="st4" points="388.1,593.3 388,646.1 13.9,558 13.9,557.8 10.2,553.8 9.1,506.2 	"/>
	<polygon class="st5" points="387.9,669.4 387.8,717.3 13.6,626.7 10.7,580.1 	"/>
	<polygon class="st2" points="995.4,347 992.9,351 993.9,346.8 	"/>
	<polygon class="st6" points="988.9,419.3 983,498.3 802.7,806.9 782.9,812.8 783.2,806.9 783.2,806.9 787.7,796.2 790.5,746 
		986.7,422.6 	"/>
	<polygon class="st7" points="996.6,347.3 992.5,410.4 989.2,415 988.9,419.3 986.7,422.6 790.5,746 794,685.4 794.3,679.8 
		794.8,671.2 795.2,670.5 992.9,351 995.4,347 	"/>
	<polygon class="st8" points="788,686.3 783.2,806.9 783.2,806.9 782.9,812.8 782.3,812.9 387.8,717.3 387.9,669.4 388,646.1 
		388.1,593.3 518.1,623.6 518.1,623.6 771.1,682.4 	"/>
	<polygon class="st9" points="794.8,671.2 794.3,680.3 794,686.2 790.5,750.2 787.7,803.2 783.2,814.5 788,687.2 789,684.8 
		791.9,677.9 	"/>
	<line class="st2" x1="783.2" y1="806.9" x2="782.9" y2="807.5"/>
	<polygon class="st10" points="795.2,670.5 794.8,671.2 791.9,677.5 789,684.1 772.6,680 780.5,667.2 781.3,667.4 	"/>
	<line class="st2" x1="394.8" y1="578.2" x2="394.8" y2="578.2"/>
	<polygon class="st2" points="789,684.1 788,686.3 771.1,682.4 772.6,680 	"/>
	<polygon class="st11" points="979.1,343.8 780.5,667.2 406.6,582.6 393.7,579.6 394.8,578.2 628.6,272.9 	"/>
	<polygon class="st12" points="772.6,680 771.1,682.4 518.1,623.6 518.1,623.6 388.1,593.3 388.9,590.4 494.9,615 494.9,615.1 
		752.6,674.9 	"/>
	<polygon class="st10" points="780.5,667.2 772.6,680 752.6,674.9 494.9,615.1 494.9,615 388.9,590.4 393.7,579.6 406.6,582.6 	"/>
	<path class="st13" d="M13.9,558l0.2,15.8l-3.4,6.2l377.2,89.2l0.1-23.2L13.9,558z M346,646.5l-285.4-68l-0.6-7.6l286.5,67.7
		L346,646.5z"/>
	<polygon class="st14" points="346.5,638.5 346,646.5 60.6,578.4 60.1,570.9 	"/>
	<polygon class="st15" points="993.9,346.8 992.9,351 795.2,670.5 781.3,667.4 780.9,667 980.5,344 980.8,344.1 	"/>
</g>
</svg>
