<?xml version="1.0" encoding="utf-8"?>
<!-- Generator: Adobe Illustrator 27.1.1, SVG Export Plug-In . SVG Version: 6.00 Build 0)  -->
<svg version="1.1" xmlns="http://www.w3.org/2000/svg" xmlns:xlink="http://www.w3.org/1999/xlink" x="0px" y="0px"
	 viewBox="0 0 1000 1000" style="enable-background:new 0 0 1000 1000;" xml:space="preserve">
<style type="text/css">
	.st0{display:none;}
	.st1{display:inline;fill:none;stroke:#000000;stroke-miterlimit:10;}
	.st2{fill:#E8E8E5;}
	.st3{fill:#EDEFEE;}
	.st4{fill:#15120F;}
	.st5{fill:none;stroke:#000000;stroke-width:2;stroke-miterlimit:10;}
	.st6{fill:#D2DB58;}
	.st7{fill:#EDEEEC;}
	.st8{fill:#70797D;}
</style>
<g id="Calque_1" class="st0">
	
		<image style="display:inline;overflow:visible;" width="339" height="400" xlink:href="../xbox-360-blanche-e192693.jpg"  transform="matrix(2.7542 0 0 2.7542 154.8385 -47.2225)">
	</image>
	<path class="st1" d="M504,158.1c0,0-0.1,6.7-0.3,18.8"/>
</g>
<g id="Calque_2">
	<path class="st2" d="M761,64.2l-30.6,625.4c0,0-184.5,210.9-189.6,216.8c-3.8,4.4-23.9,26.5-34,37.7c-11.2-124.9-4.5-660-3.1-767.3
		c20.9-6.3,54.4-18.1,94.4-38.6C648.2,112.6,723.9,80,761,64.2z"/>
	<path class="st3" d="M503.7,176.9c-15,4.5-23.5,6.2-23.5,6.2s-22.1,1.7-107.2-6.8c-83.5-8.4-78.1-25.3-77.9-25.9
		c-0.3,0.3-6.4,6.5-4.5,24.9c0,0,35.9,292.4,38.5,344.2c2.5,51.9,8.5,207.5,6,241.5c-2.6,34-5.1,120.8-7.7,172.6
		c0,0,137.8,28.9,146.3,28.1c8.5-0.9,27.2-11.1,27.2-11.1s2.3-2.6,5.9-6.5C495.6,819.3,502.2,284.2,503.7,176.9z M434.5,247.4
		c9.4,51,16.2,373.3,16.2,373.3c-14.5,43.4-37.4-2.5-37.4-2.5c0.8-133.5-19.6-386.1-19.6-386.1C432,208.3,434.5,247.4,434.5,247.4z
		 M402.7,715c20.8,0,37.6,18.1,37.6,40.4c0,22.3-16.8,40.4-37.6,40.4c-20.8,0-37.6-18.1-37.6-40.4C365.1,733.1,381.9,715,402.7,715z
		 M346.1,601.2c0,0,5.1-23.8,19.6,0C365.6,601.2,362.2,629.2,346.1,601.2z M363.1,560.4c-5.1,31.5-17.9-1.7-17.9-1.7l-5.9-86.7
		c21.3-10.2,21.3,13.6,21.3,13.6L363.1,560.4z M327.4,307.8l-2.5-34.9c0,0,7.7-34,21.3,1.7l2.5,33.2
		C348.6,307.8,340.1,329.9,327.4,307.8z M332.5,341.8c17-8.5,18.7,11,18.7,11l7.7,85c-4.3,28.1-19.6-1.7-19.6-1.7L332.5,341.8z
		 M453.2,924.3c0,0-82.5-16.2-97.8-27.2c-15.3-11.1-42.5-34.9,5.1-34l88.4,29.8C449,892.9,483.8,911.6,453.2,924.3z"/>
	<path class="st4" d="M348.6,307.8c0,0-8.5,22.1-21.3,0l-2.5-34.9c0,0,7.7-34,21.3,1.7L348.6,307.8z"/>
	<path class="st5" d="M358.8,437.9c-4.3,28.1-19.6-1.7-19.6-1.7l-6.8-94.4c17-8.5,18.7,11,18.7,11L358.8,437.9z"/>
	<path class="st5" d="M365.6,601.2c0,0-3.4,28.1-19.6,0C346.1,601.2,351.2,577.4,365.6,601.2z"/>
	<path class="st5" d="M363.1,560.4c-5.1,31.5-17.9-1.7-17.9-1.7l-5.9-86.7c21.3-10.2,21.3,13.6,21.3,13.6L363.1,560.4z"/>
	<path class="st6" d="M402.7,715c-20.8,0-37.6,18.1-37.6,40.4c0,22.3,16.8,40.4,37.6,40.4c20.8,0,37.6-18.1,37.6-40.4
		C440.3,733.1,423.4,715,402.7,715z M403.3,790.3c-17.8,0-32.3-15.6-32.3-34.8c0-19.2,14.5-34.8,32.3-34.8
		c17.9,0,32.3,15.6,32.3,34.8C435.6,774.8,421.1,790.3,403.3,790.3z"/>
	<path class="st7" d="M403.3,720.8c-17.8,0-32.3,15.6-32.3,34.8c0,19.2,14.5,34.8,32.3,34.8c17.9,0,32.3-15.6,32.3-34.8
		C435.6,736.4,421.1,720.8,403.3,720.8z M407.3,765.3c-5.6,0-10.2-4.6-10.2-10.2s4.6-10.2,10.2-10.2s10.2,4.6,10.2,10.2
		S412.9,765.3,407.3,765.3z"/>
	<path class="st6" d="M417.5,755.1c0,5.6-4.6,10.2-10.2,10.2s-10.2-4.6-10.2-10.2s4.6-10.2,10.2-10.2S417.5,749.5,417.5,755.1z"/>
	<path class="st5" d="M450.7,620.8c-14.5,43.4-37.4-2.5-37.4-2.5c0.8-133.5-19.6-386.1-19.6-386.1c38.3-23.8,40.8,15.3,40.8,15.3
		C443.9,298.5,450.7,620.8,450.7,620.8z"/>
	<path class="st5" d="M453.2,924.3c0,0-82.5-16.2-97.8-27.2c-15.3-11.1-42.5-34.9,5.1-34l88.4,29.8
		C449,892.9,483.8,911.6,453.2,924.3z"/>
	<path class="st8" d="M761.1,63.7l0,0.5c-37.1,15.7-112.8,48.4-163,74c-40,20.5-73.4,32.3-94.4,38.6c-15,4.5-23.5,6.2-23.5,6.2
		s-22.1,1.7-107.2-6.8c-83.5-8.4-78.1-25.3-77.9-25.9c0,0,0,0,0,0s0,0,0,0c2.8-1,285.8-104.3,307.6-108.8c21.9-4.5,68.8,3,68.8,3
		C758.5,52.9,761.1,63.7,761.1,63.7z"/>
</g>
</svg>
