<?xml version="1.0" encoding="utf-8"?>
<!-- Generator: Adobe Illustrator 27.4.1, SVG Export Plug-In . SVG Version: 6.00 Build 0)  -->
<svg version="1.1" id="Calque_1" xmlns="http://www.w3.org/2000/svg" xmlns:xlink="http://www.w3.org/1999/xlink" x="0px" y="0px"
	 viewBox="0 0 500 500" style="enable-background:new 0 0 500 500;" xml:space="preserve">
<style type="text/css">
	.st0{fill:#000000;stroke:#000000;stroke-width:0.1;stroke-linecap:round;stroke-linejoin:round;}
</style>
<g>
	<path id="AL_00000150081982283094389140000006478260698086129551_" class="st0" d="M298.24,365.57l0.29,0.23l1.17,1.69l0.82,0.29
		l1.11,0.76l0.82,1.87l0.06,1.28l-0.29,1.52l0.18,1.23l-0.47,0.47l0.41,1.17l0.12,1.11l0.7,1.28l0.7,0.64l0.76,1.4l0.93-0.12
		l0.76,0.64v0.64l0.64,1.05l-0.47,1.52l-0.99,0.47l-0.7,1.81l-0.18,1.17l-0.35,0.29l-1.11,0.18l-0.99,0.76l0.58,1.28l-0.53,0.41
		l-0.18,0.88l-0.41,0.41l-1.58-0.53l-0.41-1.46l-0.99-1.58l-2.86-1.52l-0.7-0.64l0.23-0.88l-0.06-0.82l-0.82-1.4l0.18-1.52
		l0.47-1.28l-0.18-1.58l0.06-1.23l-0.41-1.69l0.29-1.23l0.53-0.76l-0.12-1.28l-0.88-0.64l-0.93-0.12v-1.81l-0.18-0.35h0.99
		l-0.99-1.63l1.87-3.09l0.64,0.18l0.47,1.23L298.24,365.57L298.24,365.57z"/>
	<path id="AD_00000023266112323817498550000015309696792465154452_" class="st0" d="M163.29,366.09l-1.82,0.64l-0.51-0.23v-1.23
		l0.63-0.41l1.71,0.35V366.09L163.29,366.09z"/>
	<path id="AM_00000155116941798977237880000006974024120114101135_" class="st0" d="M484.73,391.75l-1.93-1.69l-1.39-1.02
		l-0.96-0.42l-2.11,0.24l-1.75-0.54l-1.08-0.54l0.3-0.36l-1.14-1.81l-0.48-1.14l0.6-0.84l0.12-1.39l-1.02-1.99l-1.02-0.72
		l-0.78-0.96l2.65-0.18l3.19-0.78l1.93,0.18l0.66-0.12l2.11-0.06l-0.3-0.42l1.39-0.3l0.78,0.9l0.96,0.6l-0.54,0.54l1.39,0.6h0.72
		l1.99,1.51v0.42l-1.14,0.9l-0.12,0.66l1.93,2.05l1.45,0.84l1.93,0.9l0.12,0.54l-0.54,1.51h-1.81l0.36,0.54l1.14,0.72l3.68,2.65
		l0.9-0.18l1.33,0.54l0.12,0.78l-0.6,0.84l1.14,0.84l0.48,0.9l-1.08,0.3l0.84,0.9l0.3,1.57l-1.33-0.06l-1.51,0.3l-1.81-2.83
		l0.06-0.6l-1.87-1.27l0.06-1.02l-0.48-0.72l-1.02,0.12l-1.14,0.54l-1.75-0.96l-0.72,0.12l-0.18-0.66l-1.08-1.02L484.73,391.75
		L484.73,391.75z"/>
	<path id="AT_00000155829966607568786830000013714102663349664934_" class="st0" d="M270.52,311.05l-0.53,1.4l0.06,0.47l0.93,1.69
		l1.34,1.69l-0.35,0.41l-0.35,1.11l0.41,1.17l-2.28,0.18l-1.46-0.53l-0.76,0.82l1.52,0.41l0.29,0.64l-0.29,0.82l-1.28,0.7l0.23,0.88
		l-0.29,0.41l0.64,0.93l-0.18,1.05l-1.46,0.29l-1.05,0.99l-0.76,0.53l-0.06,1.11l-1.4-0.29l-0.93,0.12l-1.34,0.64l-1.63-0.12
		l-1.52,0.12l-1.11,0.41l-0.58,0.76l-1.75,0.7l-2.92-0.41l-2.92-0.53l-1.52-0.29l-2.33-0.18l-5.02-0.88l-0.64-0.29l-1.81-2.04v-1.34
		l-2.74,0.88l-1.81-0.12l-1.98,0.18l-0.82,0.35l-0.7,1.28l-0.64,0.23l-1.23-0.23l-0.53-0.47l-1.75-0.18l-0.29-0.88l-0.47-0.18
		l-1.17,1.11l-1.34-0.23l-0.88-0.47l-0.23-0.58l-1.93-0.47l0.18-0.47l-0.64-1.46l0.58-1.75l-0.53-0.41l0.99-0.29l0.41-0.29
		l2.04,0.93l0.53,0.82l0.7,0.18l-0.06,0.76l0.93-0.29l0.58-0.93l0.12-1.11l1.63-0.06l1.58,0.23l0.82,1.11l2.22-0.29l0.64-0.53
		l2.28-0.88l3.33-0.29l0.06-0.82l1.17,0.18l0.88,0.47l1.46-0.29l0.64,0.29l0.12,0.64l0.7,0.53l0.99,0.23l0.18-0.88l-0.18-1.11
		l-0.99-0.18l0.35-0.76l-0.06-0.76l-1.46-1.63l0.35-0.76l1.81-1.05l1.69-0.47l0.58-0.58l0.41-1.69l1.34,0.53l0.76-0.53l0.12-1.63
		l1.28,0.7l0.47,0.76l2.28,0.23l0.82-0.41l1.46,0.23l0.06-0.64l0.76-0.93h0.7l0.18-1.87l0.7-0.12l0.93,0.47l0.82-0.23l2.8,0.99
		l0.88-0.06l1.75,0.99l2.22,0.12l0.7-0.53l2.98,0.88L270.52,311.05L270.52,311.05z"/>
	<path id="BE_00000003082812701951835050000014501703920193359545_" class="st0" d="M190.2,291.95l0.93-0.29l0.47,0.47l0.7,0.06
		l1.75,1.34l-0.23,0.88l0.99,0.41l0.23,1.17l-1.34,0.76l-0.35,0.99l-0.99-0.41l-0.76,0.76l-0.82,1.46l-0.12,0.99l1.17,1.4
		l-0.64,0.99l-1.98,0.23l-1.63-1.52l-1.93-0.88l-0.99-0.06l-0.23-1.17l-0.35-0.35l0.47-1.58l-1.11,0.35l-0.29,0.82l-0.76,0.35
		l-1.28,0.18l-1.34-0.18l-0.29-0.35l0.41-0.82l-0.41-0.41l0.23-0.93l-0.93-0.64l-2.1-0.23l-0.53,0.18l-0.35-1.17l-2.45-0.64
		l-0.29-1.17l-0.93-1.05l-1.87,0.58l-1.69-1.4v-0.7l-0.53-1.28l2.98-1.46l2.74-0.99l0.18,0.76l0.7,0.41l0.7-0.35l2.28,0.64
		l1.87-0.88l0.35-0.7l1.23,0.18l-0.12-0.53l0.82-0.41l0.88,0.47l0.88-0.58l0.64,0.76l1.46-0.47l0.29,0.93l1.52,0.82l1.11-0.23
		l0.99,0.76l1.52,0.64l-0.58,1.69l-0.64,0.76L190.2,291.95L190.2,291.95z"/>
	<path id="BG_00000083081843121174047090000016067679841566953344_" class="st0" d="M359.48,355l0.12,2.18l-0.53,1.06l-1.17-0.35
		l-1.28,0.3l-0.58,1.18l-0.7,0.71v1.53l0.23,2.48l-0.93,0.41l-1.69,2.18l1.75,1.06l0.99,1.3l1.4,1.48l0.29,0.71l-0.99-0.12
		l-0.53,0.24h-1.53l-0.86,0.35l-1.96-1.46l-2.02,0.18l-0.86,0.64l-1.96,0.23l-0.58,1.28l-1.1,0.18l-0.17,0.82l-0.92-0.29l-0.92,0.64
		l0.4,0.58l0.52,1.58l-0.12,0.47l-1.44,0.7l-1.04-0.18l-1.84,0.23l-1.96,0.53l-0.98-0.64l-2.13-0.7l-0.52,0.35l-1.38-0.82
		l-0.69-0.99l-0.92,0.29l-2.42-0.06l-0.12,0.53l-1.1,0.12l-1.73,0.64l-1.5-0.12l-1.38,0.12l-0.58,0.58l-1.73-0.12v-2.45l0.29-0.99
		l-0.52-0.58l-0.98-1.93l-1.96-1.05l-1.9-1.87l0.58-0.18l0.63-0.99l-0.81-1.69v-2.01l0.64-0.35l1.05-0.06l0.64-0.94l0.93-1
		l0.18-0.83l-0.93-0.59l-0.76-0.94l-1.69-0.89l-1.4-2.3l-0.35-1.42l0.23-1.36l1.23-0.59l0.12-1.12l0.53-0.41l2.51,1.48l-1.05,1.18
		l0.53,1.06l2.16-0.35l2.28,0.18l3.09,0.59l2.04,0.24l1.46-0.3l5.49,1l2.45,0.12l1.34-0.35l0.93-0.53l0.7-0.94l1.93-1.24l1.87-0.71
		l2.57-0.53l1.69-0.24l2.63,1.36l1.87,0.24l0.53,0.35l0.99-0.3l1.46,1.53l1.28,0.41l1.52,0.3L359.48,355L359.48,355z"/>
	<path id="BA_00000042733795562446980430000008208488366795022768_" class="st0" d="M288.48,344.72l1.63-0.41l0.88,0.47l-0.29,1.46
		l-0.93,1.58l-0.06,1.52l0.29,0.47l1.4,0.7l1.93,1.69l-0.18,0.47l-1.81-0.06l-0.29,0.47l1.87,2.16l-0.12,1.28l-1.46-0.18l-0.41,0.47
		l-1.87,0.29l0.82,1.28l-1.34,0.12l-1.17,0.99l-0.29,0.99l0.06,0.88l-0.99,0.12l-0.29,0.41l0.35,1.75l0.64,0.93l-0.06,0.47
		l-0.64,0.58l-0.99-0.41l-3.62-2.22l-0.35-0.53l-0.93,0.06l-0.64-0.35l0.18-0.93l-1.75-1.46l-0.88-0.93l-0.23-1.28l-1.4-0.64
		l-2.92-2.39l-0.99-1.17l-1.63-1.34l-1.34-1.4l-0.76-2.33l-1.98-1.87l-1.11-0.76l-0.06-0.82l0.18-2.92l0.7-0.35l1.05,0.23l0.99,1.05
		l1.05,0.58l1.58-1.87l1.87,0.18l0.88-0.7l1.58,0.93l1.46,0.06l1.63,0.41l0.99-0.35l0.93,0.76l1.28-0.58l1.05,0.18l1.05-0.12
		l1.52,0.41l1.28,0.12l0.64,0.47l0.76,1.28L288.48,344.72z"/>
	<path id="BY_00000124157585706233595440000005012326436823462037_" class="st0" d="M338.92,245.03l1.07,0.76l0.71-0.23l1.13-0.06
		l1.84,1.28l0.95-0.53l0.89-0.18l2.14,0.7l0.12,1.34l1.01,0.88l1.25-0.76l1.6-0.64h1.42l1.61,0.52l1.43,1.05l2.09,0.82l0.24,1.46
		l-0.36,1.05l1.25,1.22l0.3,0.76l-0.78,1.17v1.17l2.45,1.17l0.3,0.29l-0.3,1.05l0.84,0.35l1.07,1.4l0.9,0.82l2.92,1.22l0.42,0.47
		l-0.24,1.63l3.16,0.29l1.91,0.76v0.64l0.42,0.64l1.67,0.82l0.36,0.99l-1.55,0.58l-0.18,0.52l-1.79,1.05l-2.09-0.12l-1.43-0.87
		l-1.73,0.06l-0.84,1.57l2.33,1.92l0.36,0.58l-0.12,0.87l0.6,0.87l0.3,1.92l0.95,0.82l0.78,1.05l-2.98-0.06l-0.84,0.47l-1.01-0.23
		l-0.66,0.29l-1.31,1.34l-0.48,0.7l-0.6,1.92l1.07,2.1l-0.48,0.82l-1.61-0.52l-0.3-0.7l-1.19-0.64l-4.24,0.35l-1.37,0.47l-0.36-0.29
		l-1.49-1.75l-2.27,0.93l-0.36,0.64l-0.6-0.17l-0.48-0.76l-3.04-0.58l-1.13,0.41l-1.13-0.29l-0.72,0.99l-0.48-0.82l-0.66-0.23
		l-1.79,0.06l-0.6-0.17l-1.07-1.22h-0.76l-3.6-0.53l-3.84-0.88l-4.61-0.23l-1.42,0.06l-1.36,0.29l-3.48,0.29l-0.47,0.82l-0.94,0.93
		l-1.12,0.7l-0.65-0.29l-1.12-0.18l-0.65,0.29l0.06,0.82l-0.59-0.93l-0.06-0.76l0.47-0.88l-0.24-0.64l0.12-1.4l-0.47-0.58
		l-1.06-0.58l-1.95-0.76v-0.7l1.18-1.58l0.47-0.29l2.36-0.99l0.35-0.93l-0.53-2.28l-1-2.1l-1.71-2.86l-1.24-2.98l1.71,0.23
		l0.94-0.18l2.18-0.18l0.94,0.53l1.95-0.76l1.06,0.06l0.47-1.52l1.18,0.12l0.83-0.7l1.24-0.29l0.59-0.41l1,1.34l1.18-0.12v-0.53
		l-0.53-0.64l-1.13-0.29l0.3-1.17l0.59-0.88l-0.24-1.34l0.65-1.75l1.54-0.35l0.47-0.35l0.59-1.17l2.14,0.06l0.24-0.64l0.77-0.58
		l-2.32-0.58l0.42-1.81v-1.05l1.54-0.35l0.71-0.88l0.65-0.18l1.78,0.23l1.84,0.06l0.24-0.99l1.48-1.4l0.83-0.47L338.92,245.03
		L338.92,245.03z"/>
	<path id="CH_00000118398694241732092520000014399641435018531761_" class="st0" d="M215.91,319.71l0.48,0.66l1.56,0.78h0.72
		l0.54,0.42l-0.6,1.8l-0.3,0.9l0.06,1.02l0.72,0.06l1.98,0.48l0.24,0.6l0.9,0.48l1.38,0.24l1.2-1.14l0.48,0.18l0.3,0.9l-0.3,1.86
		l0.3,1.08l-1.14-0.12l-0.6-0.54l-0.78,0.18l-0.36,1.08l0.9,2.1l-0.72,0.18l-0.84-1.14l-0.42-0.06l-1.74,0.66l-1.2-0.48l-0.48-1.26
		l-1.2,0.06v0.47l-0.29,0.6l-1.27,1.41l-0.12,0.54l0.4,0.92l-0.69,0.38l-0.52-0.76l-0.75-0.65l0.23-0.65l-1.27-0.33l-1.39-1.09
		l-0.12-1.36l-0.58-0.33l-1.96,1.57l0.35,0.81l-0.92,1.19l-1.39,0.76l-1.79-0.43l-1.5,0.54l-1.39,0.27l-0.81-0.38l-0.52-0.76
		l-1.33-1.25l0.29-0.92l-0.46-1.19l-1.27-0.16l-1.1,0.05l-1.33,0.81l0.29,0.71l-1.33,0.87l-0.81-0.05v-0.54l0.87-0.54l0.17-0.81
		l-0.46-0.38l0.64-1.57l1.73-1.19l0.29-1.57l1.21-0.49l2.2-2.17l0.35-0.49l-0.75-0.6l1.04-0.76h0.64l0.46,0.43l1.56-0.16l0.46-0.76
		l0.87-0.38l0.58,0.16l1.62,0.05l1.91-0.33l1.5,0.11l-0.12-0.81l0.75-0.65h0.57l0.84,0.6l0.48-0.12l0.66,0.54L215.91,319.71
		L215.91,319.71z"/>
	<path id="CZ_00000096050038774674682770000001259734442287771566_" class="st0" d="M253.94,291.67l1.23-0.23l-0.06-1.08l1.93,0.45
		l0.18,0.62l0.58,0.62l2.69,0.62l1.58,0.62l0.47,0.51l1.87-0.4l1.05,0.68l-0.41,0.62l-0.93,0.68l0.93,0.51l1.17,1.02l0.88,1.08
		l0.58,0.23l2.04-1.42l-0.99-1.36h0.76l1.28,0.34l1.93,1.08l2.1-0.4v-0.52l-0.82,0.31l1.58,1.44l0.58,0.38l1.05-0.63l2.04,1.13
		l0.29-0.13l1.58,0.5l0.29,1.13l1.63,1.38l0.29,1l-1.63,0.19l-1.17,0.94l-0.35,0.5l-1.34,0.75l-0.41,1.88l-0.93,0.5l-1.23,1.19
		l-0.88,0.44l-0.99,0.13l-2.1-0.31l-0.82,0.75l-0.64,1.75l-0.58-1l-2.98-0.94l-0.7,0.56l-2.22-0.13l-1.75-1.06l-0.88,0.06l-2.8-1.06
		l-0.82,0.25l-0.93-0.5l-0.7,0.13l-0.18,2h-0.7l-0.76,1l-0.06,0.69l-1.46-0.25l-0.82,0.44l-2.28-0.25l-0.47-0.81l-1.28-0.75
		l-0.35-0.44l-1.69-1.38h-0.83l-0.76-0.59l-1.46-0.88l-1.69-1.45h-0.69l-1.34-1.13l-1.05-1.53l-0.82-0.85l0.7-0.96l-0.35-0.91
		l-1.34-0.74l-1.46-1.92l0.29-0.4l1.11,1.13l1.11-1.47l0.64-0.34l1.52-0.34l1.23,0.23l0.47-0.74l1.17-0.17l0.35-0.57l0.93-0.4
		l0.64,0.06l0.35-0.68l2.57-0.57l2.04-0.85l1.11-0.34l-0.88-0.85l0.47-0.34l1.28,0.23l0.88,0.85v0.51l0.82,0.34L253.94,291.67
		L253.94,291.67z"/>
	<path id="DE_00000065032385889205713730000008085164042833239996_" class="st0" d="M247.45,264.75l-1.98-0.06l-0.12-0.99
		l-0.64-0.58l-0.06-0.58l2.74,1.52L247.45,264.75z M227.13,259.86h-1.05l-0.82-0.41l0.47-0.58l0.99,0.23L227.13,259.86
		L227.13,259.86z M243.65,260.03l-0.76,0.41h-0.76l-0.76,0.76l-1.23-0.64l-0.29-0.64l0.06-1.28l0.35-0.82l1.17-0.53l0.53,0.7
		l0.99,0.35l-0.29,0.99L243.65,260.03L243.65,260.03z M216.33,256.5l1.05,0.41l0.93,0.93l0.06,0.81l-0.99,0.93l1.86-0.17l0.47,0.7
		l0.99-0.23l2.62,1.05l1.86-0.52l0.41,0.81l-0.35,0.87l-1.28,0.93l0.81,0.7l1.22-0.12l2.1,0.52l1.92-1.46l0.64-0.29l2.1-0.17
		l2.97-2.62l3.09,0.52l0.87,1.11l2.15,1.22l1.86-0.12l0.76,1.16l0.47,1.46l1.11,0.76l1.63,0.29l0.41,1.51l1.05,2.39l-0.17,1.57
		l-1.11,1.05l-0.41,0.93l0.93,0.81l1.92,1.22l0.81,0.99l-0.35,1.51l1.16,1.34l0.47,1.11l-0.41,1.51l-0.47,0.64l1.11,1.8v0.97
		l1.5,0.53l0.93,1.87l-0.23,1.34l-0.93,2.1l-0.53,0.41l-0.16-0.35v-0.53l-1.53-0.88l-1.28-0.23l-0.47,0.35l0.88,0.88l-1.11,0.35
		l-2.04,0.88l-2.57,0.58l-0.35,0.7l-0.64-0.06l-0.93,0.41l-0.35,0.58l-1.17,0.18l-0.47,0.76l-1.23-0.23l-1.52,0.35l-0.64,0.35
		l-1.11,1.52l-1.11-1.17l-0.29,0.41l1.46,1.98l1.34,0.76l0.35,0.93l-0.7,0.99l0.82,0.88l1.05,1.58l1.34,1.23h0.76l1.69,1.45
		l1.46,0.88l0.76,1.17h0.96l1.7,1.27l0.35,0.4l-0.12,1.62l-0.76,0.52l-1.35-0.52l-0.41,1.67l-0.59,0.58l-1.7,0.46l-1.82,1.04
		l-0.35,0.75l1.47,1.62l0.06,0.75l-0.35,0.75l1,0.17l0.18,1.1l-0.18,0.87l-1-0.23l-0.71-0.52l-0.12-0.64l-0.65-0.29l-1.47,0.29
		l-0.88-0.46l-1.18-0.17l-0.06,0.81l-3.35,0.29l-2.29,0.87l-0.65,0.52l-2.23,0.29l-0.82-1.1l-1.59-0.23l-1.65,0.06l-0.12,1.1
		l-0.59,0.92l-0.94,0.29l0.06-0.75l-0.71-0.17l-0.53-0.81l-2.06-0.92l-0.41,0.29l-1.29-0.69l-3-1.33l0.59,0.92l-2.18,0.12
		l-0.65-0.52l-0.47,0.12l-0.82-0.58h-0.76l-0.76,0.69l0.12,0.87l-1.53-0.12l-1.94,0.35l-1.65-0.06l-0.59-0.17l-0.65-0.75v-0.87
		l0.35-1.15l-0.12-1.39l0.18-0.87l0.59-1.04l0.82-3.18l2.06-2.19l-0.06-0.75l-0.94-0.35l-2.82-0.46l-1.18-0.81l-1.76,0.35
		l-1.23-0.06l-0.18-0.52l-0.82-0.23l-1.06,0.4l-2.06-2.48l-0.82-0.06l0.35-1.73l0.53-0.52v-1.78l-1.49-0.58l-0.8-0.85l-0.16-1.17
		l0.32-0.9l1.22-0.69l-0.21-1.06l-0.9-0.37l0.21-0.8l-1.59-1.22l0.32-1.27l-1.01-0.64l0.27-0.42l1.17-0.85l-0.37-0.64l0.69-1.49
		v-1.3l-1.82-2.4l0.41-0.64l1.05-0.41l1.35,0.47l2.64-0.76l0.41-0.59l-0.59-0.53l0.18-0.53l1.52-0.94l0.35-1.52l-0.47-0.59
		l-1.52-0.18l-0.41-0.59l0.35-0.94l1.82,0.06l0.64-2.23l0.41-1l-0.06-2.52l-1-0.82l0.29-1.58l0.64-0.82l0.53-0.23l2.34-0.18
		l2.64,0.06l1.11,1.29l-0.35,0.7l0.94,0.18l0.53-1.41l0.82,0.47l0.64-0.06l-0.29-1l0.12-0.94l0.53-0.82l1.93,0.35l2.11-0.18
		l0.06-0.35l-1.64-0.29l-0.53-0.64l-0.12-2.28l-0.88-0.47l-0.94,0.18v-0.83l1.75-0.64v-0.55l-1.98-2.21l-0.12-0.93l1.57,0.06
		l3.03,0.76l1.8-0.41L216.33,256.5L216.33,256.5z"/>
	<path id="DK_00000028304387028508203970000014319857287270238864_" class="st0" d="M227.37,255.88l1.23,0.58l1.4,0.18l0.23,1.11
		l-2.04,0.41l-2.98-1.23l0.06-1.46l1.34-0.12L227.37,255.88L227.37,255.88z M235.36,255.24l-1.34,0.06l-1.11,0.58l-0.18-0.7
		l0.93-0.58l0.7,0.12L235.36,255.24z M218.55,255.94l-0.7,0.12l-0.99-0.29l-0.35-1.34l1.58,0.64L218.55,255.94L218.55,255.94z
		 M223.22,257.11l-0.82-0.88l1.46-1.69l0.41-0.12L223.22,257.11z M252.47,254.77l-1.4-0.12l-1.4-0.58l0.06-1.17l0.29-0.53l2.63,1.34
		L252.47,254.77L252.47,254.77z M222.05,249.76l1.34,2.51l-0.06,1.63l-1.05,0.7h-1.23l-3.15-0.99l-0.99-1.69l-0.06-1.34l2.8-0.82
		l1.52,0.47L222.05,249.76z M235.65,249.81l-0.58,0.35l-0.41-0.53l0.53-0.53L235.65,249.81L235.65,249.81z M221.6,248.18h-0.53
		v-1.75l0.88,0.93L221.6,248.18z M234.97,248.18l0.06,0.88l-0.41,0.41l-1.17,0.41l-0.64,1.05l1.17,0.7l0.29,0.88l-0.58,0.41
		l-1.52,0.41v3.27l-1.28,0.35l-0.88-1.23l-0.06-0.53l-0.76-1.81l-1.17-0.23l-1.28,0.06l-0.88-1.05l0.06-1.23l-0.58-1.17l-0.76-0.35
		l0.23-0.82l1.81-0.12l0.88-1.11v-0.53l1.05-0.12l0.47,0.41l0.06,1.52l0.93,0.29l0.64-1.69l-0.53-0.64l2.28-1.28l0.64-0.06
		l1.75,0.53l-0.23,1.23L234.97,248.18L234.97,248.18z M216.16,257.28l-0.87-0.25l-1.79,0.43l-3-0.81l-1.56-0.06l-0.29-1.3
		l-0.46-0.87l0.63-0.19l-0.52-2.42l-1.85-0.81l-1.44-0.87l0.29-3.48l-0.58-1.43l0.06-4.41l0.75-0.06l1.79,0.47l0.87,0.53l0.35-1.11
		l0.92-0.93l1.15-0.47l0.92,0.76l0.17-2.63l-0.92-0.29l-0.75,0.23l-0.75,1.11l-0.58,1.4l-1.1,0.12l-0.87,0.41l-1.38-0.82l0.06-0.82
		l0.92-1.11l1.15-1.11h1.27l0.92-0.35l2.25,0.06l1.62-0.76l1.62-2.1l0.87-0.88l1.9-0.29l1.73-0.99l-0.46,1.46l0.69,0.99v1.53
		l-0.52,0.62l-0.81,1.55l0.12,3.48l1.44,0.93h2.37l0.58,0.68l-0.4,1.37l-1.5,0.87h-0.52l-0.81-0.68l-0.63,0.56l-0.69,3.17
		l-1.15-0.06l-0.69,0.31l0.81,0.75l-0.75,0.5l-1.96,1.93l0.63,2.11l-0.12,0.56l-0.87,0.81l-0.35,0.68l1.33,0.19L216.16,257.28
		L216.16,257.28z"/>
	<path id="EE_00000042735755642133372160000011222674533733460103_" class="st0" d="M298.58,223.95l2.28,0.12l2.33,1.05l-1.05,0.41
		l-2.16,1.46l-0.18,0.29l-1.52-0.06l-0.82,0.12l-0.58,0.53l-0.53,1.63l-0.93,0.29l-0.18-0.53l0.93-1.05l-0.88-0.82l-1.11-0.41
		l0.53-1.05l-0.93-0.93l0.88-0.12l0.58,0.29l1.17-0.29l0.29-0.58L298.58,223.95L298.58,223.95z M303.42,224.53l-0.53,0.12l-1.4-0.64
		l0.58-0.58l1.11,0.29L303.42,224.53z M300.27,222.2l-0.47,0.41l-0.53-0.35l-0.53,0.93l-0.76,0.18l-1.11-1.46l-1.69-0.29l-0.76-0.41
		l2.63-0.23l0.7-0.93l0.76,0.06l0.23,0.53l1.23,0.18l0.53,0.58L300.27,222.2L300.27,222.2z M331.33,233.23l-1.11-0.12l-1.98-0.58
		l-2.33,0.7l-1.63-0.64l-2.04-1.58l-0.35-0.41l-1.34-0.29l-3.27-1.46l-0.64,0.41l-0.88-0.58l-4.9,1.63l0.58-1.98l0.06-2.1
		l-1.34-0.23l-0.53,0.76l-0.76,0.18l-2.39-0.76l-0.7-1.23l-0.93-0.64l-0.28-0.7v-1.05l-1.07-1.17l0.41-0.64l-0.41-1.63l1.75-0.7
		l1.93-0.12l0.53-0.76l1.17-0.76l1.34,0.12l1.81-0.23h3.68l0.23-1.17h1.87l4.44,0.58h1.05l1.63,0.69l0.82,0.47h2.33l3.68-0.01
		l0.7-0.58l0.88,0.7l-0.58,0.82l-0.7,0.23l-0.53,1.87l-0.47,0.58l-0.99-0.18l-1.46,0.12l-1.17,0.29l-0.76,0.64l0.06,0.64l1.52,1.34
		l0.82,1.63l1.52,1.28l0.47,0.76l1.4,1.69l1.05,1.46l-1.34,0.35l-0.7,1.17L331.33,233.23L331.33,233.23z"/>
	<path id="FI_00000035514097410674895830000002610072979124594338_" class="st0" d="M293.33,209.18l1.17,0.12l-0.35,1.63l-1.34-1.05
		L293.33,209.18L293.33,209.18z M292.22,209.47l-1.23-0.35l0.53-0.47L292.22,209.47L292.22,209.47z M288.42,207.9l-0.88,0.41
		l-0.18-0.99L288.42,207.9z M303.31,171.18l-0.88,0.29l-0.76-0.18l-0.12-0.53l1.17-0.35L303.31,171.18z M320.88,139.31l-2.16,0.76
		l0.93,0.47l0.47,0.7l-1.17,1.87l0.06,0.35l1.81,2.33l4.2,0.99l1.34,1.05l2.1,1.34l1.05,0.53l0.06,1.11l-1.75,1.75l-1.52,1.81
		l-0.7,0.99l0.23,0.99l1.52,1.23l1.34,1.28l1.75,2.04l1.75,1.46l1.75,2.45l0.23,0.82l-2.16,0.41l0.7,0.53l-0.35,0.76l0.18,1.11
		l-0.29,0.88l1.11,0.18l0.18,0.76l-0.98,0.58v0.42l0.82,1l0.59,0.35l1.88,0.35l0.53,0.94l-0.59,1l1.06,1.29l2.64,1.06l0.41,0.76
		l0.12,1l-1.41,1.76l-1.17,0.47l0.41,0.47l2.64,1.53l3.87,1.7l1.53,0.76l1.23,1.11l1.29,0.94l0.29,0.59l-0.94,2.64l-0.41,0.7
		l-1.29,1.29l-1.99,1.64l-1.35,1.35l-3.11,3.46l-1.11,0.88l-1.23,1.29l-2.87,1.94l-0.41,0.47l-1.47,0.88l-3.29,3.05l-2.05,0.59
		l-1.53-0.65l-1.06,0.12l-0.7,0.47l-1.47,0.12l-1.17,0.35l-0.59-0.41l-0.41,0.35l-1.11,0.12l-1.17-0.59l0.18,0.88l-1.94,0.88
		l-0.47-0.53l-1.17,0.59l-1.23,0.12l-0.65,0.47l-3.46,0.65l-0.88,0.76l-0.7-0.18l-3.93,0.65l-1.7-0.12l-1.58,1.17l-1.06,0.23
		l0.88-1.76l-1.41-0.65l-0.7-0.94l-0.41,0.23l-0.18,0.88l-0.88,0.47l-1.17-0.06l-0.23-1.41l0.47-1.35l-2.11-0.35l-2.23-0.82
		l-0.53-0.06l-0.41-0.76l-1.17,0.53l-1.23-0.53l-1-3.11v-0.82l0.74-0.93l-0.06-1.98l-0.35-1.17l0.64-0.35l-0.53-0.93l-1.28-1.75
		l-0.93-0.64l0.29-1.93l-0.35-0.93l-1.11-0.64l-0.64-1.69l0.35-1.4l1.47-1.28v-0.65l0.53-0.65l-0.29-0.76l1.59-0.29l0.59,0.23
		l1.41-0.23l1.12-0.59l-0.65-1.06l0.88-0.41l0.7-0.7l-0.06-0.59l1.35-0.29l1.41-1.12l1.35-0.65l1.35-1.12l0.65-0.06l0.18-0.76
		l1.47-1.12l0.47-0.94l1.35-1.06l1.29-2.29l2.23-0.7l2.23,0.18l-0.35-1l0.59-0.18l-0.35-0.76l-0.59-0.35v-2.57l-0.76-0.53
		l-2.64-0.93l-1-0.06l-0.7-0.7l-2.7-0.41l-0.94-1.46l-1.11-1.28l-1.06-0.35l-0.76-1.52v-0.76l0.88-0.76l-0.06-1.05l0.41-0.82
		l-0.35-0.53l-1.94-1.52l-0.47-0.93l0.06-0.64l0.59-0.47l-0.35-0.76l-1.64-0.23l0.18-1.11l-0.41-0.82l-0.23-1.4l0.65-0.58
		l-1.06-0.53l-1.11-0.88l-0.82-0.06l-0.7-0.93l-2.05-1.05l-4.87-0.99l-2.46-1.05l-2.82-1.34l-1.7-0.64l-0.23-0.53l-1.7-0.47
		l0.29-0.23h1.2l1.11,0.17l0.29-0.35l-0.58-0.82l1.11-0.75h2.1l4.61,3.32l0.82,1.05l4.03,0.35l0.47,0.29l1.05-0.06l2.16-0.53
		l0.7-0.7l0.88,0.06l2.1,0.64l2.28,0.47l1.52,0.47l0.76-0.35l0.29-0.99l0.93-0.76l1.23-0.18l0.88-0.82l-0.41-1.87l0.35-0.99
		l0.41-2.22l1.52-0.99l0.99-1.05l1.23-0.12l2.22,0.23l0.53-0.12l2.04-0.93l1.69-0.18l1.05,0.7l2.45,1.17l2.45,0.64l2.1,0.47
		l1.52,1.58l-0.41,0.58l-2.03,1.69v0.41L320.88,139.31L320.88,139.31z"/>
	<path id="GB_00000124122567625076799360000013231913075523464589_" class="st0" d="M143.09,292.71l-0.93,0.76l-0.76,0.12l-1.46-0.7
		v-0.29l1.46-0.64l1.17,0.35L143.09,292.71z M121.77,269.43l0.76,0.53l-1.98,1.11l-0.7-0.35l-0.53-0.7l-0.06-1.11l0.7-0.29h1.05
		L121.77,269.43L121.77,269.43z M108.24,263.12l-1.23,0.23h-1.69l0.06-0.88l-0.82-0.29l-1.05-1.58l-0.76-0.29l-1.11,0.93l0.29,0.53
		l-1.4,1.05l-1.69-0.18l-0.47-0.41l-1.23-0.23l-0.12-0.58l-1.58-1.17l0.58-0.82l1.69-0.53l-0.58-0.82l0.12-0.47l0.93,0.06l1.28-0.47
		l0.7-0.93l0.58-1.34l1.11-0.53l0.76,0.35l1.11-1.17l1.63-0.06l1.58-0.41l2.28,0.18l0.64,0.64l0.29,0.99l0.76,0.99l0.99,0.82v0.53
		l-1.17,0.64l2.04,0.18l0.7,1.46l-1.23,0.18l-0.06,0.82l0.64,0.12l-0.35,0.82l-1.52,0.35l-0.82,1.28l-0.58,0.29L108.24,263.12
		L108.24,263.12z M116.17,251.09l-1.52-0.29l-0.35-1.17l0.53-0.82l1.05,0.41l0.35,0.76L116.17,251.09L116.17,251.09z M109.45,246.95
		l0.41,1.98l-1.4,0.76l-0.47-1.4l-0.82,0.58l0.12-1.11l0.88-0.18L109.45,246.95L109.45,246.95z M110.45,247.94l-0.64-0.7l0.93-1.28
		l0.99-0.58l-0.06,0.93L110.45,247.94L110.45,247.94z M111.91,243.39l-2.69,0.47l0.35-1.75l-1.11-0.53l0.18-0.53l1.23-0.29
		l0.99,0.99l1.23,0.35L111.91,243.39L111.91,243.39z M102.45,236.73l-0.88-0.12l-0.23-0.82l0.12-1.34l0.93,0.12L102.45,236.73
		L102.45,236.73z M109.92,233.41l-0.06,1.63l1.69,0.47l1.17-0.06l0.23,0.35l-1.93,1.58l-0.41-0.06l-0.12-1.28l-0.82,0.18l-1.11-0.18
		l-0.7-1.11l-1.58-0.29l-0.53-0.64l0.82-0.35l0.18-0.7l1.63-0.35l0.88-0.41l0.53,0.58L109.92,233.41L109.92,233.41z M102.98,231.72
		l0.7,0.53l-0.64,0.76h-0.88l-1.28-0.58l0.12-0.29L102.98,231.72L102.98,231.72z M109.86,226.11l-0.93,1.52l-0.58,0.41l-0.12,0.99
		l-1.75,0.93l-1.87,1.4l-0.82-0.58l1.52-0.99l-1.23-0.58l-0.12-1.52l0.47-0.41l0.82,0.41l1.11-0.18l-0.41-0.7l3.68-1.87
		L109.86,226.11L109.86,226.11z M130.02,225.92v-0.4l-0.6,0.93l-1.28,0.7l-2.45,1.63l-1.46,0.76l-0.29,0.93l0.82,0.06l0.12,0.47
		l-1.28,0.93l-0.35,0.88l1.75-0.23l3.09-0.88l2.1,0.29l1.52-0.18l4.03,0.12l1.11-0.18l1.34,0.76l0.58,0.99l-1.63,1.98l-0.47,1.34
		l-1.17,2.04l-1.11,1.17l-1.17,1.46l-1.23,0.64l-1.81,0.29l2.63,1.11l-0.82,1.05l-1.4,0.06l-1.34,0.99l-1.23,0.41l2.1,0.64l1.4-0.58
		l1.58-0.06l3.04,1.11l2.1,1.98l1.17,0.88l0.29,0.64l1.23,4.03l0.88,2.22l0.93,1.05l2.63,0.93l0.64,0.35l1.98,1.93l1.98,1.4
		l-0.82,0.88l0.23,0.7l1.23,1.69l0.18,0.93l-0.76-0.06l-1.34-0.82l-0.18,0.41l2.92,1.93l0.93,1.17l0.58,1.58l-0.35,0.64l-1.75,1.58
		l1.63,0.82l0.7-0.12l1.17-1.23l0.99-0.12l2.45,0.18l2.22,0.58l1.93,1.23l0.41,0.64l0.23,1.81l-1.28,3.39l-1.63,1.11l-0.29,0.99
		l-1.23,0.53l-0.99-0.18l-1.4,0.7l1.12,0.35v0.99l-0.77,0.35l-1.46,0.12l0.64,1.17l1.46,0.23l2.51-0.12l1.11,0.12l-0.12,1.58
		l-0.23,0.23l-2.22,0.99l-0.58,1.05l-1.28-0.06l-0.64,0.41l-3.33,1.11l-2.86-0.47l-1.69,0.06l-2.33,0.35l-2.45-0.7l-1.05-0.12
		l-1.63,0.99l-2.45,0.29l-1.17-0.12l0.53,0.88l-0.53,0.23l-2.22-0.29l-0.58,0.29l-0.82-0.12l-1.58-0.82l-1.52-0.06l-2.86,0.7
		l-0.58,0.76l-0.76,2.04l-0.64,0.7l-0.82,0.12l-2.63-1.46l-0.88,0.29l-1.46,0.18l-1.58,0.41l-2.28,1.4l-0.53,0.88l-0.76,0.12
		l-0.64-0.53l-0.82-0.18l-1.34,0.47l-0.18-0.76l0.58-0.58l1.63-0.41l1.46-1.11l1.28-1.34l2.69-2.22l0.47-1.81l1.58-0.41l0.82-1.46
		l2.39-0.4h1.63l1.63,0.34l1.69-0.06l0.64-0.41l1.11-1.4l2.1-1.75l-2.74,0.58l-2.22,1.34l-1.87-0.23l-1.34-1.11l-1.23-0.47
		l-1.23,0.23l-0.41-0.53l-1.4-0.64h-1.56l-2.12,1l-1.53-0.71l-0.53-1.36l0.18-0.83l0.65-0.41l1.48-0.35l2.24-1l1.3-0.41l1.65-1.12
		l0.71-1.36l-0.18-1.18l0.3-0.83l-0.53-1l0.18-0.89l-1.77,0.18l-1.59,0.71l-0.41-0.65l1.65-1.06l0.59-0.83l1.53-1l2.12-0.77
		l1.12,0.06l2.18-0.41l1.59,0.77l-0.47-1.24l0.71-0.24l0.06-1.42l0.94-1.3l-0.71-0.35l0.06-1.18l0.89-0.47l0.41-1.53l-1-0.3
		l-1.24,0.35l-1-0.89l-1.65-2.12l-0.18-0.83l0.94-1.83l1.36-1.18l-1.12-0.47l-0.83,0.12l-1.59,0.71l-1.18,0.77h-1.15l-0.45-0.51
		l-0.62,0.06l-1.41,0.62l-1.98-0.73l-0.62,1.3l-1.47-1.41l-0.17-1.07h0.73l0.68-1.36l1.64-2.26l0.34-0.68L119,250.1l-1.07-0.85
		l0.17-1.47l0.45-0.56l0.85-0.23l-1.07-0.68l-1.64,0.51l-1.02,0.51l0.17-1.13l-0.34-0.23l-0.85,0.79l0.06,1.86l-1.19,3.22
		l-0.62,0.51l-0.79-0.28l0.62-2.2l0.79-1.41l-0.34-0.17l0.17-2.03l0.56-1.64l0.96-2.15l1.24-1.98l-2.32,1.53l-0.56,0.28l-1.36-0.23
		l-0.45-0.4l-0.56-1.3l1.02-0.11l0.96-0.62l-0.85-0.4l0.85-0.51l0.96-1.19l0.23-1.07l-0.56-0.85l-0.9-0.34l-0.11-0.51l0.96-1.07
		l-0.4-0.85l0.9-1.75l1.69,0.06l1.07-0.23l-1.3-1.13l0.4-1.64l2.09-0.17l-0.45-1.02l0.17-1.13l0.9-0.51l0.73,0.11l0.56,0.51
		l1.47-0.51l0.34,0.45l1.58-0.34l2.09-0.17l2.54-0.34l1.24-0.23l1.3,0.11L130.02,225.92L130.02,225.92z M129.83,222.49l-0.76,0.06
		l-0.76-0.82l0.88-0.18L129.83,222.49L129.83,222.49z M130.59,220.51l1.58,0.35l-0.35,0.82l-0.82-0.41l-1.17,0.18l-1.11-0.58
		l0.23-1.23l0.99-0.06l0.7,0.29L130.59,220.51L130.59,220.51z M132.75,219.16l-0.58,0.18l-0.23-0.7l-0.99-0.35l0.23-0.47
		L132.75,219.16L132.75,219.16z M142.14,207.78l0.93,1.05l0.58,0.29l-0.76,2.22l-0.12,0.93l-0.58,0.99l-0.47-0.23l0.53-1.69
		l-0.29-0.64l-0.99,0.18l-0.23-0.53l0.93-0.82l-0.47-1.17l-0.64-0.12l0.88-0.93L142.14,207.78L142.14,207.78z M143.84,208.02
		l-0.82-0.76l0.76-0.35L143.84,208.02z"/>
	<path id="GE_00000147207129808459383600000012429278538810430595_" class="st0" d="M483.87,377.24l-1.34,0.29l0.29,0.41l-2.04,0.06
		l-0.64,0.12l-1.87-0.18l-3.09,0.76l-2.57,0.18l-0.76-0.7l-1.11-0.12l-0.64-0.99l-2.04-1.46l-0.7-0.23l-0.35-0.64l-0.82-0.18
		l-0.82,0.23l-0.53,1.11l-1.98-0.47l-2.1-0.06l-0.64,0.58l-2.51-0.76l1.11-1.75l0.23-0.99l-0.23-1.4l-0.99-1.58l-2.16-4.67
		l-0.64-0.7l-2.33-0.82l-0.64-0.93l-1.87-1.23l-2.39-0.53l-2.8-1.69l-1.69-0.99l0.53-1.23l0.47-0.12l2.8,0.53l0.88-0.23l3.44,1.46
		l2.1,0.41l1.81,0.99l3.5,0.29l1.63-0.35h1.05l1.17,0.64l1.4-0.12l1.87,0.7l0.88,0.93l2.04,0.82l1.63,0.47l1.87,0.88l0.12,1.4
		l1.46,0.23l2.51-1.23l1.23-0.41l1.05,0.12l1.11,1.11l0.47-1.28l2.69,0.99l1.23,1.05l1.63-0.06l1.28,0.58l-0.12,2.45l1.69,0.82
		l0.93,0.7l1.98,0.41l1.81,0.88l-0.7,1.23l-0.7,0.18v0.76l0.64,0.47l0.53,0.88l2.63,1.52l0.53,0.47l-0.12,1.17l-1.05,0.82
		l-2.39-1.17l-0.99,0.29l-1.87-0.53l-0.82-0.58l0.06-0.41l-2.33-0.82l-1.11-0.23L483.87,377.24L483.87,377.24z"/>
	<path id="GR_00000152257067931318876940000000718573247112535466_" class="st0" d="M332.08,429.72h1.34l0.99-0.58l1.28,2.16
		l0.99-0.06l2.04-0.53l2.16,0.12l0.82,0.58l1.52,0.12l1.34,0.29l1.93-0.41l0.23,0.23l0.06,1.63l0.7,0.12l0.41-0.41l0.99-0.35h1.05
		l0.93-0.47l-0.23,2.04l-0.53,0.23l-2.57-0.06l-4.73,0.58l-3.09,0.23l-0.41-0.12l-0.41-1.28l-1.93-0.64l-3.62-0.58l-0.88-0.23
		l-1.81,0.12l-0.64-0.58l-0.23-1.05l0.12-1.11l0.82,0.18l0.23-0.82L332.08,429.72L332.08,429.72z M357.42,430.3l-0.93-1.23
		l0.64-0.29l0.7,1.4L357.42,430.3L357.42,430.3z M325.49,423.64l-0.82,0.12l-0.41-1.28l0.29-0.58l1.23,1.23L325.49,423.64
		L325.49,423.64z M362.09,426.03l-0.99-0.23l0.23-1.05l-0.41-0.93l1.34-1.58l1.87-0.76l0.53,0.53l-0.53,1.46l-0.53,0.76l0.23,0.58
		l-0.93,0.12L362.09,426.03L362.09,426.03z M351,420.02l-0.88,0.7l-0.53-0.35l1.11-0.7L351,420.02z M354.75,418.74v-0.41l0.76-0.64
		l1.46-0.58l0.7,0.35l-1.46,0.82l-0.88,0.06L354.75,418.74z M341.66,415.59l-0.53,0.76l-0.76-0.41l0.23-0.7l0.64-0.35L341.66,415.59
		z M343.76,416.52l-0.64,0.35l-0.82-1.28l1.11-1.17l0.53,0.41l0.06,1.05L343.76,416.52L343.76,416.52z M347.04,411.38l0.35-0.93
		l0.93-0.06v0.64L347.04,411.38L347.04,411.38z M334.24,410.97l-0.58-0.23l0.23-0.7l0.64,0.29L334.24,410.97L334.24,410.97z
		 M352.69,408.81l1.63,0.41l-0.41,0.58l-0.93,0.53l-0.99-0.53l-0.7-0.7L352.69,408.81z M307.92,408.87l0.23,0.7l-0.64,0.58
		l-0.93-0.7l-0.7-1.05l0.53-0.64l0.53,0.7L307.92,408.87L307.92,408.87z M338.91,409.28l-0.82-0.06l-1.4-1.23l0.53-0.82l0.53,0.7
		l0.76,0.06L338.91,409.28z M305.47,403.62l0.18,1.05l0.53,0.18l0.76,0.93l-0.12,0.7l-1.23-0.47l-0.58,0.12l-0.64-1.17l-0.76,0.12
		l0.35-1.05l0.82,0.06L305.47,403.62L305.47,403.62z M346.79,405.08l-0.64,0.53l-1.05-0.99l0.82-0.76l-1.23-1.4l-0.06-0.58
		l1.23-0.29l0.76,0.53l0.35,0.7l0.23,1.52L346.79,405.08L346.79,405.08z M305.82,401.52l-0.76,0.06l-0.23-0.53l0.47-1.4l0.64,0.18
		l0.12,1.46L305.82,401.52L305.82,401.52z M326.01,398.37l0.53,0.99l3.21,1.46l1.63,0.18l0.99,1.52l-0.12,0.35l0.88,2.22l0.64,0.53
		l1.58,0.18l0.23,1.11l-0.53,0.47l-1.11-0.41l-1.23-0.93l-0.23-0.76l-1.28-1.69l-2.1-0.12l-0.88-0.41l-0.35-0.99l-0.88-0.53
		l-1.17-1.11l-0.88-0.64l-1.75-0.64l-0.35-0.41l1.11-0.76l1.23-0.29L326.01,398.37L326.01,398.37z M347.86,394.98l-0.06,0.53
		l1.11,0.88l0.41,0.58l-0.7,1.23l-2.33-0.47l-0.47-0.47l0.93-0.76l-0.53-0.29l-0.7,0.88l-1.28-0.41l-0.53-0.53l0.41-0.82l0.88,0.06
		l0.99-0.47v-0.35l1.34-0.12L347.86,394.98z M300.68,394.05l-0.76,0.18l-0.7-0.47l-0.7-1.11l-1.28-1.28l0.41-0.64l0.93-0.23
		l0.82,0.7l-0.64,0.7l0.47,0.41l0.53,1.4L300.68,394.05z M340.26,389.03l-0.41,0.82l-0.06,0.76l-2.22-0.41l-0.18-1.34l1.28-0.06
		l0.47,0.47l0.58-0.53L340.26,389.03L340.26,389.03z M341.66,385l-0.82,0.23l-0.99-0.76l0.82-0.29L341.66,385L341.66,385z
		 M334.9,383.25l-0.93,0.35l-1.05-0.64l0.64-1.34l0.76,0.06l0.58,0.76V383.25z M342.9,382.08l-0.28-0.4l-1.19-0.69l-2.6-0.35
		l-1.3-0.52l-0.51,0.12l-1.13-0.58l-0.68,0.23l-1.41,0.98l-0.85-0.12l-0.9-0.58l-1.24,0.23l-0.96,1.1l-1.02,0.58l-1.02-0.23h-1.3
		l-0.11,0.64l1.13,1.21l-0.28,0.58l0.28,0.58l1.19,0.06l1.41,0.75l-0.4,0.4l-1.81-0.69l-0.68-0.06l-0.68,0.69l1.98,1.56l0.28,0.81
		l-0.34,0.52l-0.85-0.46l-1.41-1.85l-1.75-0.35l-0.23,0.35l0.68,1.39l1.64,0.98l-0.34,0.35l-1.69-0.58l-0.62-0.92l-0.23-1.15
		l-3.11-1.62l-0.79-1.62l-1.24,0.75l0.23,1.15l-0.34,2.19l0.23,0.75l1.98,2.14l0.73,1.56l1.47,1.21l1.47,1.85l0.4,1.04l-0.73,0.64
		l-0.73-0.29l0.17-1.1l-1.24-0.69l-1.07,0.69l0.85,1.33l0.28,0.69l-0.23,0.75l-0.9,0.46l-1.47,0.06l1.36,0.81l1.86,0.58l0.9,0.64
		l0.85,0.06l0.96,1.21l1.47,0.35l0.96,1.21l1.13,0.29l0.96,0.46l0.56,1.21l0.17,1.67l0.34,1.21l0.06,0.98l-0.62,0.29l-0.73-0.92
		l-2.37-2.08l-0.56-0.23l-0.56,0.4l-1.64,0.29l-1.07,0.75l0.85,0.75l0.06,0.69l0.45,0.87l1.13,0.23l1.13,1.39l-1.69,0.58l-0.62,0.4
		l-0.45-0.29l-0.11-0.69l-2.43-1.27l-0.34,0.35l0.4,1.39l0.73,0.92l1.24,2.48l0.73,2.14l-0.11,1.21l0.56,0.87l0.06,0.87l-0.96-0.69
		l-1.24-1.44l-0.45-0.87l-1.24,0.06l-0.73,1.91l0.11,1.1l-0.9-0.64l-0.11-1.67l-1.19-1.62l-0.51-0.23l-0.73-1.1l-0.85,0.35
		l-0.06,1.67l-0.23,0.58l-1.24-1.1l-1.3-2.02l-0.11-1.04l0.79-0.98l-0.17-0.69l-0.9-1.44l-1.19-0.87l-0.68-0.29l-0.4-0.92
		l-1.13-0.75v-0.13l1.15-0.99l0.58-1.52l1.11,0.29l0.82-0.12l1.17-1.4l0.93,0.06l2.28,1.23l2.45,0.7l1.23,0.58l0.7,0.64l0.93,0.18
		l-0.29-0.82l0.47-0.29h1.23l0.12-0.88l-1.17-0.35l-0.47,0.12l-1.4-0.82l-1.34-0.47l-1.28-0.88l-0.7,0.36h-0.94l-1.92-0.52
		l-1.19,0.4l-2.37,0.4l-0.62-0.75l-1.47,0.58l-0.56-0.4l-1.07-2.43l-0.96-1.1l-0.68-0.29l-0.11-1.1l0.85-0.12l1.36,0.52l0.51-0.35
		l-0.34-0.92l-1.41-0.12l-1.02,0.29l-1.58-1.27l-0.85-0.98l-1.24-0.64l-0.96-1.96l-1.47-1.5l1.53,0.52l0.4-0.4l0.17-0.87l0.51-0.4
		l-0.56-1.27l0.96-0.75l1.07-0.17l0.34-0.29l0.17-1.15l0.68-1.79l0.96-0.46l0.45-1.5l-0.62-1.04v-0.64l2.6-0.17l0.51-0.35l1.3,0.35
		l1.36-0.75l0.96-1.44l0.45-0.17l1.69-0.23l1.86,0.35l1.64-0.58l0.11-1.21l1.13-0.17l1.69,0.12l0.56-0.58l1.36-0.12l1.47,0.12
		l1.69-0.64l1.07-0.12l0.11-0.52l2.37,0.06l0.9-0.29l0.68,0.98l1.36,0.81l0.51-0.35l2.09,0.69l0.96,0.64l1.92-0.52l1.81-0.23
		l1.02,0.17l1.41-0.69l0.11-0.46l-0.51-1.56l-0.4-0.58l0.9-0.64l0.9,0.29l0.68,0.17l1.3,0.87l0.51,1.79l-1.92,1.44l0.28,2.54
		l-1.41,1.85L342.9,382.08L342.9,382.08z"/>
	<path id="HR_00000162315088974893074490000009605582568224334526_" class="st0" d="M272.72,361.65l1.34,0.23l-0.64,0.53
		L272.72,361.65L272.72,361.65z M280.25,362.53l0.93-0.06l0.35,0.53l3.62,2.22l0.99,0.41l0.7,1.11l-2.8-1.81l-2.57-1.46l-1.81-0.41
		l-2.51-1.17l-0.29-0.53L280.25,362.53L280.25,362.53z M276.57,360.48l-0.47,0.06l-3.27-0.06l-0.99-0.18l-0.29-0.76l1.05,0.12
		l0.29,0.35L276.57,360.48z M273.48,359.14l-1.17,0.06l-1.52-0.47l0.18-0.64l2.8,0.35L273.48,359.14z M261.1,349.51l-0.18,0.23
		l-1.93-1.58l-0.18-1.11l1.63,1.58L261.1,349.51z M258.24,345.71l-1.11-0.12l0.47-0.64L258.24,345.71L258.24,345.71z M255.79,346.59
		l-0.53-0.06l-0.99-2.45l0.23-0.7l-0.47-1.17l0.53-0.18l0.29,1.23l0.58,0.53l-0.06,0.93L255.79,346.59L255.79,346.59z
		 M257.95,343.73l-0.88,0.18l-0.58-0.58l-0.76-0.12l-0.58-0.58l0.58-0.41l0.29-0.7L257.95,343.73L257.95,343.73z M287.05,335.09
		l-0.41,0.89l0.95,1.6l0.12,0.95l0.77,0.24l-0.24,1.18l0.71,0.59l1.77,0.59l0.53,0.89l-1.36,0.06l-1,0.24l0.41,1.54l-0.59,0.95
		l-1.3-0.12l-0.77-1.3l-0.65-0.47l-1.3-0.12l-1.54-0.41l-1.06,0.12l-1.06-0.18l-1.3,0.59l-0.95-0.77l-1,0.35l-1.66-0.41l-1.48-0.06
		l-1.6-0.95l-0.89,0.71l-1.89-0.18l-1.6,1.89l-1.06-0.59l-1-1.06l-1.06-0.24l-0.71,0.35l-0.18,2.96l0.06,0.83l1.12,0.77l2.01,1.89
		l0.77,2.36l1.36,1.42l1.66,1.36l1,1.18l2.96,2.42l1.42,0.65l0.24,1.3l0.89,0.95l1.77,1.48l-0.18,0.95l-2.07-1.66l-1.54-0.89
		l-1.83-1.66l-2.25-0.65l-1.6-0.71l-1.95,0.35l-1.06-0.12l-0.41-1.3l-3.43-2.31l-2.54-2.36l-0.47-0.77l1.83-0.71l-0.83-0.47
		l-2.31-2.01l-0.71-0.95l-0.06-2.42l-0.47-1l-1.71-1.3l-0.65-0.65l-1.24-0.41l-0.83,0.53l-0.18,1.12l-1.77,2.96h-0.77l-1.83-2.48
		l-0.3-1.12l-0.77-2.31l0.41-0.3l0.3,0.35l1.95,0.47l0.83-0.77l0.65,0.3l2.13-0.06l0.35-0.18l0.71-1.3l1.54,1.24l0.89,0.41l0.77-0.3
		l1.18,0.41l0.95,0.12l0.71-0.24l-0.47-1.36l0.41-0.41l-0.59-0.65l1.24-0.59l1.24-0.35l0.24-0.65l-0.12-1.3l-0.53-0.53l0.24-0.83
		l2.6-1l0.41-0.59h1.18v-1l0.53-0.47l1.48,0.35l1.71,0.71l1,0.71l0.53,0.77l1.6,1.06l1.3,1.3l0.77,0.41l1.48,0.35l0.77,0.77
		l1.95,0.53l2.9,0.12l1.48-0.53l0.65-0.83L287.05,335.09L287.05,335.09z"/>
	<path id="HU_00000070089700334863501340000012923059192078918808_" class="st0" d="M307.7,312.97h0.88l0.82,1.34l1.28,0.47
		l0.53,0.64l1.34,0.23l0.53,0.41l0.41,0.99l-1.28,1.34l-2.69,0.64l-1.11,1.4l-0.7,0.58l0.06,0.99l-0.82,0.82l-0.41,1.46l-0.82,0.88
		v0.7l-0.93,1.58l0.12,0.76l-1.23,0.88l-0.88,2.74l-0.76,0.53l-1.52-0.18l-1.46,1.17l-0.82-0.29l-1.87,0.53l-0.58-0.29l-1.63-0.18
		l-0.64,0.12l-1.69-0.23l-0.58,0.18l-0.88,0.93l-1.28,0.58l-0.93-0.29l-1.23,0.76l-1.69,0.23l-0.64,0.82l-1.46,0.53l-2.86-0.12
		l-1.93-0.53l-0.76-0.76l-1.46-0.35l-0.76-0.41l-1.28-1.28l-1.58-1.05l-0.53-0.76l-0.99-0.7l-1.69-0.7l-1.11-1.28l-0.82-1.93
		l-1.4-0.06l1.05-0.99l1.46-0.29l0.18-1.05l-0.64-0.93l0.29-0.41l-0.23-0.88l1.28-0.7l0.29-0.82l-0.29-0.64l-1.52-0.41l0.76-0.82
		l1.46,0.53l2.28-0.18l-0.41-1.17l0.35-1.11l0.35-0.41l1.23,0.18l2.45,1.58l0.93,0.41l2.74,0.06l4.09-0.23l0.35-0.58l-0.29-0.76
		l0.23-0.58l0.82-0.41l2.51-0.23l1.4-0.35l0.58-0.88l0.41-0.12l2.04,0.82l2.92-1.46l0.93-2.04l1.05-0.23l1.58,0.06l1.46,0.35
		l2.69-0.41l0.82,0.53l1.28,1.28l0.35,0.12L307.7,312.97L307.7,312.97z"/>
	<path id="IE_00000129186081643073050970000010004688008076986251_" class="st0" d="M108.07,263.12l0.41,0.65l-1.29,0.23l0.88,3.05
		l0.35,0.53v2.31l0.53,1.87l0.06,1.46l-0.76,1.05l-0.53,1.23l-0.12,1.05l-0.93,1.23l-0.88,0.53l0.93,0.88l-1.63,0.47l-1.52-0.18
		l-0.76,0.47l-2.28,0.12l-2.16,0.41l-0.99,1.05l-1.46,0.41l-0.58,0.58L94,282.97l-0.99-0.7l-0.58,0.12l0.12,1.23l-1.69,0.76
		l-1.05,0.18l-0.58,0.41l-3.39,0.82l-1.11-0.29l-1.93,0.47l-0.7-0.06l0.93-1.05l0.93-0.76l-2.22,0.35l-0.82,0.29l-0.35-0.35
		l1.87-1.11l-1.93,0.06l-1.75-0.23l-0.23-0.58l1.69-1.34l1.4-0.53l-0.06-0.53l-2.98,0.06l0.29-0.64l0.99-0.58l1.05-0.06l0.88,0.35
		l0.64-0.47l-0.35-0.99l2.28-1.34l1.75-0.18l1.93-0.41l1.93-0.47l-1.4-0.7l-1.34,1.05l-1.52,0.18l-1.11-0.29h-1.23l1.58-1.17
		l0.93-0.99l-0.47-0.41l1.17-1.34l2.1-0.58l-0.93-0.76l-2.28,0.12l-0.82-0.76l-1.52,0.06l0.23-0.7l-2.04-0.12l0.29-0.58l-0.35-0.64
		l1.63-0.35l-0.12-1.17l1.11-0.47l1.17-0.23l0.06-0.64l-1.17-0.12l-1.17,0.23l0.47-1.23l-0.47-0.58l-0.23-0.99l-0.53-0.58l1.63-0.12
		l0.7-0.29l2.74,0.06l1.11,0.76l0.99-0.7l2.8,0.53l0.35-1.52l2.22-0.88l0.7-1.17l-2.16,0.23l-2.1-0.58l0.41-0.47l1.23-0.41
		l1.11-0.93l-0.18-0.64l0.99-1.58l1.81-0.47h1.34l0.94-0.53l0.7,1.17l-0.59,0.59l0.35,0.53l0.7-0.47l-0.29-1.23l0.53-0.76l1.12-0.18
		l0.35-0.47l1.88,1l-1.47,0.88l-0.29,0.41l-1.12,0.53l-0.59,1.35l-0.7,0.94l-1.29,0.47l-0.94-0.06l-0.12,0.47l0.59,0.82l-1.7,0.53
		l-0.59,0.82l1.59,1.17l0.12,0.59l1.23,0.23l0.47,0.41l1.7,0.18l1.41-1.06l-0.29-0.53l1.12-0.94l0.76,0.29l1.06,1.59l0.82,0.29
		l-0.06,0.88h1.7L108.07,263.12L108.07,263.12z"/>
	<path id="IS_00000034794979313723085890000002748624825992736952_" class="st0" d="M56.03,161.08l0.7,0.06l1.63-0.45l1.28-0.62
		l0.29,0.62l-1.46,1.34l1.28,0.5l1.16,0.17l-0.06,0.95l-0.99,0.9l0.47,0.17l2.04-0.28l0.58,1.29l0.87-0.11l1.4,0.17l0.82,0.67
		l0.7-0.17l0.29,0.5l-0.41,0.67l-0.87,0.34l1.22,1.62v1.3l-0.58,0.41h-0.76l-0.58,1.23l-0.7,0.64l-1.16,0.58l-1.51-0.29l-0.64,0.88
		l0.12,0.82l-0.76,0.76l-3.09,1.23h-1.46l-1.51,0.29l-3.61,1.17L48,180.06l-1.16,0.41l-1.8,0.18l-1.05,0.29l-3.43,0.47l-1.16,0.29
		l-0.7,0.64l-0.29,0.82l-2.33,0.64l-2.21,0.41l-3.73-0.29l-3.14-0.76l-2.62-0.18l-2.21-1.46l-1.69-0.58l-2.1-1.05l-1.34,0.64
		l-7.22,0.18l-0.47-0.29l-0.12-1.23l0.64-0.47l0.76,0.7l2.91-0.64l1.57-1.11l1.46-1.58l-2.04,0.7l-0.12-1.11l-0.52-0.64l-0.99-0.47
		l-0.17-0.47l0.64-0.53l-1.34-0.7l-1.51,0.06l-3.84-0.29l-2.21,0.58l-1.16,0.06l-0.52-0.58v-0.77l0.92-0.18l1.05,0.06l2.39-0.35
		l0.82-0.35l0.47,0.29l2.1-0.64l0.58,0.12l2.33-0.12l2.57-0.06l0.64-0.47l0.23-0.64l-1.63,0.53l-2.16-0.29l-0.35-0.53l2.1-0.93
		l1.58-0.47l-0.47-0.76l-1.87,0.12l-0.41-0.47l-1.52-0.23l-1.05,0.18l-0.53-0.29l-1.4,0.35l-3.04,0.53l-1.93,0.53l-1.81-0.64
		L1,167.1l0.82-0.82l1.17-0.06l0.99,0.47l0.06-1.87l0.7,0.18l1.63,0.64L5.96,164l1.28,0.06l-1.28-0.93l0.29-0.58l0.93-0.18
		l0.47-0.58h1.4l1.34,0.64l0.12,1.12h1.23l0.64-0.77l0.53,0.35l0.29,0.41h0.62l0.23-1.23l-2.1-0.62l-0.17-0.78l2.15-0.06l-0.99-0.62
		l-1.75,0.11l-0.82-0.22l1.51-0.67h1.98l0.82,0.11l1.34,0.95l1.16,0.34l1.81,1.29l1.28,0.5v0.67l0.41,0.45l-1.34,1.9l0.52,0.39
		l-0.47,0.9l1.11,0.34l0.58,0.95l0.52-1.01l0.87-1.06l1.34-0.73l0.52,0.06l0.52,0.56l0.52,0.06l0.82-1.12l0.41-2.41l0.99-0.5
		l1.05,0.39l0.76,0.9l1.51,1.18l1.05-0.28l0.06-1.29l0.58-0.73l1.16-0.17l1.28-0.45l1.34-0.11l0.99,0.78l0.7,0.78l0.99,0.62
		l0.41,1.01l0.52-0.17l-0.12-0.95l-0.82-1.46l0.17-0.5l2.39,0.11l1.75,1.29l0.76-0.17l2.1-1.57l1.34,0.45l1.05,0.06l1.63-0.45
		l0.47-0.67l-0.52-1.29l0.35-0.22l1.51-0.34l1.57,0.06l1.51,1.18l-0.06,0.56L56.03,161.08L56.03,161.08z"/>
	<path id="IT_00000050664401627443275400000002906541702518415507_" class="st0" d="M267.22,405.33l-0.67,1.4l-1.57,2.41l-0.84,2.85
		l0.17,1.12l0.9,0.78l-0.39,0.28l0.9,1.01l0.06,0.73l-1.01,1.06l-0.22,0.95l0.06,0.84l-1.62-0.34l-0.78,0.17l-2.07-0.78l-1.06-1.57
		l-1.68-1.12h-1.68l-0.78-0.28l-1.62-1.06L251.6,413l-1.46-1.18l-0.95-0.22l-0.84-0.56h-1.62l-1.29-0.9l-0.73-1.29l0.73-2.07
		l0.78-0.45l0.5-0.67l1.29,1.29l1.01-0.45l0.78-0.9l1.34,0.06l0.28,0.5l0.78,0.17l1.4,0.9l0.78,0.22l1.9-0.56l1.68,0.22l1.57-0.28
		l0.95-0.34l0.67-0.56l0.78-0.17l1.96,0.17l1.12-0.67l0.45,0.11l1.12-0.67L267.22,405.33L267.22,405.33z M222,380.85l0.41,0.53
		l1.05,2.92l-0.35,0.93l-0.76,1.17l0.47,1.63l-0.35,6.71l-0.35,1.69l-0.53,0.23l-1.69-0.7l-0.88,0.18l-0.7-0.35l-0.18,1.75
		l-1.05,1.23l-1.75-0.12l-0.41-0.35l-1.4-2.22l-0.23-2.51l0.19-0.76v-1.46l0.58-0.05v-0.99l-1.17-0.7v-1.11l0.74-0.82l-0.06-1.52
		l-0.47-0.53l-0.47-1.34l-1.28-1.4l0.06-1.98l1.98,0.35l0.76-0.18l1.81-0.88l1.23-1.46l0.82-0.29l0.88-1.05l0.41,0.53l1.28,0.47
		l0.7,0.88l0.53,0.29l-0.41,0.82L222,380.85L222,380.85z M226.84,362.88l0.18,0.82l-1.46,0.29l-0.64-0.64l1.69-0.12L226.84,362.88
		L226.84,362.88z M249.26,329.95l-0.12,0.52l-1.92,1.33l0.41,0.81l1.33,0.41l-0.93,1.22l0.17,0.58l0.75,0.12l-0.23,1.16l1.1,0.64
		l0.87,0.75l0.12,0.75l-0.87,0.06l0.41-0.35l-1.16-1.28l-1.16,0.52l-1.86-0.52l-1.22,1.16l-0.87,0.23l-0.99,0.64l-1.86,0.7
		l-1.04-0.23l-0.58,0.41l-0.23,1.8l0.46,0.35l0.87,1.51l0.99,0.64l-0.41,1.1l-0.52,0.41l-0.75-0.29l-0.17,0.99l0.52,2.61l0.81,1.86
		l0.7,0.75l1.57,1.28l1.57,0.64l2.96,2.15l1.63,0.64l0.41,0.41l1.04,1.63l0.93,1.86l1.04,2.96l0.75,1.45l1.33,1.68l2.79,2.38
		l2.5,1.68l2.32,1.1l1.74,0.17l4.06-0.23l1.51,0.41l0.23,0.7l-0.23,0.52l-1.68,1.22v1.02l0.89,0.7l4.23,1.87l4.29,1.52l1.31,0.82
		l1.61,1.23l3.81,1.69l0.66,0.82l2.38,1.75l1.07,1.4l0.3,1.05l-0.89,2.57l-0.95-0.29l-1.13-0.76l-1.85-3.15l-2.98-0.29l-1.73-0.76
		l-0.42-0.82l-1.37-0.23l-0.77,0.53l-0.83,1.17l-0.89,1.75l-0.89,2.51v0.99l0.66,0.99l1.73,0.58l1.43,0.88l0.95,0.93l0.18,2.22
		l0.54,1.23l-0.54,0.76l-1.13-0.18l-1.49,0.41l-1.01,0.82l-0.42,0.82l0.3,1.98l-0.18,0.82l-1.97,1.46l-0.95,1.46l-0.6,1.34h-2.92
		l-0.64-0.88l-0.06-1.28l0.35-0.76l0.93-0.41l0.52-1.63l-0.29-1.17l0.64-0.93l1.63-0.41v-1.69l-0.82-0.76l-0.82-2.98l-1.4-2.51
		l-0.82-2.22l-0.64-1.05l-0.82-0.58l-2.16-0.18l-2.68-1.52l-0.17-0.64l0.35-0.64l-0.64-1.63l-1.17-0.99l-1.52,0.35l-0.7-0.06
		l-0.06-0.88l-1.17-0.76l-1.57-0.12l-0.41-0.41l-1.52-2.33l-0.99-0.99l-1.34,0.06l-2.27-0.53l-1.17,0.41l-1.87-1.52l-1.63-0.53
		l-3.32-3.09l-1.05-1.17l-2.04-1.28l-1.34-1.87l-1.05-0.7l-2.33-0.82l-0.17-0.76l-1.81-1.81l-0.99-0.58l-0.76-1.23l-1.46-0.29
		l0.06-1.58l-0.7-2.04l-0.99-1.28l-0.7-3.09l-0.47-0.88l-1.05-0.64l-2.33-0.7l-3.32-1.98l-0.64-0.06l-1.98-0.76l-1.22-0.12
		l-1.52,0.7l-1.81,1.87l-1.46,1.98l-0.52,0.35l-1.98,0.7l-1.75,0.29l-0.12-0.88l1.22-1.52l-0.17-1.17l-1.92,0.35l-2.97-1.4
		l-0.52-0.53l-0.06-0.82l-0.41-0.76l0.82-1.46l0.47-0.41l-0.29-0.99l-1.87-0.82l-0.87-1.81l0.47-0.23l1.11,0.12l0.99-0.76l0.7-0.18
		l0.47-1.46l-1.05-0.93l-0.99-1.52l-0.52-0.35l-0.06-0.93l1.52-0.99l0.82,0.41l1.4-0.29l1.52-0.58l1.81,0.47l1.4-0.82l0.93-1.28
		l-0.35-0.88l1.98-1.69l0.58,0.35l0.12,1.46l1.4,1.17l1.28,0.35l-0.23,0.7l0.76,0.7l0.52,0.82l0.7-0.41l-0.41-0.99l0.12-0.58
		l1.28-1.52l0.29-0.64v-1.55l1.19-0.06l0.48,1.25l1.19,0.48l1.73-0.66l0.42,0.06l0.84,1.13l0.72-0.18l-0.9-2.09l0.36-1.07l0.78-0.18
		l0.6,0.54l1.13,0.12l-0.3-1.07l0.3-1.85l1.79,0.18l0.54,0.48l1.25,0.24l0.66-0.24l0.72-1.31l0.84-0.36l2.03-0.18l1.85,0.12
		l2.81-0.9v1.57l1.8,2.03l0.64,0.29l4.99,0.87l2.32,0.17L249.26,329.95L249.26,329.95z"/>
	<path id="LI_00000124151411020290411110000017196630857650156220_" class="st0" d="M219.14,325.05l-0.7-0.06l-0.06-0.99l0.29-0.88
		l0.64,1.46L219.14,325.05L219.14,325.05z"/>
	<path id="LT_00000139266461911016909260000006674588441210200757_" class="st0" d="M329.06,249.18v0.94l-0.42,1.84l2.32,0.59
		l-0.77,0.59l-0.24,0.65l-2.14-0.06l-0.59,1.19l-0.47,0.36l-1.54,0.36l-0.65,1.78l0.24,1.37l-0.59,0.89l-0.3,1.19l1.13,0.3
		l0.53,0.65v0.48l-1.15,0.12l-0.98-1.32l-0.58,0.4l-1.21,0.29l-0.81,0.69l-1.15-0.12l-0.46,1.5l-1.04-0.06l-1.9,0.75l-0.92-0.52
		l-2.13,0.17l-0.92,0.17l-1.67-0.23l-0.46-1.73l-0.63-0.52l-2.59-1.27l-1.32-0.4l-0.35,0.35l-0.75-1.15v-1.33l0.58-1.79l-0.75-0.75
		l-0.81-0.35l-0.52-0.75l-3.3-0.06l-1.39-0.35l-2.26-0.81l-1.16-0.69l-1.04,0.12l-0.35-0.69l0.12-0.93l-0.64-1.39l-0.93-1.68
		l-0.4-2.2l1.62-0.98l2.08-1.1l2.72-0.81l3.41,0.29l2.49-0.06l0.58,0.52l0.93-0.4l2.83,0.29l1.33,0.06l2.14,0.52l2.66-0.23
		l0.98-0.75l1.33-0.12l1.39,1.68l3.53,0.58l0.52,0.23l3.12,1.79l1.5,1.21l0.87,0.4L329.06,249.18L329.06,249.18z"/>
	<path id="LU_00000008852254838503838270000014544538616535344546_" class="st0" d="M193.29,297.74l0.18,1.28l0.88,0.93l1.63,0.64
		v0.82l-0.53,0.53l-0.35,1.75l-0.76-0.41l-1.17,0.35h-0.82l-1.23-0.7l0.64-0.99l-1.17-1.4l0.12-0.99l0.82-1.46l0.76-0.76
		L193.29,297.74z"/>
	<path id="LV_00000170993208728282484790000005891536087833738641_" class="st0" d="M331.34,233.23l1.11,0.18l0.29,0.64l1.87,0.99
		l0.41,1.28l-0.47,0.93l-0.18,1.81l1.05-0.18l0.58,0.35l0.18,0.7l0.99,1.23l0.76,0.47l1.11,2.45l-0.18,0.99l-0.76,0.12l-0.82,0.47
		l-1.46,1.4l-0.23,0.99l-1.81-0.06l-1.75-0.23l-0.64,0.18l-0.7,0.88l-1.52,0.35l-1.34-0.29l-0.88-0.41l-1.52-1.23l-3.15-1.81
		l-0.53-0.23l-3.56-0.58l-1.4-1.69l-1.34,0.12l-0.99,0.76l-2.69,0.23l-2.16-0.53l-1.34-0.06l-2.86-0.29l-0.93,0.41l-0.58-0.53
		l-2.51,0.06l-3.44-0.29l-2.74,0.82l-2.1,1.11l-1.63,0.99l-0.47-1.63l-0.35-3.21l0.06-1.63l1.11-0.93l0.47-0.7l0.35-2.63l1.46-2.1
		l1.4-0.23l1.81-0.58l2.04-0.53l0.82,1.11l2.86,1.75l0.7,0.58l1.34,1.98l2.57,1.05l1.81-0.35l2.1-1.4l0.58-0.64v-0.64l-0.7-2.74
		l-0.64-1.17l0.06-0.76l4.9-1.63l0.88,0.58l0.64-0.41l3.27,1.46l1.34,0.29l0.35,0.41l2.04,1.58l1.63,0.64l2.33-0.7l1.98,0.58
		L331.34,233.23L331.34,233.23z"/>
	<path id="MD_00000042727926505146221980000016493013623474014374_" class="st0" d="M354.46,339.3l-1.17-1.34l0.53-0.41l-0.82-2.92
		l-0.06-1.52l0.53-2.8l-0.29-1.69l-0.82-1.34l-0.82-1.69l-1.75-1.23l-0.76-0.99l-1.23-1.05l-1.46-1.87l-0.88-0.76l-1.75-2.86
		l-1.46-1.75l-1.46-0.93h-1.23l0.12-0.35l1.34-0.82l0.41,0.12l2.33,0.06l0.7-0.58l0.47,0.18l0.93-0.58l2.04,0.58l2.1,1.4l1.46,0.18
		l0.35,0.7l3.27,0.35l0.82,1.11l0.82,0.58l0.82-0.41l0.82,0.82l0.35,1.34l-0.35,1.81l0.35,0.7l1.34,0.7l1.69,1.17v1.4l0.53,1.11
		l1.17,0.76l1.23,0.47l0.58,0.93l0.12,1.69l1.69,0.99l-0.35,0.41l-1.69,0.23l-0.7-0.76l-0.93,0.35l-1.23-0.47l-1.11-0.12l-1.23-0.58
		l-1.46,0.93l0.29,1.23l0.58,0.99l-0.23,1.17l-1.34,0.99v0.76l-1.46,1.69l0.29,0.82l-0.23,0.58l-1.17,0.12L354.46,339.3
		L354.46,339.3z"/>
	<path id="MK_00000005953647276702655370000010861163226732563122_" class="st0" d="M315.17,367.84l1.93,1.87l1.98,1.05l0.99,1.93
		l0.53,0.58l-0.29,0.99v2.45l-1.17,0.18l-0.12,1.23l-1.69,0.58l-1.93-0.35l-1.75,0.23l-0.47,0.18l-0.99,1.46l-1.4,0.76l-1.34-0.35
		l-0.53,0.35l-2.69,0.18l-0.76-0.64l-0.93,0.12l-0.76-1.4l-0.7-0.64l-0.7-1.28l-0.12-1.11l-0.41-1.17l0.47-0.47l-0.18-1.23
		l0.29-1.52l0.99,0.18l0.29-0.47l0.12-1.52l1.98-0.88l0.58-0.06l0.93,0.7l0.88-1.11l1.23-0.23l1.28-0.18l1.17-0.53l1.11,0.18
		l1.34-0.47L315.17,367.84L315.17,367.84z"/>
	<path id="ME_00000147902073556956364110000004527329502560221371_" class="st0" d="M291.06,356.81l0.23,0.7l1.52,0.99l1.11,1.17
		l1.75,0.93l1.23,0.29l3.09,1.69l0.06,0.58l-0.93,0.23l-0.12,0.41l-1.17,0.23l0.53,0.88l-0.12,0.76l-1.98,0.7l-0.47-1.23l-0.64-0.18
		l-1.87,3.09l-0.47,0.18l-1.46-0.12l0.93,1.11l0.99,0.47l0.18,0.35v1.81l-1.23-0.7l-0.53-1.05l-1.81-1.69l-2.04-1.17l0.06-0.58
		l-0.93,0.06l-0.7-1.11l0.64-0.58l0.06-0.47l-0.64-0.93l-0.35-1.75l0.29-0.41l0.99-0.12l-0.06-0.88l0.29-0.99l1.17-0.99l1.34-0.12
		l-0.82-1.28L291.06,356.81L291.06,356.81z"/>
	<path id="NO_00000150072053201712185550000008686989572939688873_" class="st0" d="M183.3,209.71l0.06,0.99l-0.58-0.06l-0.41-0.64
		l-0.12-1.17l0.41-0.29L183.3,209.71z M182.24,203.24h-1.05l0.18-0.76l0.53-0.18L182.24,203.24z M201.22,184.61l-1.34-0.12
		l-0.58-0.47l1.63-0.47l0.41,0.29L201.22,184.61z M203.32,181.92l-0.18-0.53l1.58-0.35l0.53,0.58L203.32,181.92L203.32,181.92z
		 M219.66,172.06l-2.45,0.18l-0.18-0.64l1.23-0.47h0.7L219.66,172.06z M223.63,166.1l-1.17,0.18l0.06-0.64l1.05-0.18L223.63,166.1
		L223.63,166.1z M226.02,162.78l-0.06-0.64l0.58-0.7l0.58,0.23l-0.18,0.88L226.02,162.78L226.02,162.78z M227.83,148.24l-0.88,0.41
		l0.64-1.52l0.64-0.41l0.23,0.88L227.83,148.24z M232.79,145.21l1.34,0.12l-0.29,0.47l-0.82,0.18l-0.64,0.47l-1.11,0.12l-1.11,0.58
		l-0.93,0.18l-0.23-0.7l0.53-0.58h0.76l0.58-0.7L232.79,145.21L232.79,145.21z M240.03,139.95l1.28,1.23l-0.18,0.88l-0.7,0.41
		l-1.93,0.06l-0.93-0.53l-1.28,0.35l-0.93-0.64l0.93-0.82l1.52,0.23l0.29-0.99l0.99,0.18l0.23-0.88L240.03,139.95L240.03,139.95z
		 M243.71,142.87l0.76-0.64l0.88-0.23l0.35-1.28l1.05-0.29l0.93,0.58l0.53,0.7l-0.12,0.64l-1.81,0.7l-1.46,1.17l-0.93-0.12
		l-0.41,0.41l-1.4,0.35l-0.99-0.53l-0.53,0.53l-0.82,0.23l-0.7-0.23l-1.69,0.88l-1.63,0.18l-0.58-0.64l1.81-1.11l2.98-0.35
		l1.69-1.34l0.23-1.46l0.35-0.53l-0.76-0.35l0.12-0.99l1.4-0.99l0.76-0.82l0.88-0.18l0.53,0.64l-0.64,0.82l-0.93,0.7l0.64,0.88
		l0.35,1.4L243.71,142.87L243.71,142.87z M252.76,134.88l0.82,0.47l0.88-0.18l1.34,0.41l0.58,0.88l-0.7,0.53l0.23,0.99l-2.22,0.29
		l-0.53-0.29l-0.88,0.53l-0.82,0.82l-1.28-0.35l0.12-0.93l-0.18-1.34l0.41-0.29l1.69,0.18L252,135.4L252.76,134.88L252.76,134.88z
		 M325.14,133.36l-1.05,0.23l0.12-1.05L325.14,133.36L325.14,133.36z M271.2,131.14l-0.76,0.23l-1.05-0.18l-0.41-0.58l1.28-0.58
		l0.99,0.18L271.2,131.14L271.2,131.14z M262.39,131.5l0.58,0.41l0.88-0.29l0.64,0.58l-0.82,0.47l-0.47,0.7l-1.17,0.06l-1.69,1.34
		l-0.06,0.47l-2.92,0.29l-0.88-0.18l0.99-1.58h0.99l0.99-0.47l-0.18-0.47l1.46-1.17l0.35-0.99l0.82-0.58
		C261.92,130.1,262.39,131.5,262.39,131.5z M265.19,130.27l0.82-0.01l0.76,1.17h-1.34l-1.17-1.17H265.19z M286.96,127.64l0.29,0.64
		l-1.93,1.23l-0.93,0.06l-1.23-0.7l0.06-0.47l1.11-0.53l0.53,0.06l1.58-0.82L286.96,127.64L286.96,127.64z M289.24,127.46
		l-1.05,0.29l-0.99-0.53l-0.12-0.93l0.47-0.18l1.87,0.7C289.41,126.82,289.24,127.46,289.24,127.46z M285.56,125.6l-0.24,0.48
		l-1.62,1.26l-1.32,0.42l-1.08-0.18l-0.48,0.36h-1.11l-1.17-0.41l-1.17-0.7l2.04-0.06l0.35,0.01h0.88l1.63-0.53l0.64,0.18l1.23-0.81
		H285.56L285.56,125.6z M320.71,139.49l-0.98-0.78v-0.67l1.87-1.69l0.41-0.58l-1.52-1.58l-2.1-0.47l-2.45-0.64l-2.45-1.17l-1.05-0.7
		l-1.69,0.18l-2.04,0.93l-0.53,0.12l-2.22-0.23l-1.23,0.12l-0.99,1.05l-1.52,0.99l-0.41,2.22l-0.35,0.99l0.41,1.87l-0.88,0.82
		l-1.23,0.18l-0.93,0.76l-0.29,0.99l-0.76,0.35l-1.52-0.47l-2.28-0.47l-2.1-0.64l-0.88-0.06l-0.7,0.7l-2.16,0.53l-1.05,0.06
		l-0.47-0.29l-4.03-0.35l-0.82-1.05l-4.61-3.21h-1.94l-1.11,0.75l0.58,0.82l-0.29,0.35l-1.11-0.17h-1.23l-0.29,0.17l-2.98,0.12
		l1.52,0.93l0.06,1.17l-0.82,1.11l-0.93,0.53l1.69,0.53l-1.46,0.93l-0.58-0.06l-5.02-0.99l-1.69-0.06l-2.39-0.53l-1.33,0.29v0.47
		l0.57,2.1l-1.23,1.81l-3.68-1.05l-0.88,0.53l-2.16,1.11l-0.88,2.04l-0.64,0.64l-1.58,0.35l-0.29,0.64l1.58,1.34l0.58,0.76
		l-0.12,0.82l-0.88,0.58l-1.93,1.69l-1.75,1.69l-0.76,0.53l0.58,1.46l-1.93,0.88l-1.4,0.29l-2.22,0.23l0.82,2.28l-0.35,1.58
		l-0.06,2.74l-1.93,2.92l-2.57,2.92l2.74,0.93l0.64,1.69l0.06,0.7l-0.99,1.28l-4.14-0.53l-1.93,0.23l-1.93,0.88l-2.04,2.22
		l-0.7,0.58l0.29,0.88l-1.17,1.63l1.58,2.39l-0.64,0.64l0.35,1.63l-0.06,1.05l1.24,2.57v0.55l-0.53,3.75l2.22,1.23l0.7,0.23
		l1.98,1.58l-0.23,1.11l-0.76,1.47h-1.4l-1.05,0.35l0.18,0.94l1.81,2.87l0.29,0.82l-0.35,1.23l-0.06,1.64l-1.11,1.17l-0.76,0.47
		l-1.52,0.41l-0.53,1.41l-0.88,0.88l0.93,2.58l-0.35,2.29l-0.41,0.82l-1.11,0.12l-0.58-1.06l-0.23-0.59l-3.5-0.7l-1.34-1.7
		l-0.23-1.82l-1.46,0.7l0.35,0.65v1.35l-1.46,2.29l-0.64-0.12l-0.76,0.47l-0.76,0.12l-0.35-0.59l-0.64,0.12l-0.47,0.59l-1.98,0.76
		l0.58,0.41l-0.99,0.59l-0.35,0.53l-1.58,0.88l-2.51,2.29l-1.34,0.65l-0.93,0.7h-0.62l-1.05,0.53l-2.67,0.53l-1.8-0.24l-1.22,0.24
		l-0.64-0.41v-0.65l-0.7-0.06l-0.46,0.71l-0.93-0.24l0.41-1.42l-1.8-0.06l-2.21-0.95l-0.52-0.47l-1.8-0.77l-0.81-0.83l-0.46-0.95
		l0.17-2.13l0.35-0.3l1.57,0.47l1.63,0.77l-0.06-0.71l-1.39-0.95l0.46-1.06l-0.12-0.95l1.51-1.24l-0.23-0.41l-1.98,1.18l-1.8,0.53
		l-0.64,0.71l-0.64,0.35h-1.22l-0.29-0.53l0.29-1.95l0.7-1.6l1.05-0.59l1.98,0.41l0.58-0.59l0.76-0.12l1.39-0.71l-2.38,0.3
		l-0.7-0.59l1.63-1.42l0.7-0.83l0.17-0.89l1.28-1.01l1.05-0.47l0.93,0.35l0.87-1.12l-2.9,0.65l-1.16,0.65l-1.57,1.66l-0.12,0.65
		l-1.16,0.53l-0.87,0.89l-0.35,0.71l-1.63,1.12l-0.81,0.18v-1.19l0.64-1.16l-0.17-0.93l1.86,0.12l1.04-0.69h-1.57l-0.81-0.41
		l-0.7-0.87l-0.35-1.1l0.64-1.04l-1.28-1.16l-0.29-1.27l-0.06-1.45l0.52-0.29l1.22,0.23l1.39-0.12l3.02-0.52l1.97,0.35l0.81-0.06
		l1.16-0.41l1.1-0.06l1.28,0.69l0.41-0.29l3.13-0.69l-1.74-0.87l0.06,0.81l-2.09,0.17l-1.86-0.35l-0.75-0.35l-0.29,0.75l-0.64,0.17
		l-1.97-0.29l-2.73,0.17l-1.22,0.41l-0.81-0.06l-1.45-0.69l-0.52-0.52l-0.17-1.51l1.63-0.17l-1.1-1.33l-1.1-0.75l-0.12-0.81
		l0.41-0.75l0.87,0.12l2.21-0.06l3.48,0.87l2.84-0.17l-0.46-0.35h-1.68l-4.18-0.75l-1.28,0.06l-0.7-0.17l-0.41-0.58l0.23-1.1
		l0.64-0.23l0.7,0.35l1.1-1.33l1.1-0.58l1.16-0.29l1.16,0.58l0.75-0.06l2.32-0.46l-0.75-0.29l-2.03,0.29l-0.12-0.29l1.39-1.33
		l2.44-0.23l3.42,0.29l1.33,0.46l0.23-1.04l3.08-0.81l-3.95,0.46l-1.04-0.29l-2.84,0.41l-0.06-0.75l1.33-1.33l2.38-0.52l1.1-0.64
		l1.8-0.12l1.51,0.17l0.7,0.75l2.55,0.98l-2.96-2.32l0.64-0.98l1.92-0.23v-0.98l-1.17-0.18v-0.7l1.04-0.53l1.63-0.41l1.87,0.47
		l-0.35,0.76l0.53,0.29l0.99-0.88l2.28-0.47l1.63,1.23l0.29,0.64l0.64-0.29l1.58-0.29l1.58,0.18l1.05-0.12l-0.58-0.76l0.23-0.58
		l1.4-0.58l0.99-0.18l1.52-0.7l-0.47-0.58l-0.82-0.18l1.69-0.88l-0.99-0.35l-1.4,0.53l-0.93,0.53l0.88,0.58l-0.64,0.64l-3.56,1.63
		l-1.75,0.47l-0.82-0.06l-1.11-1.46l-1.23-0.06l0.76-1.28l0.93-0.47l0.82-1.34l1.34-0.76l1.87-1.93l1.63-0.64l0.53-0.64l1.75-0.88
		l1.75-0.53l0.18-0.58l-1.58,0.53l0.23-1.23l0.82-0.58l3.97-1.63l0.93,0.76l1.23-0.12l1.34-0.93l-0.18-0.41l-1.23,1h-0.88
		l-0.23-0.77l-1.23-0.29l-0.18-0.7l0.76-1.63l1.98-1.93l0.29-0.76l0.76-0.41l0.99,0.12l-0.12-0.64l-1.23-0.64l3.62-0.52h1.74
		l1.42-0.53l0.3-0.59l-3.79,0.65l-1.42,0.06l-0.47-1.6l0.12-0.89l1.13-1.3l0.83-0.12l1.01-0.65l0.06-0.89l1.36-0.47l1.24-1.24
		l1.36-0.3l0.83,0.12l1.78-0.41l3.7-0.06l0.06-0.34l-3.57-0.17l-1.98,0.11l-0.23-0.34l1.59-1.53l1.13-0.57l0.96,0.11l1.02,0.57
		l0.34-0.45l-0.91-0.85l0.4-0.85l-1.47,0.62l-1.02,0.17l-0.51-1.13l1.3-1.13h1.1l0.18-0.91l2.01-0.79l1.16-0.12l0.91-0.37l0.37,0.24
		l0.55,1.4l0.91,0.18l0.61-0.49l-0.79-0.67l-0.67-1.1l1.22-0.91l1.4-0.12l1.59,0.43l1.4-0.12l0.55-0.73l-3.88-0.06l-0.46-0.52
		l0.7-0.7l1.28-0.46l1.45-0.06l1.39-0.81l0.52-0.64l0.17-0.93l0.81-0.75l2.26-0.46l-0.35-1.28l0.46-0.81l0.58-0.35l1.22,0.87
		l1.04,0.29l-0.29-0.81l0.17-0.7h1.64l0.58-0.3l0.17-0.78l0.81-0.72l2.72-0.42l0.29,1.5l0.4,0.84l0.46-1.68l0.93-1.26l1.39-0.54
		l0.52,0.66l-0.23,2.58l-1.1,1.44l0.87-0.12l1.45-1.38l0.35-0.72l-0.4-1.68l0.35-0.48l2.02-0.06l1.1,0.24l0.4-0.9l0.98-0.06
		l1.04,0.54l2.37,0.84l-0.75-1.32l-0.58-0.48l-1.21-0.3l-1.27-0.6l0.69-0.6l1.39,0.18l1.16-0.48l1.27-0.12l0.64,0.36l0.46-0.6
		l1.45-0.3l1.62,0.54l0.93,1.62l1.39,0.84l-0.06-0.84l0.35-1.14l1.33-1.2l1.21-0.6l0.81-0.06l1.68-2.04l-0.93-0.6l1.91-1.38
		l0.64-0.06l3.12,1.26l0.87-0.54l1.97,0.48l-0.46,0.6l-1.79,1.74l-0.29,0.48l-0.06,1.32l-0.69,0.84l0.46,0.84l0.93-0.24l1.04-0.78
		l0.06-0.78l2.49-2.22l1.1-1.26l1.33-1.02l0.87-0.18l0.52,0.66l-0.12,0.9l0.12,2.58l2.14-0.84l0.64-1.8l0.64-0.42l-0.46-0.84
		l0.23-0.66l1.33-0.78l1.27,0.24l1.91,0.18l1.56,0.48l0.12,0.84l-0.46,0.54l-1.68,0.66l0.4,0.42l1.16-0.36l0.52,3.3l0.52-1.26
		l0.58-0.42l0.06-0.9l0.46-1.14l1.04-0.78h1.56l1.91,1.02l1.45,0.18l1.04,0.48l1.39-0.42l1.16,0.6l0.06,0.6l2.2,0.18l2.2,0.96
		l0.35,0.96l-2.55,0.6l-1.04,0.6l-1.91,0.24l-6.65-0.42l0.23,0.42l4.8,0.9l0.35,0.3l0.23,1.26l1.04,0.42l2.02-0.12V133l1.85,0.36
		l2.2,0.12l0.64,1.02l-0.17,0.9l-1.39,0.06l-2.43-0.84l-0.23,1.38l-0.64,0.54l-3.36,0.78l-0.64,1.56L320.71,139.49L320.71,139.49z
		 M297.24,123.14l2.16,0.29l1.28,0.82l-2.1,0.29l-0.99-0.06l-1.17-1.05L297.24,123.14L297.24,123.14z M99.01,125.42l-0.06-0.58
		l2.63-0.88l1.11-0.82l1.98-0.29l-0.12,1.05l-1.75,0.47l-1.93,0.29L99.01,125.42L99.01,125.42z M256.14,99.15l-0.58,0.29l-1.11-0.47
		l-0.47-0.7l1.75-0.06L256.14,99.15z M261.76,69.62l2.28,0.12l1.17,1.11l0.82,1.17l0.76,0.12l2.74-0.23l1.98,0.41l-0.82,0.64v0.7
		l3.21,0.76l1.05,0.06l1.75-0.23l3.79,0.99l-3.85,0.64l-1.17,1.11l-2.16,0.76h-1.52l-1.34,0.76l-1.28,0.06l-0.88-1.11l1.28-0.76
		l-1.81-0.23l-0.7,0.29l-6.13,0.58l-0.64-0.12l-0.53-0.7l1.63-0.35l0.12-0.64l1.46-1.4l-3.21-0.93l-1.17-0.7l-0.47-0.58l-1.46-0.53
		v-0.58l-0.99,0.06l-0.23-0.7L261.76,69.62L261.76,69.62z M288.71,69.56h-0.76l-1.52-0.47l0.41-0.58L288.71,69.56L288.71,69.56z
		 M208.39,69.79l2.04,0.88l1.11,0.29l1.34,0.88l-0.41,0.53l-1.17-0.7l-2.1-0.76l-1.34-0.12l-1.93-1.46l-0.88-0.47l-0.47-0.99
		l2.1,0.41l0.93,0.58l-0.18,0.47L208.39,69.79L208.39,69.79z M299.22,67.81l1.58,0.06l-0.06,0.35l-4.26-0.23l-2.22,0.41l0.23-0.53
		l1.4-0.35l2.16-0.06L299.22,67.81L299.22,67.81z M235.07,61.5l0.82-0.35l3.15,0.47l1.46,0.53l0.76,0.58l-1.11,1.11l0.99,0.58
		l1.87-0.99l1.58,0.18l0.99,0.53l0.58,0.64l-0.12,0.82l1.81,0.64l1.98-0.12l1.4,0.18l0.88,0.58l1.11-0.12l0.12-0.47l1.52,0.12
		l1.75,0.47l-1.23,0.53l1.23,0.47l1.98,0.35l1.23,0.35l-0.88,1h-1.87l-1.69-0.01l-3.15,0.18l-1.75,0.93l-1.46,1.05l-0.23,0.93
		l0.35,0.64l-0.88,0.29l-1.93,0.12l0.12,2.28l-0.47,1.11l-1.93,0.18l-1.05,0.64l-0.7,1.23l-1.23,1.17l0.58,0.58l-1.23,1.11l0.7,1.05
		l-0.58,0.35l-1.23,0.18l-1.28-0.18l-1.34-0.64l-3.91-1.28l-2.51-1.4l-3.5-0.76l-1.93-0.93l-0.88-0.76l0.18-0.82l1.63-0.12
		l1.69,0.41l0.99-1.11l6.6-0.64l4.26-0.12l-1.11-0.76l-4.03,0.41l-2.51-0.12l-1.23,0.06l-1.23,0.35l-2.51,0.29l-2.69-0.06
		l-1.69-0.58l-0.76-1.17l0.7-0.35l2.22,0.06l3.74-0.53l1.75-0.47l1.81-0.06l-0.29-0.47l1.05-0.23l1.4-0.12l3.27,0.06l0.12-0.35
		l-1.52-0.35l-0.53-0.35l1.52-1.05l-1.28,0.06l-1.75,0.76l-1.05,0.29l-2.69,0.18l-0.99-0.93l0.53-0.7l-0.47-0.41l-0.76,0.76
		l-1.23,0.18l-1.17-0.53l-1.11,0.29l0.41,0.58l-0.35,0.58l1.17,0.53l-1.34,0.35l-1.23,0.64l-2.28,0.12l-2.63,0.06l-2.69-0.93
		l-1.28-0.7l-1.05-0.7l-1.58-0.35l-0.99-0.47l-0.23-0.64l-0.82-0.41l-0.41-0.81h2.57l-0.99-0.94l0.29-0.93l-1.98,0.06l0.23,0.53
		l-1.28,0.58l-0.7-0.12l-1.34-1.11l-1.4-1.4l0.23-0.76l-0.7-0.58l0.88-0.41l1.46,0.53l0.47-0.41l2.22-0.23l2.69,0.64l0.23-0.64
		l2.45,0.29l1.75-0.35l2.92-0.18l1.17,0.23l-0.58,0.64l-3.68,0.18l-2.33,0.76l3.33-0.12l0.58,0.06l0.35,0.64l1.75,0.29l1.34,0.58
		l0.47-0.29l-0.35-1.28l2.57-1.34l1.23,0.23l1.23,0.53l2.33,1.75l1.34,1.11l3.56,1.63l-0.41-0.88l-2.45-2.63l-0.53-0.99l0.53-0.99
		l0.64-0.29l-0.23-0.76l0.76-0.29l1.4,0.18C233.55,60.74,235.07,61.5,235.07,61.5z M313.7,60.16l-4.67,0.23l-0.53-0.18l9.16-0.82
		l0.99,0.29L313.7,60.16z M244.29,59.05l-1.05,0.35l-1.87-0.29l0.53-0.41L244.29,59.05z M255.15,59.34l3.27,0.06l0.88,0.53
		l3.21,0.64l0.47-0.88l-0.35-1.28l1.11-0.06l0.99-0.35l1.81,0.18l0.12,0.76l-0.29,0.82l1.23,0.06l1.63-0.18l1.11-0.64l1.4,0.06
		l0.76-0.35l0.82,0.35l4.79,0.41l1.93,0.77h2.54l2.03,0.11l1.54,0.55l0.6,0.93l-0.49,0.22l-3.68,1.1l-0.88,0.38l-1.32,1.26
		l-2.25,0.38L276.19,65l-1.65,0.38l-1.04,0.55l-0.82,0.11l-5.05-0.22l-1.21-0.6l0.66-0.49l-4.5,0.16h-6.13l-0.58-0.47l-3.27-0.29
		l-2.45-0.64l0.64-0.34h3.39l-0.41-0.82l-1.69-0.06l-1.05,0.23l-2.51,0.12l-2.33-0.06l-1.11-0.18l-2.22-0.58l-0.41-0.47l1.63-0.23
		l1.23-0.41l-2.63-0.18l-1.11-0.18l-0.35-0.53l3.44-0.12l2.92,0.47l-0.41-1.28l2.28,0.64l0.12-0.64l-1.17-0.82l1.17-0.06l2.63,0.41
		L255.15,59.34L255.15,59.34z"/>
	<path id="PL_00000002369123816530699350000016210958922322242742_" class="st0" d="M305.18,261.02l0.35-0.82l1.34,0.41l2.63,1.28
		l0.64,0.53l0.47,1.75l1.23,2.98l1.69,2.86l0.99,2.1l0.53,2.28l-0.35,0.93l-2.33,0.99l-0.47,0.29l-1.5,1.58v0.7l2.26,0.76l1.05,0.58
		l0.47,0.58l-0.12,1.4l0.23,0.64l-0.47,0.88l0.06,0.76l0.58,0.93l0.6,1.05v0.76l1.68,1.63l1.11,1.63l0.82,0.58l-0.7,0.76l1.05,1.52
		l0.06,0.76l-0.7,1.05l-1.75,0.29l-2.8,2.69l-1.4,1.58l-1.98,2.57l-0.35,0.58l0.88,2.22l-0.06,1.05l1.11,0.82l-0.23,0.53l-1.93-0.41
		l-0.53-0.12l-3.33-1.11l-0.47-0.82l-0.58-0.41l-1.81-0.58l-2.1-0.18l-1.87,0.12l-0.82,0.88l-1.05-0.06l-1.4-0.58l-1.75,0.06
		l-1.34,0.58l-0.64,1.23l-0.99-0.35l-0.82,0.23l-0.35-1.58l-0.82-0.23l-1.75-1.75l-1.28,0.76l-0.58,1.06h-1.34l-0.29-0.85
		l-0.75-0.11l-0.29-0.9l-1.61-1.24l-0.29-1.02l-1.56-0.45l-0.29,0.11l-2.02-1.02l-1.04,0.56l-0.58-0.34l-1.56-1.3l0.81-0.28v-0.9
		l-2.07,0.4l-1.9-1.07l-1.27-0.34h-0.75l0.98,1.36l-2.02,1.41l-0.58-0.23l-0.86-1.07l-1.15-1.02l-0.92-0.51l0.92-0.68l0.4-0.62
		l-1.04-0.68l-1.84,0.4l-0.46-0.51l-1.56-0.62l-2.65-0.62l-0.58-0.62l-0.17-0.62l-1.9-0.45l0.06,1.07l-1.21,0.23l0.92-2.03l0.23-1.3
		l-0.92-1.81l-1.27-0.51v-1.6l-1.47-1.81l0.47-0.64l0.41-1.52l-0.47-1.11l-1.17-1.34l0.35-1.52l-0.82-0.99l-1.93-1.23l-0.93-0.82
		l0.41-0.93l1.11-1.05l0.18-1.58l-1.05-2.39l-0.41-1.52l1.63,0.53l0.41-0.29l-0.06-1.05l-2.39-0.41l-0.06-0.7l1.17,0.23l2.22-0.82
		l3.79-1.05l4.03-0.99l1.93-0.29l1.17-1.28l1.11-0.99l2.22-0.41l0.76-0.47l1.63-0.7l3.85-0.7l3.21-0.23l3.15,1.34l-0.53,0.18
		l-1.75-0.7l1.28,2.04l0.64,0.7l1.17,0.53l0.99,0.18l2.86-0.29l1.28-0.64l0.29,0.06l3.85,0.23l13.37,0.47L305.18,261.02
		L305.18,261.02z"/>
	<path id="PT_00000004529273071309674590000004095322899346623163_" class="st0" d="M94.68,414.71l-0.7,0.12l-2.64,1.47h-0.85
		l-1.46-0.77l-2.63-0.23l-0.88-0.18l-1.05,0.01H83.6l-0.64,0.99l-0.47-0.18l0.58-1.23l0.83-2.39v-1.52l0.34-1.28l-0.18-1.23
		l-0.41-0.82l0.83-2.04v-1.05l-0.72-1.34l1.63,0.18l-0.99-0.93h-1.17l-1.32,0.53l-0.86,0.06l0.06-0.82L80.84,401l1.14-0.35
		l0.92-0.99l-0.17-0.93l-0.69,0.64l-0.34,0.82l-1.6,0.41l-0.86-0.29v-1.11l0.34-0.99l0.23-1.34l0.46-1.28l-0.11-0.82l0.92-0.76
		l0.8-1.11l2.46-5.2l-0.34-0.58l0.97-3.85l0.69-1.34l0.34-2.51l-0.11-1.17l-0.4-1.17l-0.4-2.51v-0.93l-0.54-1.05l0.06-0.58
		l0.85-0.99l0.72-0.64l1.15-0.53l2.48-0.58l0.6,1.05l-0.78,1.11l0.54,0.76l1.81-0.64l1.75-0.06l1.33,0.47h0.85l1.51-0.53l0.48-0.82
		l0.91,0.29l3.14,0.06l0.42,0.64l0.06,1.81l1.15,0.12l1.15,0.53l0.18,0.64l-1.51,1.46l-1.27,0.64l-0.97,0.82l-0.66,0.93l-1.21,0.93
		l0.48,1.17l0.24,2.04l-0.24,2.22l0.24,0.64l-1.63,1.23l-0.12,0.58l0.85,0.76v1.33l-1,2.05l-0.59,0.29h-2.52l-0.65,0.18l0.65,1.11
		l0.82,0.7l0.18,1.11l0.94,1.88l1,0.23l0.29,0.47l-0.35,1.41l-1.88,1.76l-0.53,2.35l1.76,2.52l1-0.12l-0.41,1.41l-1.23,0.35
		l-2.05,2.52l-0.47,1.29L94.68,414.71L94.68,414.71z"/>
	<path id="RO_00000143595662838721230660000003842449492921079995_" class="st0" d="M354.98,339.48l0.88,0.94l1.06,0.53l2.35,0.53
		l0.35-0.71l0.53,0.18l0.94-0.29l1.29-0.76l1.29-0.12l1.29,0.41l1.12,1.06l-0.12,2.53l-0.41,1.23l-3.65,0.76l0.24-0.35l-0.41-1.18
		l-0.59-0.59l-0.53,0.65l0.35,1l-0.41,0.82l-0.12,1.41l0.35,0.53l-0.94,1.18l-0.29,0.76l0.47,2.82L359.8,355h-1.18l-1.53-0.29
		l-1.29-0.41l-1.47-1.53l-1,0.29l-0.53-0.35l-1.88-0.24l-2.65-1.35l-1.7,0.24l-2.59,0.53l-1.88,0.71l-1.94,1.23l-0.71,0.94
		l-0.94,0.53l-1.35,0.35l-2.47-0.12l-5.53-1l-1.47,0.29l-2.06-0.24l-3.12-0.59l-2.29-0.18l-2.18,0.35l-0.53-1.06l1.06-1.18
		l-2.53-1.47l-0.47-0.71l-0.94-0.53l-0.29-1l1.47-1.06l-1.76-0.94l-1,0.29l-1,1.06l-0.76,0.12l-0.59-0.71l-0.88-0.41l-2.06-0.41
		l-0.88-0.71l-1.23-0.35l0.12-0.35l1.06-0.47l-1.35-0.65l0.88-1.18l-0.53-0.65l-1.53-0.47l-2.23-1.12l-1.29-1.06l-0.24-2.41
		l-0.47,0.12l-1.06-1.18l-1.7-1l-1-1.18l1.88-0.53l0.82,0.29l1.47-1.18l1.53,0.18l0.76-0.53l0.88-2.76l1.23-0.88l-0.12-0.76
		l0.94-1.59v-0.61l0.74-0.88l0.41-1.46l0.82-0.82l-0.06-0.99l0.7-0.58l1.11-1.4l2.69-0.64l1.28-1.34l1.23-0.53l0.53-0.64h0.41
		l1.58,0.81l1.58-0.06l4.03,0.82l2.1-0.41l0.7,0.18l2.51,1.93l1.23-0.29l0.58-0.7l1.98-0.76l4.9-0.7l0.64-1.11l0.12-0.82l2.16-0.64
		h1.55l1.47,0.94l1.47,1.76l1.76,2.88l0.88,0.76l1.47,1.88l1.23,1.06l0.76,1l1.76,1.23l0.82,1.7l0.82,1.35l0.29,1.7l-0.53,2.82
		l0.06,1.53l0.82,2.94l-0.53,0.41L354.98,339.48L354.98,339.48z"/>
	<path id="RS_00000023266962285971107980000003376765872953670537_" class="st0" d="M296.59,333.69l0.98,1.16l1.68,0.98l1.04,1.16
		l0.46-0.12l0.23,2.37l1.27,1.04l2.2,1.1l1.51,0.46l0.52,0.64l-0.87,1.16l1.33,0.64l-1.04,0.46l-0.12,0.35l1.22,0.35l0.87,0.69
		l2.03,0.41l0.87,0.41l0.58,0.69l0.75-0.12l0.98-1.04l0.98-0.29l1.74,0.93l-1.45,1.04l0.29,0.98l0.93,0.52l0.46,0.69l-0.52,0.41
		l-0.12,1.1l-1.22,0.58l-0.23,1.33l0.35,1.39l1.39,2.26l1.68,0.87l0.75,0.93l0.93,0.58l-0.17,0.81l-0.93,0.98l-0.64,0.93l-1.04,0.06
		l-0.64,0.35v2.08l0.79,1.64l-0.62,0.96l-0.57,0.17l-0.79-0.4l-1.3,0.45l-1.08-0.17l-1.13,0.51l-1.25,0.17l-0.34-0.74l0.57-0.51
		l0.68-1.81l0.11-0.68l-2.66-0.68v-0.79l-1.31-0.71l-0.12-0.42l-1.37-1.25L303.6,360l-0.65-0.77l-1.01,0.53l0.36,0.95l-0.24,0.59
		l-1.01,0.77v0.68l-0.87,0.29l-0.06-0.58l-3.07-1.68l-1.22-0.29l-1.74-0.93l-1.1-1.16l-1.51-0.98l-0.23-0.69l0.41-0.46l1.45,0.17
		l0.12-1.27l-1.85-2.14l0.29-0.46l1.8,0.06l0.17-0.46l-1.91-1.68l-1.39-0.69l-0.29-0.46l0.06-1.51l0.93-1.56l0.29-1.45l-0.87-0.46
		l-1.62,0.41l0.58-0.93l-0.41-1.51l0.98-0.23l1.33-0.06l-0.52-0.87l-1.74-0.58l-0.69-0.58l0.23-1.16l-0.75-0.23l-0.12-0.93
		l-0.93-1.56l0.41-0.87l1.22-0.75l0.93,0.29l1.27-0.58l0.87-0.93l0.58-0.17l1.68,0.23l0.64-0.12l1.62,0.17L296.59,333.69
		L296.59,333.69z"/>
	<path id="SK_00000114036033733649368260000012228820805163849660_" class="st0" d="M309.85,307.14l-0.88,1.75l-0.47,1.69
		l-0.93,0.99l0.06,1.46l-2.51,0.64l-0.35-0.12l-1.28-1.28l-0.82-0.53l-2.69,0.41l-1.46-0.35l-1.58-0.06l-1.05,0.23l-0.93,2.04
		l-2.92,1.46l-2.04-0.82l-0.41,0.12l-0.58,0.88l-1.4,0.35l-2.51,0.23l-0.82,0.41l-0.23,0.58l0.29,0.76l-0.35,0.58l-4.09,0.23
		l-2.74-0.06l-0.93-0.41l-2.45-1.58l-1.23-0.18l-1.34-1.69l-0.93-1.69l-0.06-0.47l0.53-1.4l0.64-1.63l0.82-0.7l2.1,0.29l0.99-0.12
		l0.88-0.41l1.23-1.11l0.93-0.47l0.41-1.75l1.34-0.7l0.35-0.47l1.17-0.88l1.63-0.18l0.76,0.12l0.29,0.88h1.28l0.58-0.99l1.28-0.76
		l1.75,1.75l0.82,0.23l0.35,1.58l0.82-0.23l0.99,0.35l0.64-1.23l1.34-0.58l1.75-0.06l1.4,0.58l1.05,0.06l0.82-0.88l1.87-0.12
		l2.1,0.18l1.81,0.58l0.58,0.41l0.47,0.82l3.33,1.11L309.85,307.14L309.85,307.14z"/>
	<path id="SI_00000052106121972455361110000016591218297321537695_" class="st0" d="M269.18,329.96l-1.46-0.35l-0.53,0.47v0.99
		h-1.17l-0.41,0.58l-2.57,0.99l-0.23,0.82l0.53,0.53l0.12,1.28l-0.23,0.64l-1.23,0.35l-1.23,0.58l0.58,0.64l-0.41,0.41l0.47,1.34
		l-0.7,0.23l-0.93-0.12l-1.17-0.41l-0.76,0.29l-0.88-0.41l-1.52-1.23l-0.7,1.28l-0.35,0.18l-2.1,0.06l-0.64-0.29l-0.82,0.76
		l-1.93-0.47l-0.29-0.35l0.99-0.64l0.88-0.06l-0.12-0.76l-0.88-0.76l-1.11-0.64l0.23-1.17l-0.76-0.12l-0.18-0.58l0.93-1.23
		l-1.34-0.41l-0.41-0.82l1.93-1.34l0.12-0.53l2.92,0.53l2.92,0.41l1.75-0.7l0.58-0.76l1.11-0.41l1.52-0.12l1.63,0.12l1.34-0.64
		l0.93-0.12l1.4,0.29l0.06-1.11l0.76-0.53l1.4,0.06l0.82,1.93L269.18,329.96L269.18,329.96z"/>
	<path id="SE_00000002352952934714933200000007449574808386090648_" class="st0" d="M260.99,243.86l-0.88-0.18l-0.18-2.22l1.17-2.69
		l0.58-0.18l1.58-3.79l0.29,1.17l-0.88,1.87l-0.18,1.28l-0.35,0.29L260.99,243.86L260.99,243.86z M276.28,230.61l-0.76,0.82
		l-0.82,0.29l0.06,1.93l0.88,0.7l-0.76,0.29l-0.41,1.05l-1.05,0.35l-0.88,0.93l-0.18,0.93l-1.23,0.53l0.7-1.4l-0.53-0.41l-0.82-1.23
		l0.23-0.53l-0.35-1.87l1.58-1.69l0.76-0.64l1.93-0.58h0.76L276.28,230.61L276.28,230.61z M297.92,164.71l-1.59,0.18l-1.29-0.35
		l-0.59,0.18l-2.23,0.18l-0.65,0.41l-1.23-0.41l-1.18-0.7l-1.17,0.64l-0.94-0.58l-0.59,1.11l0.06,1.05l-1.06-0.12l0.18,0.64
		l-1.18,0.88l-1.88,0.12l0.41,0.88l-0.53,0.41l0.59,0.99l-0.76,0.88l-1.23,1.11l-0.29,0.58l1,0.64l0.94,1.46l0.94,0.64l-0.24,0.7
		l-1.23,0.64l-1.29,0.99l-1.18,2.51l-1.82,0.76l-1.41,0.93l-1.76,0.41l-1.41,1.28l-1.06-0.47l-0.88,0.29l-0.59,1.05l-1.12,0.88
		l-1.41-0.12l0.12,0.47l-1.35,0.18l-0.59,2.33l-1.29,0.35l-0.41,0.47l-0.53-0.35l-1.23,0.06l0.94,1.63l-1,1.05h-0.67l-0.88,0.41
		l-1.11-0.47l-0.12,0.7l0.47,0.76l0.76,0.58l-0.06,0.76l-0.53,2.51l0.41,1.05l-1.23,0.7l-0.47,0.64l0.35,0.99l-0.06,0.64l0.41,1.11
		l0.47,2.45l0.64,1.17l-0.06,0.93l0.76,0.53l1.23-0.06l0.82,0.93l1.81-0.47l0.47,0.64l1.69,1.28l0.99,0.18l1.11,0.7V211l1.71,0.59
		l1.12,1.17l0.47,0.94l-0.06,0.59l-1.53,0.88l-0.77,0.76l-2.24,1.23l-0.35-0.06l-1.24,0.59l1.18,0.35l0.83-0.41l1.53-0.35l0.83,0.7
		l-1.3,0.29l-0.18,0.94l-0.47,0.59l-1.18,0.41l-1.65,0.88l-2.36,0.82l-0.65,0.7l-1.53,0.59l-0.77,0.47h-2.24l-2.18-0.06l0.59,0.53
		l0.53-0.12l2.12,0.23l1,0.76l-1.77,0.53l1,1.88l-0.41,0.47l0.24,2.05l-0.65,0.06l-0.18,0.82l0.35,1.47l0.59,1.23l-0.06,0.59
		l-0.88,1.41l0.53,1.7l-0.88,3.11l-1.12,1.82l-0.77,2.4l-1.06,0.82l-1.41-0.53l-2,0.29l-1.89-0.18l-1.77,0.12l-0.47,0.23l0.41,0.82
		l-1.36-0.12l-1,0.64l-1.18,1.23v0.88l1.12,1.76l-1,1.17h-0.52l-1.88-0.29l-3.22,0.7l-2.99-0.58l0.29-0.58l0.12-1.81l-0.35-0.99
		l-0.76-0.64l-1.82-2.21l-0.7-1.34l1.41,0.52l0.59-0.29l-1.05-1.51l1.29-0.06l0.41-0.58l-0.35-0.87l-1.11-0.35l-1.11-1.4l-1.05-0.7
		l-2.05-2.74l-0.76-1.86l-0.64,0.17l-0.7-2.15l-1-0.35l-0.35-2.15l-1.05-0.23l-0.76-0.99l-0.23-1.86l-0.7-0.35l-0.47-0.82
		l-0.47-1.75l-0.18-1.57l-0.53-1.05l0.29-0.7l0.64-0.12l0.64,0.47l0.59,1.05l1.11-0.12l0.41-0.82l0.35-2.27l-0.94-2.56l0.88-0.87
		l0.53-1.4l1.52-0.41l0.76-0.47l1.11-1.16l0.06-1.63l0.35-1.22l-0.29-0.82l-1.82-2.85l-0.18-0.93l1.05-0.35h1.41l0.76-1.46
		l0.23-1.11l-1.99-1.57l-0.7-0.23l-2.23-1.22l0.53-3.73v-0.93l-1.47-2.56l0.06-1.05l-0.35-1.63l0.64-0.64l-1.58-2.39l1.17-1.63
		l-0.29-0.87l0.7-0.58l2.05-2.21l1.93-0.87l1.93-0.23l4.16,0.52l1-1.28l-0.06-0.7l-0.64-1.69l-2.75-0.93l2.58-2.91l1.93-2.91
		l0.06-2.74l0.35-1.57l-0.82-2.27l2.23-0.23l1.41-0.29l1.93-0.87l-0.59-1.46l0.76-0.52l1.76-1.69l1.93-1.69l0.88-0.58l0.12-0.82
		l-0.59-0.76l-1.58-1.34l0.29-0.64l1.58-0.35l0.64-0.64l0.88-2.04l2.17-1.11l0.88-0.52l3.69,1.05l1.23-1.81l-0.47-2.1v-0.79
		l1.23-0.29l2.41,0.53l1.7,0.06l5.05,0.99l0.59,0.06l1.47-0.93l-1.7-0.53l0.94-0.53l0.82-1.11l-0.06-1.17l-1.53-0.93l3-0.12
		l1.7,0.47l0.24,0.53l1.7,0.64l2.82,1.34l2.47,1.05l4.88,0.99l2.06,1.05l0.71,0.93l0.82,0.06l1.12,0.88l1.06,0.53l-0.65,0.58
		l0.24,1.4l0.41,0.82l-0.18,1.11l1.65,0.23l0.35,0.76l-0.59,0.47l-0.06,0.64l0.47,0.93l1.94,1.52l0.35,0.53l-0.41,0.82l0.06,1.05
		l-0.88,0.76v0.76l0.76,1.52l1.06,0.35l1.12,1.28L297.92,164.71L297.92,164.71z"/>
	<path id="TR_00000110454345439796882100000001356744291961413789_" class="st0" d="M344.05,387.63l-1.69,0.29l-0.06-0.88l1.28-0.35
		L344.05,387.63z M457.47,374.93l2.53,0.77l0.65-0.6l2.12,0.06l2,0.48l0.53-1.13l0.82-0.24l0.82,0.18l0.35,0.66l0.71,0.24l2.06,1.49
		l0.65,1.01l1.12,0.12l0.76,0.71l0.76,0.95l1,0.71l1,1.97l-0.12,1.37l-0.59,0.83l0.47,1.13l1.12,1.79l-0.29,0.36l1.06,0.54
		l1.71,0.54l2.06-0.24l0.94,0.42l1.35,1.01l1.88,1.67l0.47,0.54l-1.94-1.13l-0.82,0.95l-0.06,2.26l-0.35,0.24l-1.65-0.06l-0.71,0.24
		l0.71,1.49l0.82,0.71v1.37l1.24,1.49l0.12,1.25l0.53,1.31l0.18,1.31l0.29,0.42l0.82,0.18l-0.35,2.26l-0.35,0.71l-0.24,1.19l1,0.36
		l1.88,1.19l0.06,0.77l0.35,0.89l0.18,1.19l1.88,1.37v0.7l-1.36-0.29l-2.16,1.81l-0.7-0.7l-0.18-1.4l-0.88-0.88l-0.76-0.12
		l-1.23,0.82l-2.45-0.18l-1.69-0.64l-1.69-0.47l-1.11,0.35l-1.28-0.41l-0.88,1.11l-1.17,1.11l-0.7,0.18l-0.93-1.52l-0.76-0.12
		l-0.7,0.76l-1.28,0.47l-2.69,0.58l-1.87,0.18l-2.39-0.35l-1.87,0.12l-1.81,0.82l-3.04,1.63l-2.39,0.82l-2.45,0.53l-4.44-0.12
		l-0.64-0.18l-2.04-1.34l-1.98-0.35l-1.98,0.93l-1.34,0.47l-2.04,0.93l-2.8-0.06l-1.11-0.99l-2.16-0.41l-0.35,0.93l-0.18,2.22
		l1.05,1.81l-2.03,0.82v1.52l-0.95,0.64l-0.47,0.93l-1.28-0.7l-0.58-0.06l0.41-0.76l-1.46-2.86l0.41-0.88l2.04-2.28l-0.23-1.4
		l-1.17-0.93l-1.69,1.23l-0.99,0.47l-0.18,0.7l-0.64,0.47l-1.05,0.23l-1.69-0.58l-1.87-0.82l-1.11-0.64l-0.82-0.18l-0.76,0.29
		l-2.04,1.63l-1.81,2.39l-0.47,0.47l-1.87,0.99l-1.28,0.35l-0.58-0.06l-2.57,0.47l-1.28,0.06l-0.93,0.53l-2.04-0.58l-1.28-0.76
		l-0.82-0.76l-1.34-1.69l-0.93-0.76l-1.93-0.7l-3.39-1.75l-3.09-0.41l-2.33-0.18l-0.41,0.64l0.06,2.45l-0.29,0.7l-0.06,1.28
		l-0.64,0.64l-1.23-0.58l-1.11,0.53l-2.16,0.76l-0.7,0.06l-2.69-0.93l-1.69-1.23l-0.35-1.17l-0.76-1.58l-1.05,0.18l-1.34-0.23
		l-1.87-0.93l-1.4-0.06l-0.7,1.11l-0.58,0.41l-0.76-0.23l0.47-0.76l-2.16,0.12l-1.05,0.58l-0.88-0.06l-0.58-0.58l1.17-0.35
		l2.28-0.23l0.53-0.23l0.53-0.76l0.99-0.7l-0.7-0.29l-3.5,0.18l-2.45-0.12l-0.58,0.41l-0.23-0.93l2.1-0.82l-0.18-0.76l-2.45-1.28
		l-0.18-0.93l-1.17-1.81l1.11-0.29l0.06-1.46l-0.23-0.88l-2.28-0.76l-0.47,0.06l-0.64-0.76l-0.99-0.53l-0.7,0.41l-1.93-0.82
		l-0.35-0.35l0.29-0.82l0.58-0.64l-0.53-1.11l-0.06-0.58l1.05-0.06l0.58,0.64l0.18,1.28l2.1,0.41l1.69-0.35l-1.46-0.64l-0.64-0.7
		l-0.7-1.34l1.05-0.64l0.7-0.99l-1.58-0.7l0.12-1.4l-1.46-1.58l0.18-0.47l1.34-1.63l-0.7-0.41l-2.51,0.41l-0.93,0.35l-1.81,0.12
		l-0.18-0.93l0.35-0.76l-0.29-1.98l0.12-1.05l0.99-0.35l0.99-1.58l1.75-1.69h2.04l0.76-0.58h1.23l0.47,0.7l1.11,0.53l1.87-0.06
		l0.82-0.53l-0.93-0.88l0.99-0.29l0.88,0.23l-0.06,1.05l2.39-0.29l2.57,0.23l0.82-0.12h1.17l0.29-0.3l-2.12-1.01l1.18-0.89l4-0.71
		l2.18-0.48l-3.35-0.48l-0.82-0.36l-1.18-0.83l-0.59-0.66l0.18-1.55l0.35-0.42l1.29-0.06l4.53,0.71l3.12-0.48l3.59,1.07l3.29-0.24
		l0.65-0.42l0.65-1.55l4.35-2.5l1.41-1.25l1.65-0.71l2.94-0.83l2.35-1.01l0.71-0.12l6.12,0.48l4.12,0.06l1.76-0.95l1.18,0.3
		l-0.06,1.25l1.53,1.55l2.06,0.83l2.59-0.71l1.06,0.3l1.29,2.38l0.88,0.83l1.06,0.54l0.76,0.12l0.88-0.83l1-0.06l1.71,0.77
		l0.71,0.83l2.82,0.66l2.53,0.36l1.18,0.71l3.65,0.71l1.29-0.12l2.12-0.77l4.12-0.77l3.06,1.13l1.47,0.06l1,0.3l1-0.18l2.94-1.37
		l0.82-0.71l1-0.24l3.06-1.97L457.47,374.93L457.47,374.93z M357.24,370.65l-0.06,1.05l0.58,1.17l1.34,1.58l1.17,0.82l4.73,1.93
		l0.82,0.18l-0.53,2.04l-1.23,0.29l-3.74-0.88l-0.93-0.06l-1.69,0.82l-1.34-0.23l-1.81,0.35l-0.35,1.23l-1.17,1.4l-1.93,1.11
		l-1.46,0.58l-2.04,2.16l-0.88,1.28l-0.88,0.41l0.29-1.17l-0.18-0.99l1.34-1.17l1.93-0.93l0.41-0.76l-3.15,0.18h-1.93l-0.58-1.05
		l0.47-0.23l1.46-1.87l-0.29-2.57l1.98-1.46l-0.53-1.81l-1.34-0.88l-0.7-0.18l0.18-0.82l1.11-0.18l0.58-1.28l1.98-0.23l0.88-0.64
		l2.04-0.18l1.98,1.46l0.88-0.35h1.05l0.53-0.23L357.24,370.65L357.24,370.65z"/>
	<path id="UA_00000170974792689040311740000013458677026198392219_" class="st0" d="M381.02,332.7v0.35l-2.28-0.47l-0.53-0.53
		L381.02,332.7L381.02,332.7z M365.43,341.34l-1.1-1.05l-1.27-0.41l-1.27,0.12l-1.27,0.76l-0.93,0.29l-0.52-0.18l-0.35,0.7
		l-2.32-0.53l-1.04-0.53l-0.87-0.93l0.64-0.41l1.16-0.12l0.23-0.58l-0.29-0.82l1.45-1.69v-0.88l1.34-0.99l0.23-1.17l-0.58-0.99
		l-0.29-1.23l1.46-0.93l1.23,0.58l1.11,0.12l1.23,0.47l0.93-0.35l0.7,0.76l1.69-0.23l0.35-0.41l-1.69-0.99l-0.12-1.69l-0.58-0.93
		l-1.23-0.47l-1.17-0.76l-0.53-1.11v-1.18l-1.69-1.19l-1.34-0.71l-0.35-0.71l0.35-1.85l-0.35-1.37l-0.82-0.83l-0.82,0.42l-0.82-0.6
		l-0.82-1.13l-3.27-0.36l-0.35-0.71l-1.46-0.18l-2.1-1.43l-2.04-0.6l-0.93,0.6l-0.47-0.18l-0.7,0.6l-2.33-0.06l-0.41-0.12
		l-1.34,0.83l-0.12,0.36l-2.16,0.48l-0.12,0.83l-0.64,1.13l-4.9,0.71l-1.98,0.77l-0.58,0.71l-1.23,0.3l-2.51-1.97l-0.7-0.18
		l-2.1,0.42l-4.03-0.83l-1.58,0.06l-1.58-0.89h-0.41l-0.53,0.71l-1.23,0.54l-0.41-1.01l-0.53-0.42l-1.34-0.24l-0.53-0.66l-1.28-0.48
		l-0.82-1.37h-0.88l-0.06-1.49l0.93-1.01l0.47-1.73l0.88-1.79l1.93,0.42l0.23-0.54l-1.11-0.83l0.06-1.07l-0.88-2.26l0.35-0.6
		l1.98-2.62l1.4-1.61l2.8-2.74l1.75-0.3l0.7-1.07l-0.06-0.77l-1.05-1.55l0.7-0.77l-0.82-0.6l-1.11-1.67l-1.58-1.67v-0.25l-0.7-1.08
		l-0.06-0.84l0.64-0.3l1.11,0.18l0.64,0.3l1.11-0.72l0.93-0.96l0.47-0.84l3.44-0.3l1.34-0.3l1.4-0.06l4.55,0.24l3.79,0.9l3.56,0.54
		h1.34l1.05,1.26l0.58,0.18l1.75-0.06l0.64,0.24l0.47,0.84l0.7-1.02l1.11,0.3l1.11-0.42l2.98,0.6l0.47,0.78l0.58,0.18l0.35-0.66
		l2.22-0.96l1.46,1.81l0.35,0.3l1.34-0.48l4.14-0.36l1.17,0.66l0.29,0.72l1.58,0.54l0.47-0.84l-1.05-2.17l0.58-1.99l0.47-0.72
		l1.28-1.38l0.64-0.3l0.99,0.24l0.82-0.48l2.92,0.06l1.52,0.48l0.99-0.06l1.05-0.54l0.29-1.44l0.93-0.36l2.16,0.54l0.58-0.06
		l1.58-0.72l0.93-0.12l1.17,0.18l1.98-0.12l1.46,0.84l0.82,0.84l0.99,1.63l2.33,1.81l-0.06,0.6l-1.69,0.3l0.76,1.14l0.29,1.2
		l0.7,1.02l-0.23,0.6l1.81,0.06l1.69,0.6l2.39-0.3l0.88,1.32l1.11,0.12l0.12,0.54l0.82,1.69l0.53,0.66l-0.12,1.08l0.29,0.6
		l1.11,0.96l0.41,0.6l0.64,0.24l1.34-0.84l1.63,0.24l1.58,1.2h1.23l0.99,0.64l0.82-0.75l2.51-0.52l1.34-0.58l0.58,0.06l1.34,1.04
		l0.29,0.7l0.88,0.93l2.74,1.68l0.76-0.35l0.53-0.87l1.52,0.81l1.4,0.12l2.1,1.1l0.82,0.06l0.93-0.35l1.17,1.04l1.11,0.12l2.57,1.33
		l1.69-0.17l0.58,0.46l-0.06,0.99l0.58,0.52l-0.06,1.51l-0.99,1.22l-1.34,0.46l0.64,0.87l1.81,0.52l-0.53,0.52l-0.82-0.12
		l-0.47,0.58l-0.18,1.33l1.46,0.41l0.7,1.62v0.64l0.7,0.17l-0.76,2.73l-0.06,1.04l-2.45,0.12l-3.5-0.17l-0.53,0.12l-0.53,1.1
		l-1.34,0.81l-0.99,0.12l-0.47,0.46v1.33l-0.23,0.75l0.64,0.41l-0.41,0.93l0.29,0.75l-0.29,0.06l-2.51-0.12l-1.98,0.17l-1.23,1.39
		h-1.24l-1.85,0.88l-0.81,0.99l-0.81-0.47l-1.79,0.29l-0.98,0.64l-1.79-0.06l-1.33,0.35l-2.66,2.22l-0.75,0.06l-0.58-0.58
		l-0.93,1.52l-1.39,0.7l0.35,1.81l1.62,2.63l2.08,2.28l0.98,0.82l1.39,0.41l1.79-0.82l1.39,0.23l0.98-0.7l0.87-0.06l2.14,0.58
		l-0.64,1.46l-0.17,1.52l-1.1,0.35l-1.27-0.06l-1.27,0.23l-1.56-0.88h-1.45l-0.64,1.11l-1.33,0.76l-0.35,0.82l-1.51-0.18l-1.22,0.12
		l-1.62,0.82l-1.1,1.63l-1.33,1.05l-1.1,0.29l-1.16-0.06l-0.75-0.35l-1.68-1.05l0.41-1.17l0.29-2.04l-0.69-1.69l-1.33-0.82
		l-0.93,0.12l-0.52-0.18l-2.14-1.4l-1.1-0.12l-1.1,0.29l-0.87-0.7l2.03-1.69l2.03-1.4l0.98-0.12l1.22-0.7l1.27-0.93l-0.75-1.34
		l-1.1,0.35l-1.27-0.64l-0.52-0.47l-1.79,0.47l-1.04-0.06l-2.2,0.47l-1.1-0.47l-2.32-1.17l-1.51-0.18v-0.58l1.04-0.18l0.06-0.58
		l-2.2-0.35l-0.06-0.76l1.16,0.29l1.85,0.12l1.68,0.29l1.22-1.05l-1.39,0.29l-1.68-0.29l-1.22-1.05l-1.27,0.7l-1.85-0.29l-1.39,0.47
		l-1.33-0.12l-2.37,0.64l-0.23,1.69l-1.16,2.33l-1.79,2.16l-2.66,1.23l-0.98-0.23l-0.52,0.64l0.12,0.76l0.58,0.53l0.64,1.81
		L365.43,341.34L365.43,341.34z"/>
	<path id="XK_00000170995410575292821440000016036794000748134828_" class="st0" d="M309.19,368.47l-1.25,0.24l-0.89,1.13
		l-0.95-0.71l-0.59,0.06l-2.02,0.89l-0.12,1.54l-0.3,0.47l-1.01-0.18l-0.06-1.31l-0.83-1.9l-1.13-0.77l-0.83-0.3l-1.19-1.72
		l-0.3-0.24l0.12-0.77l-0.53-0.89l1.19-0.24l0.12-0.42l0.95-0.24l0.89-0.3V362l1.01-0.77l0.24-0.59l-0.36-0.95l1.01-0.53l0.65,0.77
		l1.66,0.77l1.37,1.25l0.12,0.42l1.31,0.71v0.77l2.79,0.71l-0.12,0.71l-0.71,1.9l-0.59,0.53L309.19,368.47L309.19,368.47z"/>
	<path id="NL_00000173155978816055495960000005890759154261609871_" class="st0" d="M179.91,286.53l-0.35,0.7l-1.87,0.88l-2.28-0.64
		l-0.7,0.35l-0.7-0.41l-0.18-0.76l1.63-0.23l2.04,0.41l0.88-0.35l0.7,0.29L179.91,286.53L179.91,286.53z M177.92,283.43l0.88,0.82
		l-0.88,0.18l-0.93-0.58L177.92,283.43L177.92,283.43z M188.49,278.47l-1.75-0.23l-0.53-0.41l1.4-0.99l1.87-0.88l0.99,0.23
		l0.29,0.53l-0.64,0.64L188.49,278.47L188.49,278.47z M184.3,271.76l-0.64,0.64l-0.35-0.82l0.99-0.82V271.76L184.3,271.76z
		 M179.98,286.53l-1.52-0.47l-1.28,0.29l-1.63-0.41l-0.99-0.76l0.7-0.41l1.34-0.06l2.33,0.41l0.7-0.53l-0.35-0.58l-1.34-1.23
		l0.93-1.58l0.82-0.58l1.87-2.22l0.53-1.17l0.7-3.21l0.58-1.17l0.82,0.29l1.17-0.47l1.98-1.17l0.58-0.99l0.58-0.53l2.33-0.93
		l1.23-0.23l5.2-0.29l1.05,0.99l1.58,0.35l0.06,2.51l-0.41,0.99l-0.64,2.22l-1.81-0.06l-0.35,0.93l0.41,0.58l1.52,0.18l0.47,0.58
		l-0.35,1.52l-1.52,0.93l-0.18,0.53l0.58,0.53l-0.41,0.58l-2.63,0.76l-1.34-0.47l-1.05,0.41l-0.41,0.64l1.81,2.39v0.7l-0.76,1.63
		l0.41,0.7l-1.28,0.93l-0.29,0.47l1.11,0.7l-0.35,1.4l-0.7-0.06l-1.4-0.18l-0.41-0.64l0.64-0.76l0.58-1.69l-1.52-0.64l-0.99-0.76
		l-1.11,0.23l-1.52-0.82l-0.29-0.93l-1.46,0.47l-0.64-0.76l-0.88,0.58l-0.88-0.47l-0.82,0.41l0.12,0.53L179.98,286.53L179.98,286.53
		z M190.49,277.42l0.53-0.53l-0.29-1.11l-1.23-0.18l-0.29-0.47l0.23-1.46l-1.63-0.23l-0.23-1.46l-0.88,0.18l-1.34,0.88l0.35,0.76
		l0.93,0.93v0.53l-1.23,0.41l0.06,1.52l-0.12,0.93l3.15,0.82L190.49,277.42L190.49,277.42z"/>
	<path id="ES_00000165215688275291235750000012428384861166415542_" class="st0" d="M161.19,398.72l-0.23,0.58l-1.17-0.23v-0.88
		l0.7-0.93l1.58-0.41l0.47,0.76L161.19,398.72L161.19,398.72z M174.01,390.78l0.7,0.29l0.76-0.29l0.82,0.23l0.12,0.58l-1.28,2.04
		l-0.35,0.82l-1.23,0.76l-2.33-0.99l-0.18-0.93l-0.82-0.41l-0.99,0.76l-0.82-0.58l-0.18-0.7l3.09-2.16l0.88-0.53l1.87-0.53l0.29,0.7
		L174.01,390.78L174.01,390.78z M182.59,390.31l-0.18,0.12l-2.28-1.11l-0.93-0.23l0.06-0.82l1.52-0.12l1.23,0.41l0.7,1.05
		L182.59,390.31L182.59,390.31z M137.37,357.98l0.29,0.75l2.5,0.75l-0.17,1.83l1.05-0.23l2.56,0.97l1.28,0.11l1.28,1.2l2.1-0.23
		l1.86,1.2l1.81-0.23l0.41,0.23h2.74l0.47-1.38l2.33,0.63l1.46,0.57l0.99,0.17l0.64,0.86v1.73l0.41,0.23l1.63-0.64l1.63,0.7
		l0.76,0.7l1.22-0.64l2.73,0.7l0.7-0.46l2.21-0.64l1.8,0.35l0.7,1.28l-1.05,0.29l-0.12,0.81l0.7,0.76l0.06,1.22l-1.74,1.63
		l-5.05,2.73l-1.68,1.57l-3.83,0.87l-2.61,0.87l-1.28,0.29l-2.38,2.21l0.64,0.17l0.7,0.7l-0.23,0.35l-1.45,0.64h-0.52l-1.68,2.67
		l-1.51,1.92l-0.87,0.87l-0.87,1.22l-1.86,3.25l-0.06,0.93l0.93,3.2l1.28,1.57l1.39,0.64l0.35,0.58l-0.46,0.58l-1.39,0.99l-2.5,1.34
		l-1.05,1.1l-0.17,1.05l-0.76,0.46l-0.29,1.45l-1.05,2.56l0.76,0.7l-0.76,0.46l-3.78,0.17l-2.38,1.63l-1.16,1.39l-1.1,2.61
		l-1.28,1.51l-0.58,0.29l-0.87-0.7l-1.1-0.06l-1.1,0.17l-0.58,0.58l-0.87,0.29l-0.87-0.29l-2.67-0.12l-1.34,0.46l-1.1-0.29
		l-1.86-0.17l-4.07,0.35l-2.32,1.98h-1.9l-1.82,0.7l-1.23,1.76l-0.29,0.94l-0.59-0.18l-0.18,0.7l-1.23,0.47l-1.41-0.59l-1.17-0.88
		l-0.59-0.06l-0.94-1.29l-0.7-1.82v-0.65l-0.88-0.35l-0.18-0.82l0.12-0.94l-0.7-1.17l-2.94-2.17l-2.17-0.18l-1.76,0.29L94,410.98
		l0.47-1.29l2.06-2.53l1.23-0.35l0.41-1.41l-1,0.12l-1.76-2.53l0.53-2.35l1.88-1.76l0.35-1.41L97.88,397l-1-0.23l-0.94-1.88
		l-0.18-1.12l-0.82-0.7l-0.65-1.12l0.65-0.18h2.55l0.59-0.3l1-2.07v-1.12l-0.82-0.77l0.12-0.59l1.58-1.24l-0.23-0.65l0.23-2.24
		l-0.23-2.07l-0.47-1.18l1.17-0.95l0.64-0.95l0.94-0.83l1.23-0.65l1.47-1.48l-0.18-0.65l-1.11-0.53l-1.11-0.12l-0.06-1.83
		l-0.41-0.65l-3.05-0.06l-0.88-0.3l-0.47,0.83l-1.47,0.53h-0.82l-1.29-0.47l-1.7,0.06l-1.76,0.65l-0.53-0.77l0.76-1.12l-0.59-1.06
		l-2.4,0.59l-1.11,0.53l-0.7,0.65l-0.76-0.06v-1.37l1.51-1.49l-0.93-0.11l0.7-1.09l-0.58-0.57l0.06-1.49l-1.34,0.52l-0.29-0.69
		l0.82-1.26l-0.82-0.11l-1.34-1.43l0.47-1.78l1.16-0.57l1.11-0.86l1.51,0.17l0.99-0.17l2.1-0.92l-0.23-0.86l0.23-0.4l1.86-0.97
		l1.16-0.11l1.11-0.52l0.76,0.29l0.64-0.06l0.76,0.34l0.99,0.92l1.46,0.34l1.16-0.29l2.1-0.06l0.99,0.11l1.86-0.17l1.05,0.06
		l1.69-0.46l1.34,0.57l2.56,0.23l1.51,0.46l4.19,0.8h1.57l2.15-0.46l0.93-0.29l0.87,0.17l1.22-0.34l1.34,0.57l2.74,0.75l1.22-0.75
		l1.98,0.34l1.92,0.75l1.05,0.06l1.51-0.17L137.37,357.98L137.37,357.98z"/>
	<path id="FR_00000078732909022185754810000003069743672694565513_" class="st0" d="M220.14,363.34l-0.18,1.34l0.58,0.99l0.35,3.79
		l-1.05,1.87l0.06,1.75l-0.93,2.51l-0.47,0.64l-2.22-1.17l-0.7-0.64l0.58-1.05l-1.28-0.53l0.23-0.99l-0.12-0.53l-0.93-0.29
		l0.58-0.76v-0.47l-0.88-0.58l-0.18-0.53l0.76-0.64l-0.35-0.53l0.06-0.76l0.53-1.11l0.7-0.53l1.63-0.47l0.7-0.64l1.11,0.35l0.35-0.7
		l-0.12-1.58l0.18-0.64l0.76,0.29L220.14,363.34L220.14,363.34z M142.03,335.38l-0.23,0.82l-1.11-1.4l0.58-0.29L142.03,335.38z
		 M191.19,302.94l1.23,0.7h0.82l1.17-0.35l0.76,0.41l0.82,0.06l2.04,2.5l1.05-0.41l0.82,0.23l0.18,0.52l1.23,0.06l1.75-0.35
		l1.17,0.81l2.8,0.47l0.93,0.35l0.06,0.76l-2.04,2.21l-0.82,3.2l-0.58,1.05l-0.18,0.87l0.12,1.4l-0.35,1.16v0.87l0.64,0.76
		l-0.88,0.41l-0.47,0.81l-1.58,0.17l-0.47-0.47h-0.42l-1.05,0.82l0.76,0.64l-0.35,0.53l-2.21,2.35l-1.22,0.53l-0.29,1.7l-1.75,1.29
		l-0.64,1.7l0.47,0.41l-0.17,0.88l-0.87,0.59v0.59l0.82,0.06l1.34-0.94l-0.29-0.76l1.34-0.88l1.11-0.06l1.28,0.18l0.47,1.29l-0.29,1
		l1.34,1.35l0.52,0.82l-1.51,1l0.06,0.94l0.52,0.35l0.99,1.52l1.05,0.94l-0.47,1.47l-0.7,0.18l-0.99,0.76l-1.11-0.12l-0.47,0.23
		l0.87,1.82l1.86,0.82l0.29,1l-0.47,0.41L200.4,348l0.41,0.76l0.06,0.82l0.52,0.53l2.97,1.41l1.92-0.35l0.17,1.17l-1.22,1.52
		l0.12,0.88l-0.35,0.18l-0.47,0.18l-1.4,0.64l-2.27,1.99l-1.05,0.59l-0.41,1.06l-1.17,0.82l-1.4,0.29l-1.34,0.59l-0.64-0.23h-1.63
		l-0.99-0.7l-1.98-0.47l-0.64-1.06l-1.46-0.06l-0.47-0.88l-1.11,0.18l-0.87,0.41l-1.17-0.06l-3.44-1.06l-0.82-0.82l-0.99,0.29
		l-0.93,0.94l-3.79,2.4l-1.51,2.52l-0.06,0.7l0.41,2.29l0.93,1.47l-1.81-0.35l-2.21,0.64l-0.7,0.47l-2.74-0.7l-1.22,0.64l-0.76-0.7
		l-1.63-0.7v-1.02l-1.71-0.35l-0.53,0.41l-0.64-0.88l-0.99-0.18l-1.46-0.58l-2.33-0.64l-0.47,1.35h-2.74l-0.41-0.18l-1.81,0.23
		l-1.87-1.23l-2.1,0.23l-1.28-1.23l-1.28-0.12l-2.57-0.99l-1.05,0.23l0.18-1.87l-2.51-0.76l-0.29-0.76l1.17-0.29l1.11-1.11
		l0.99-4.14l0.76-4.84l0.58-0.93l0.7-0.23l-0.58-0.7l-0.64,0.88l0.41-4.44l0.29-1.63l0.53-1.75l1.81,1.4l0.47,0.58l0.53,1.98
		l0.35,0.06l-0.64-2.69l-1.05-1.34l-2.1-1.34l-0.29-0.76l1.05-0.35l-0.29-1.05l-0.29-3.44l-1.75-0.35l-2.8-1.52l-0.99-1.52
		l-0.93-1.11l-0.23-0.99l0.53-1.05l-0.47-0.64l-0.82-0.47l0.64-0.93l-1.75-0.12l-1.05-0.29l-0.18-0.64l0.76-0.82l-0.93-0.47
		l-1.52,0.12l-0.12-0.99l-1.28,0.18l-0.7-0.18l-0.64-0.64l-0.76,0.12l-1.28-0.23l-0.47-0.41l-2.8-0.76l-1.17-0.06l-1.11,0.35
		l-0.64-0.18l-0.76-1.28l-1.81-0.64l0.35-0.41l1.81-0.35l0.35-0.41l-1.28-0.53l-0.12-0.7l0.93,0.18l0.06-0.7l-2.33,0.06l-0.23-0.76
		l0.29-0.82l1.34-0.7l3.39-0.82l1.46,0.12l0.99-0.12l1.75-0.93l1.69-0.23l1.58,0.47l1.46,1.63l0.7,0.58l1.81-0.99l2.57,0.06
		l0.53,0.53l0.7-0.99l0.58,0.58l2.74-0.12l-0.88-1.46l-0.12-3.5l-0.76-0.99l-1.23-2.51l0.12-0.82l1.87,0.18l1.58-0.35l0.76,0.23
		l0.18,1.63l0.64,0.94h1.28l1.34,0.29l1.75,0.06l2.51,0.47l1.05-0.29l2.04-1.17l-1.05-0.41l-0.12-0.41l0.53-1.28l3.04-1.46
		l2.16-0.41l2.22-0.76l1.17-0.82l0.7-1.05l0.29-0.76l0.18-3.97l0.58-1.28l1.69-0.93l3.74-0.64l0.53-0.29l0.42,1.28v0.75l1.69,1.4
		l1.87-0.58l0.93,1.05l0.29,1.16l2.45,0.64l0.35,1.16l0.53-0.17l2.1,0.23l0.93,0.64l-0.23,0.93l0.41,0.41l-0.41,0.81l0.29,0.35
		l1.34,0.17l1.28-0.17l0.76-0.35l0.29-0.81l1.11-0.35l-0.47,1.57l0.35,0.35l0.23,1.16l0.99,0.06l1.93,0.87l1.63,1.51L191.19,302.94
		L191.19,302.94z"/>
	<path id="PT_00000033369364320420132090000006267601573338850720_" class="st0" d="M94.68,414.71l-0.7,0.12l-2.64,1.47h-0.85
		l-1.46-0.77l-2.63-0.23l-0.88-0.18l-1.05,0.01H83.6l-0.64,0.99l-0.47-0.18l0.58-1.23l0.83-2.39v-1.52l0.34-1.28l-0.18-1.23
		l-0.41-0.82l0.83-2.04v-1.05l-0.72-1.34l1.63,0.18l-0.99-0.93h-1.17l-1.32,0.53l-0.86,0.06l0.06-0.82L80.84,401l1.14-0.35
		l0.92-0.99l-0.17-0.93l-0.69,0.64l-0.34,0.82l-1.6,0.41l-0.86-0.29v-1.11l0.34-0.99l0.23-1.34l0.46-1.28l-0.11-0.82l0.92-0.76
		l0.8-1.11l2.46-5.2l-0.34-0.58l0.97-3.85l0.69-1.34l0.34-2.51l-0.11-1.17l-0.4-1.17l-0.4-2.51v-0.93l-0.54-1.05l0.06-0.58
		l0.85-0.99l0.72-0.64l1.15-0.53l2.48-0.58l0.6,1.05l-0.78,1.11l0.54,0.76l1.81-0.64l1.75-0.06l1.33,0.47h0.85l1.51-0.53l0.48-0.82
		l0.91,0.29l3.14,0.06l0.42,0.64l0.06,1.81l1.15,0.12l1.15,0.53l0.18,0.64l-1.51,1.46l-1.27,0.64l-0.97,0.82l-0.66,0.93l-1.21,0.93
		l0.48,1.17l0.24,2.04l-0.24,2.22l0.24,0.64l-1.63,1.23l-0.12,0.58l0.85,0.76v1.33l-1,2.05l-0.59,0.29h-2.52l-0.65,0.18l0.65,1.11
		l0.82,0.7l0.18,1.11l0.94,1.88l1,0.23l0.29,0.47l-0.35,1.41l-1.88,1.76l-0.53,2.35l1.76,2.52l1-0.12l-0.41,1.41l-1.23,0.35
		l-2.05,2.52l-0.47,1.29L94.68,414.71L94.68,414.71z"/>
	<path id="CY_00000080167029313725916540000001318732195297665962_" class="st0" d="M408.14,434.39h-0.06h-0.06l0.06-0.06
		L408.14,434.39z M407.87,434.97h0.34h0.06h0.06h-0.06h-0.06H407.87L407.87,434.97z M407.91,434.39h-0.04v0.58l0,0v-0.59l0.58,0.06
		v-0.05H407.91z M410.2,434.03l-0.13,0.06l0.18,0.18l0.12,0.23l0.06,0.18l0.12,0.12l0.12,0.18h-0.12h-0.18l-0.18-0.18l-0.12,0.18
		h-0.12l-0.41-0.24l-0.35,0.06l-0.06,0.06l-0.06,0.12h-0.18h-0.18l-0.06-0.12l0.12,0.12h0.06h-0.06h-0.12l-0.8-0.41v-0.23l0.63-0.06
		l-0.04-0.06v-0.12l-0.07-0.06l0.12-0.06l0.06,0.06l0.06,0.06l0.12-0.06l0.06-0.06l0.06-0.06l0.06-0.06l0.12,0.12l0.12-0.17h0.06
		l0.12,0.58h0.06l0.18-0.58h0.12l0.06,0.58h0.12h0.06h0.31V434.03L410.2,434.03z M407.87,434.67v0.12l-0.42,0.06l-0.74,0.18v0.12
		l0.58,0.18v0.18v0.18v0.18v0.3h-0.13l0.13-0.18v0.12l-0.06,0.06h-0.12h-0.25l-0.12,0.06l-0.06,0.06l-0.06,0.12l-0.06,0.06
		l-0.12,0.06l-0.25,0.06l-0.25,0.12l-0.18,0.06l-0.12-0.18l0.06,0.31l-0.25,0.12l-0.55,0.12l-0.12,0.06l-0.06,0.06l-0.12,0.06h-0.17
		l-0.53-0.06l-0.58,0.06l-0.06,0.06l-0.12,0.06l-0.35,0.29l-0.06-0.4h-0.18l0.07,0.64V438l-0.31-0.06l-0.06-0.12l0.06-0.12
		l0.06,0.18h0.18l-0.06-0.36l-0.23-0.06l-0.12,0.12l-0.06,0.06l-0.04-0.06v0.06l-0.31-0.06l-0.18-0.12l-0.69-0.06v-0.11h0.57h-0.06
		h-0.06h-0.06l0.19,0.05v-0.05h-0.37l-0.06,0.58h-0.12h-0.12l-0.06-0.3l0.06,0.12l-0.12,0.18h-0.29l-0.35-0.18l-0.29-0.12
		l-0.41-0.23l-0.18-0.06l-0.18,0.01h-0.29l-0.18-0.12l-0.12-0.12l-0.35-0.23l-0.06-0.06l-0.04-0.23v-0.06l-0.07-0.06l-0.23-0.53
		l-0.06-0.06l-0.18-0.12l-0.12-0.06l-0.06-0.06l0.13-0.12v-0.12l-0.13-0.12l-0.18-0.23l0.31-0.12v-0.23l-0.42-0.12l-0.18-0.29
		l-0.12-0.18l-0.06-0.23l0.06-0.05h0.06l0.18-0.06l0.23,0.29l0.18,0.06l0.12,0.3h0.35l0.23-0.36l0.18-0.23l0.18-0.23l0.06-0.29
		l0.06-0.18l0.12-0.06l-0.04-0.06v0.24h0.16h0.06h0.06h0.12l0.06-0.18l0.12,0.18h0.12h0.06l0.12-0.18l0.31-0.12v-0.12l-0.02,0.06
		l0.12,0.23l0.06,0.12l0.06,0.12l0.12,0.06l0.23,0.06l0.18,0.06l0.12,0.12l0.12,0.06l0.19,0.12v0.12l-0.07,0.06l0.06-0.17h0.06
		l0.23,0.17l0.06-0.12l0.06-0.12l0.06-0.06l0.06,0.06l0.06,0.06l0.12,0.59h0.12l0.12-0.59l0.12-0.12l0.12-0.12l0.12-0.06l0.18-0.12
		l0.06-0.17h0.12l0.18,0.58h0.18h0.23l0.06-0.58h0.06l0.06-0.07l0.18-0.52h0.12l0.12,0.46l0.06,0.12h0.12h0.06l0.12,0.05l0.12,0.12
		l0.12,0.06l0.18,0.36h0.06l-0.1-0.36v-0.06l0.22-0.12l0.18-0.05h0.06h0.12h0.18h0.12h-0.28v-0.01l0.39,0.12l0.06,0.06l0.12,0.12
		l0.02,0.12v0.06l0.58,0.18v0.12v0.18v0.23l-0.48,0.18l0.06,0.12l0.06,0.3h0.12h0.25v-0.42v-0.23l-0.07-0.06l0.06-0.06l0.06-0.06
		l0.06,0.06l0.06,0.23l0.06,0.12l0.06,0.06l0.31-0.06v-0.12l-0.07-0.05h0.12l0.06,0.58h0.12l0.06-0.59l0.06,0.59h0.06l0.18-0.58
		h0.12h0.06l0.18,0.29L407.87,434.67z"/>
	<rect id="_x30__00000075845797666706210560000010827310812774718386_" x="149.38" y="285.53" class="st0" width="0" height="0"/>
	<rect id="_x31__00000124883029039921375500000016665343419906879677_" x="251.82" y="297.91" class="st0" width="0" height="0"/>
	<rect id="_x32__00000052791006856666335470000009996063194397934238_" x="220.07" y="213.04" class="st0" width="0" height="0"/>
</g>
</svg>
